<svg width="113" height="112" viewBox="0 0 113 112" fill="none" xmlns="http://www.w3.org/2000/svg">
<circle opacity="0.2" cx="55.9845" cy="55.914" r="55.652" fill="#6399F9"/>
<circle r="1.31687" transform="matrix(1 0 0 -1 13.0434 54.2536)" fill="#76D4B5"/>
<circle r="3.29217" transform="matrix(1 0 0 -1 14.9611 38.5943)" fill="white"/>
<circle r="3.29217" transform="matrix(1 0 0 -1 41.7565 97.3381)" fill="#011A51"/>
<circle r="3.29217" transform="matrix(1 0 0 -1 108.745 61.2674)" fill="#FB847C"/>
<path d="M76.3817 27.0041L84.2827 35.5637L84.2827 84.2385C84.2827 86.4476 82.4919 88.2385 80.2827 88.2385L31.6574 88.2385C29.4482 88.2385 27.6574 86.4476 27.6574 84.2385L27.6574 22.4445C27.6574 20.2353 29.4482 18.4445 31.6574 18.4445L68.4805 18.4445L76.3817 27.0041Z" fill="#011A51"/>
<line x1="42.6431" y1="66.8868" x2="66.6636" y2="66.8868" stroke="white" stroke-linecap="round"/>
<line x1="49.2275" y1="77.4218" x2="61.3962" y2="77.4218" stroke="white" stroke-linecap="round"/>
<line x1="45.2769" y1="72.1544" x2="65.3467" y2="72.1544" stroke="white" stroke-linecap="round"/>
<circle r="1.9753" transform="matrix(1 -9.18448e-09 -9.18448e-09 -1 41.4846 41.4895)" fill="white"/>
<circle r="1.9753" transform="matrix(1 -9.18448e-09 -9.18448e-09 -1 65.1882 41.4895)" fill="white"/>
<path d="M84.2827 35.5637L76.3817 27.0041L68.4805 18.4445L68.4805 31.5637C68.4805 33.7729 70.2713 35.5637 72.4805 35.5637L84.2827 35.5637Z" fill="white"/>
<path d="M49.7371 59.8005L47.7124 57.7377C50.0133 56.1934 56.5252 56.3393 58.8985 57.7377L56.8739 59.8005C54.914 61.7973 51.697 61.7973 49.7371 59.8005Z" fill="white"/>
<circle cx="83.2952" cy="82.1941" r="11.8518" fill="#FB847C"/>
<path d="M78.6265 82.1941L82.4164 85.984C82.5016 86.0693 82.6423 86.0603 82.716 85.9649L88.6826 78.2435" stroke="white" stroke-width="1.5" stroke-linecap="round"/>
</svg>
