<svg width="108" height="115" viewBox="0 0 108 115" fill="none" xmlns="http://www.w3.org/2000/svg">
<path d="M95.4809 94.8079C93.2643 97.1299 91.164 98.6303 89.5054 99.8144C70.0172 113.731 46.96 109.677 42.0579 108.686C34.8191 107.224 20.8336 104.397 10.7195 92.5553C-4.57969 74.6468 -2.20034 46.4282 9.66928 27.8023C11.8394 24.3964 23.306 5.48504 46.6151 2.45336C60.7207 0.617378 77.163 4.3202 89.0714 14.2484C114.066 35.0922 112.287 77.2002 95.4809 94.8079Z" fill="#D8E0F0"/>
<circle r="3.02029" transform="matrix(-1 0 0 1 18.0207 28.0202)" fill="#011A51"/>
<rect x="83.999" y="25.9998" width="70" height="60" rx="4" transform="rotate(90 83.999 25.9998)" fill="#011A51"/>
<line x1="33.999" y1="45.0179" x2="74.2655" y2="45.0179" stroke="#FBFAFF" stroke-width="2" stroke-linecap="round"/>
<line x1="41.999" y1="75.3862" x2="66.6936" y2="75.3862" stroke="#FBFAFF" stroke-width="2" stroke-linecap="round"/>
<line x1="27.999" y1="59.8143" x2="79.3883" y2="59.8143" stroke="#FBFAFF" stroke-width="2" stroke-linecap="round"/>
<g filter="url(#filter0_d_0_1)">
<circle cx="53.3104" cy="24.6885" r="12.8837" fill="white"/>
<circle cx="53.3108" cy="20.3939" r="3.22092" fill="#FB847C"/>
<ellipse cx="53.31" cy="27.9094" rx="6.44184" ry="3.22092" fill="#FB847C"/>
</g>
<circle cx="29.7067" cy="91.7065" r="11.7067" fill="url(#paint0_linear_0_1)" stroke="#FB847C" stroke-width="2"/>
<rect opacity="0.5" x="77.2412" y="69.3101" width="26.5686" height="16.1722" rx="3" fill="#A2BAF0"/>
<rect x="68.5" y="67.4998" width="33.6547" height="14.017" rx="2.5" fill="#FBFAFF" stroke="white"/>
<line x1="71.9658" y1="74.5859" x2="88.2932" y2="74.5859" stroke="#011A51" stroke-linecap="round"/>
<path d="M93.4131 73.3531L95.0713 74.936C95.1559 75.0167 95.2913 75.008 95.3649 74.9171L98.0337 71.6204" stroke="#011A51" stroke-width="1.2" stroke-linecap="round"/>
<circle r="9" transform="matrix(1 0 0 -1 98 40)" fill="#FB847C"/>
<defs>
<filter id="filter0_d_0_1" x="40.4268" y="11.8048" width="25.7676" height="27.7673" filterUnits="userSpaceOnUse" color-interpolation-filters="sRGB">
<feFlood flood-opacity="0" result="BackgroundImageFix"/>
<feColorMatrix in="SourceAlpha" type="matrix" values="0 0 0 0 0 0 0 0 0 0 0 0 0 0 0 0 0 0 127 0" result="hardAlpha"/>
<feOffset dy="2"/>
<feComposite in2="hardAlpha" operator="out"/>
<feColorMatrix type="matrix" values="0 0 0 0 0 0 0 0 0 0 0 0 0 0 0 0 0 0 0.07 0"/>
<feBlend mode="normal" in2="BackgroundImageFix" result="effect1_dropShadow_0_1"/>
<feBlend mode="normal" in="SourceGraphic" in2="effect1_dropShadow_0_1" result="shape"/>
</filter>
<linearGradient id="paint0_linear_0_1" x1="37.7928" y1="90.5513" x2="20.4655" y2="90.5513" gradientUnits="userSpaceOnUse">
<stop stop-color="#E0E5F2"/>
<stop offset="0.464626" stop-color="white"/>
<stop offset="1" stop-color="#E0E5F2"/>
</linearGradient>
</defs>
</svg>
