<svg width="100" height="100" viewBox="0 0 100 100" fill="none" xmlns="http://www.w3.org/2000/svg">
<rect width="100" height="100" rx="8" fill="#E5E7EC"/>
<path d="M50 49.2602C56.6274 49.2602 62 43.8565 62 37.1906C62 30.5248 56.6274 25.1211 50 25.1211C43.3726 25.1211 38 30.5248 38 37.1906C38 43.8565 43.3726 49.2602 50 49.2602Z" fill="#F6F7F8"/>
<path d="M50 80.44C45.8236 80.4399 41.7595 79.0175 38.4152 76.3857C35.0709 73.7538 32.6261 70.0539 31.4464 65.839C29.4106 58.5654 34.5934 51.272 41.8012 51.272H58.1988C65.4066 51.272 70.5894 58.5626 68.5536 65.8361C67.3743 70.0516 64.9298 73.7522 61.5855 76.3845C58.2411 79.0169 54.1767 80.4397 50 80.44Z" fill="white"/>
</svg>
