<svg width="36" height="36" viewBox="0 0 36 36" fill="none" xmlns="http://www.w3.org/2000/svg">
<path d="M32.955 3.495C31.875 2.265 30.27 1.5 28.5 1.5C26.82 1.5 25.29 2.19 24.195 3.315C23.565 3.96 23.085 4.74 22.8 5.61C22.605 6.21 22.5 6.84 22.5 7.5C22.5 8.625 22.815 9.69 23.37 10.59C23.67 11.1 24.06 11.565 24.51 11.955C25.56 12.915 26.955 13.5 28.5 13.5C29.16 13.5 29.79 13.395 30.375 13.185C31.755 12.75 32.91 11.805 33.63 10.59C33.945 10.08 34.185 9.495 34.32 8.895C34.44 8.445 34.5 7.98 34.5 7.5C34.5 5.97 33.915 4.56 32.955 3.495ZM30.735 8.595H29.625V9.765C29.625 10.38 29.115 10.89 28.5 10.89C27.885 10.89 27.375 10.38 27.375 9.765V8.595H26.265C25.65 8.595 25.14 8.085 25.14 7.47C25.14 6.855 25.65 6.345 26.265 6.345H27.375V5.28C27.375 4.665 27.885 4.155 28.5 4.155C29.115 4.155 29.625 4.665 29.625 5.28V6.345H30.735C31.35 6.345 31.86 6.855 31.86 7.47C31.86 8.085 31.365 8.595 30.735 8.595Z" fill="#292D32"/>
<path d="M33 18C33 16.035 32.625 14.145 31.92 12.42C31.455 12.75 30.93 13.005 30.375 13.185C30.21 13.245 30.045 13.29 29.865 13.335C30.435 14.775 30.75 16.35 30.75 18C30.75 21.48 29.34 24.645 27.06 26.955C26.625 26.4 26.07 25.89 25.41 25.455C21.345 22.725 14.685 22.725 10.59 25.455C9.93 25.89 9.39 26.4 8.94 26.955C6.66 24.645 5.25 21.48 5.25 18C5.25 10.965 10.965 5.25 18 5.25C19.635 5.25 21.21 5.565 22.65 6.135C22.695 5.955 22.74 5.79 22.8 5.61C22.98 5.055 23.235 4.545 23.58 4.08C21.855 3.375 19.965 3 18 3C9.735 3 3 9.735 3 18C3 22.35 4.875 26.265 7.845 29.01C7.845 29.025 7.845 29.025 7.83 29.04C7.98 29.19 8.16 29.31 8.31 29.445C8.4 29.52 8.475 29.595 8.565 29.655C8.835 29.88 9.135 30.09 9.42 30.3C9.525 30.375 9.615 30.435 9.72 30.51C10.005 30.705 10.305 30.885 10.62 31.05C10.725 31.11 10.845 31.185 10.95 31.245C11.25 31.41 11.565 31.56 11.895 31.695C12.015 31.755 12.135 31.815 12.255 31.86C12.585 31.995 12.915 32.115 13.245 32.22C13.365 32.265 13.485 32.31 13.605 32.34C13.965 32.445 14.325 32.535 14.685 32.625C14.79 32.655 14.895 32.685 15.015 32.7C15.435 32.79 15.855 32.85 16.29 32.895C16.35 32.895 16.41 32.91 16.47 32.925C16.98 32.97 17.49 33 18 33C18.51 33 19.02 32.97 19.515 32.925C19.575 32.925 19.635 32.91 19.695 32.895C20.13 32.85 20.55 32.79 20.97 32.7C21.075 32.685 21.18 32.64 21.3 32.625C21.66 32.535 22.035 32.46 22.38 32.34C22.5 32.295 22.62 32.25 22.74 32.22C23.07 32.1 23.415 31.995 23.73 31.86C23.85 31.815 23.97 31.755 24.09 31.695C24.405 31.56 24.72 31.41 25.035 31.245C25.155 31.185 25.26 31.11 25.365 31.05C25.665 30.87 25.965 30.705 26.265 30.51C26.37 30.45 26.46 30.375 26.565 30.3C26.865 30.09 27.15 29.88 27.42 29.655C27.51 29.58 27.585 29.505 27.675 29.445C27.84 29.31 28.005 29.175 28.155 29.04C28.155 29.025 28.155 29.025 28.14 29.01C31.125 26.265 33 22.35 33 18Z" fill="#292D32"/>
<path d="M18 10.3945C14.895 10.3945 12.375 12.9145 12.375 16.0195C12.375 19.0645 14.76 21.5395 17.925 21.6295C17.97 21.6295 18.03 21.6295 18.06 21.6295C18.09 21.6295 18.135 21.6295 18.165 21.6295C18.18 21.6295 18.195 21.6295 18.195 21.6295C21.225 21.5245 23.61 19.0645 23.625 16.0195C23.625 12.9145 21.105 10.3945 18 10.3945Z" fill="#292D32"/>
</svg>
