<svg width="7" height="12" viewBox="0 0 7 12" fill="none" xmlns="http://www.w3.org/2000/svg">
<path d="M8.86051e-05 10.9833C-0.00218975 10.7212 0.0986045 10.4686 0.280763 10.28L4.57376 5.98719L0.280762 1.69441C0.0986038 1.50582 -0.00219057 1.25323 8.77315e-05 0.991042C0.00236604 0.728858 0.107535 0.478058 0.292943 0.292658C0.478351 0.107259 0.729164 0.00209577 0.991361 -0.000182581C1.25356 -0.00246093 1.50616 0.0983272 1.69476 0.280476L6.69476 5.28023C6.88223 5.46775 6.98755 5.72204 6.98755 5.98719C6.98755 6.25235 6.88223 6.50664 6.69476 6.69416L1.69476 11.6939C1.50616 11.8761 1.25356 11.9769 0.991362 11.9746C0.729165 11.9723 0.478352 11.8671 0.292944 11.6817C0.107536 11.4963 0.00236696 11.2455 8.86051e-05 10.9833Z" fill="black"/>
</svg>
