<svg width="96" height="96" viewBox="0 0 96 96" fill="none" xmlns="http://www.w3.org/2000/svg">
<path fill-rule="evenodd" clip-rule="evenodd" d="M64 8H26V88H84V28L64 8ZM36 37H74V41H36V37ZM36 46H74V50H36V46ZM74 55H36V59H74V55Z" fill="url(#paint0_linear_352_1523)"/>
<path d="M62 71L66 67L70 71L66 75L62 71Z" fill="#000245"/>
<path d="M86 50L89 47L92 50L89 53L86 50ZM47 21L50 18L53 21L50 24L47 21ZM84 28H64V8L84 28Z" fill="#2E3192"/>
<path fill-rule="evenodd" clip-rule="evenodd" d="M4.17188 73.1709L18.6719 58.6709L24.3279 64.3289L9.82788 78.8289L4.17188 73.1719V73.1709Z" fill="url(#paint1_linear_352_1523)"/>
<path fill-rule="evenodd" clip-rule="evenodd" d="M51 48C51 39.163 43.837 32 35 32C26.163 32 19 39.163 19 48C19 56.837 26.163 64 35 64C43.837 64 51 56.837 51 48ZM55 48C55 36.954 46.046 28 35 28C23.954 28 15 36.954 15 48C15 59.046 23.954 68 35 68C46.046 68 55 59.046 55 48Z" fill="url(#paint2_linear_352_1523)"/>
<defs>
<linearGradient id="paint0_linear_352_1523" x1="26" y1="8" x2="102.034" y2="63.1249" gradientUnits="userSpaceOnUse">
<stop stop-color="#4563F4"/>
<stop offset="1" stop-color="#2E3192"/>
</linearGradient>
<linearGradient id="paint1_linear_352_1523" x1="4.17188" y1="68.7499" x2="24.3279" y2="68.7499" gradientUnits="userSpaceOnUse">
<stop stop-color="#929AA5"/>
<stop offset="1" stop-color="#76808F"/>
</linearGradient>
<linearGradient id="paint2_linear_352_1523" x1="15" y1="48" x2="55" y2="48" gradientUnits="userSpaceOnUse">
<stop stop-color="#929AA5"/>
<stop offset="1" stop-color="#76808F"/>
</linearGradient>
</defs>
</svg>
