<svg width="39" height="37" viewBox="0 0 39 37" fill="none" xmlns="http://www.w3.org/2000/svg">
<path d="M30.1364 10.5714H39V14.0952H30.1364V10.5714ZM26.5909 19.381H39V22.9048H26.5909V19.381ZM31.9091 28.1905H39V31.7143H31.9091V28.1905ZM0 37C0 33.2617 1.49415 29.6765 4.15376 27.0332C6.81337 24.3898 10.4206 22.9048 14.1818 22.9048C17.9431 22.9048 21.5503 24.3898 24.2099 27.0332C26.8695 29.6765 28.3636 33.2617 28.3636 37H24.8182C24.8182 34.1963 23.6976 31.5074 21.7029 29.5249C19.7082 27.5423 17.0028 26.4286 14.1818 26.4286C11.3609 26.4286 8.65548 27.5423 6.66077 29.5249C4.66607 31.5074 3.54545 34.1963 3.54545 37H0ZM14.1818 21.1429C8.30523 21.1429 3.54545 16.4121 3.54545 10.5714C3.54545 4.73071 8.30523 0 14.1818 0C20.0584 0 24.8182 4.73071 24.8182 10.5714C24.8182 16.4121 20.0584 21.1429 14.1818 21.1429ZM14.1818 17.619C18.0995 17.619 21.2727 14.4652 21.2727 10.5714C21.2727 6.67762 18.0995 3.52381 14.1818 3.52381C10.2641 3.52381 7.09091 6.67762 7.09091 10.5714C7.09091 14.4652 10.2641 17.619 14.1818 17.619Z" fill="#212224"/>
</svg>
