<svg width="49" height="49" viewBox="0 0 49 49" fill="none" xmlns="http://www.w3.org/2000/svg">
<rect x="10.209" y="8.16699" width="29.6042" height="31.6458" fill="#404040"/>
<path d="M33.0552 4.08301H15.9461C8.5144 4.08301 4.08398 8.51342 4.08398 15.9451V33.0338C4.08398 40.4859 8.5144 44.9163 15.9461 44.9163H33.0348C40.4665 44.9163 44.8969 40.4859 44.8969 33.0543V15.9451C44.9173 8.51342 40.4869 4.08301 33.0552 4.08301ZM36.7507 26.0309H26.0319V36.7497C26.0319 37.5868 25.3377 38.2809 24.5007 38.2809C23.6636 38.2809 22.9694 37.5868 22.9694 36.7497V26.0309H12.2507C11.4136 26.0309 10.7194 25.3368 10.7194 24.4997C10.7194 23.6626 11.4136 22.9684 12.2507 22.9684H22.9694V12.2497C22.9694 11.4126 23.6636 10.7184 24.5007 10.7184C25.3377 10.7184 26.0319 11.4126 26.0319 12.2497V22.9684H36.7507C37.5877 22.9684 38.2819 23.6626 38.2819 24.4997C38.2819 25.3368 37.5877 26.0309 36.7507 26.0309Z" fill="#5F9DF7"/>
</svg>
