<svg width="22" height="22" viewBox="0 0 22 22" fill="none" xmlns="http://www.w3.org/2000/svg">
<path fill-rule="evenodd" clip-rule="evenodd" d="M2 10.9995C2 9.81762 2.23279 8.64735 2.68508 7.55547C3.13738 6.4636 3.80031 5.47149 4.63604 4.63581C5.47177 3.80012 6.46392 3.13722 7.55585 2.68495C8.64778 2.23268 9.8181 1.9999 11 1.9999C12.1819 1.9999 13.3522 2.23268 14.4442 2.68495C15.5361 3.13722 16.5282 3.80012 17.364 4.63581C18.1997 5.47149 18.8626 6.4636 19.3149 7.55547C19.7672 8.64735 20 9.81762 20 10.9995C20 13.3863 19.0518 15.6754 17.364 17.3631C15.6761 19.0508 13.3869 19.999 11 19.999C8.61305 19.999 6.32387 19.0508 4.63604 17.3631C2.94821 15.6754 2 13.3863 2 10.9995ZM11 0C4.925 0 0 4.92476 0 10.9995C0 17.0742 4.925 21.9989 11 21.9989C17.075 21.9989 22 17.0742 22 10.9995C22 4.92476 17.075 0 11 0ZM13.707 6.70667C13.8892 6.51807 13.99 6.26548 13.9877 6.0033C13.9854 5.74112 13.8802 5.49032 13.6948 5.30492C13.5094 5.11952 13.2586 5.01436 12.9964 5.01208C12.7342 5.0098 12.4816 5.11059 12.293 5.29274L7.293 10.2925C7.10553 10.48 7.00021 10.7343 7.00021 10.9995C7.00021 11.2646 7.10553 11.5189 7.293 11.7064L12.293 16.7062C12.4816 16.8883 12.7342 16.9891 12.9964 16.9868C13.2586 16.9846 13.5094 16.8794 13.6948 16.694C13.8802 16.5086 13.9854 16.2578 13.9877 15.9956C13.99 15.7334 13.8892 15.4808 13.707 15.2922L9.414 10.9995L13.707 6.70667Z" fill="#03053D"/>
</svg>
