<svg width="20" height="20" viewBox="0 0 20 20" fill="none" xmlns="http://www.w3.org/2000/svg">
<path fill-rule="evenodd" clip-rule="evenodd" d="M0.292945 0.292893C0.683469 -0.0976311 1.31663 -0.0976311 1.70716 0.292893L19.7071 18.2928C20.0976 18.6834 20.0976 19.3165 19.7071 19.7071C19.3166 20.0976 18.6834 20.0976 18.2929 19.7071L0.292945 1.70711C-0.0975796 1.31658 -0.0975796 0.683417 0.292945 0.292893Z" fill="white"/>
<path fill-rule="evenodd" clip-rule="evenodd" d="M19.7072 0.292893C20.0977 0.683417 20.0977 1.31658 19.7072 1.70711L1.70711 19.7072C1.31658 20.0977 0.683417 20.0977 0.292893 19.7072C-0.0976311 19.3166 -0.0976311 18.6835 0.292893 18.2929L18.2929 0.292893C18.6835 -0.0976311 19.3166 -0.0976311 19.7072 0.292893Z" fill="white"/>
</svg>
