<svg width="60" height="46" viewBox="0 0 60 46" fill="none" xmlns="http://www.w3.org/2000/svg">
<g clip-path="url(#clip0_40_9636)">
<path d="M20.1465 16.7273L26.7141 46L5 16.7273H20.1465Z" fill="url(#paint0_linear_40_9636)"/>
<path d="M20.272 12.5455H5L15.0387 0.611939C15.3694 0.220242 15.8161 0 16.2828 0H26.3027L20.272 12.5455Z" fill="url(#paint1_linear_40_9636)"/>
<path d="M36.3847 12.5455H24.3232L30.354 0L36.3847 12.5455Z" fill="url(#paint2_linear_40_9636)"/>
<path d="M36.9203 16.7273L30.3537 46L23.7871 16.7273H36.9203Z" fill="url(#paint3_linear_40_9636)"/>
<path d="M40.436 12.5455L34.4053 0H44.4252C44.8919 0 45.3386 0.220242 45.6693 0.611939L55.708 12.5455H40.436Z" fill="url(#paint4_linear_40_9636)"/>
<path d="M40.5617 16.7273H55.7082L33.9941 46L40.5617 16.7273Z" fill="url(#paint5_linear_40_9636)"/>
</g>
<defs>
<linearGradient id="paint0_linear_40_9636" x1="15.857" y1="16.7273" x2="15.857" y2="46" gradientUnits="userSpaceOnUse">
<stop stop-color="#C07E04"/>
<stop offset="0.313021" stop-color="#FAED91"/>
<stop offset="0.635937" stop-color="#C9841D"/>
<stop offset="1" stop-color="#D69F3B"/>
</linearGradient>
<linearGradient id="paint1_linear_40_9636" x1="15.6514" y1="0" x2="15.6514" y2="12.5455" gradientUnits="userSpaceOnUse">
<stop stop-color="#C07E04"/>
<stop offset="0.313021" stop-color="#FAED91"/>
<stop offset="0.635937" stop-color="#C9841D"/>
<stop offset="1" stop-color="#D69F3B"/>
</linearGradient>
<linearGradient id="paint2_linear_40_9636" x1="30.354" y1="0" x2="30.354" y2="12.5455" gradientUnits="userSpaceOnUse">
<stop stop-color="#C07E04"/>
<stop offset="0.313021" stop-color="#FAED91"/>
<stop offset="0.635937" stop-color="#C9841D"/>
<stop offset="1" stop-color="#D69F3B"/>
</linearGradient>
<linearGradient id="paint3_linear_40_9636" x1="30.3537" y1="16.7273" x2="30.3537" y2="46" gradientUnits="userSpaceOnUse">
<stop stop-color="#C07E04"/>
<stop offset="0.313021" stop-color="#FAED91"/>
<stop offset="0.635937" stop-color="#C9841D"/>
<stop offset="1" stop-color="#D69F3B"/>
</linearGradient>
<linearGradient id="paint4_linear_40_9636" x1="45.0566" y1="0" x2="45.0566" y2="12.5455" gradientUnits="userSpaceOnUse">
<stop stop-color="#C07E04"/>
<stop offset="0.313021" stop-color="#FAED91"/>
<stop offset="0.635937" stop-color="#C9841D"/>
<stop offset="1" stop-color="#D69F3B"/>
</linearGradient>
<linearGradient id="paint5_linear_40_9636" x1="44.8512" y1="16.7273" x2="44.8512" y2="46" gradientUnits="userSpaceOnUse">
<stop stop-color="#C07E04"/>
<stop offset="0.313021" stop-color="#FAED91"/>
<stop offset="0.635937" stop-color="#C9841D"/>
<stop offset="1" stop-color="#D69F3B"/>
</linearGradient>
<clipPath id="clip0_40_9636">
<rect width="60" height="46" fill="white"/>
</clipPath>
</defs>
</svg>
