
<svg width="60" height="60" viewBox="0 0 60 60" fill="none" xmlns="http://www.w3.org/2000/svg">
<g clip-path="url(#clip0_40_6573)">
<path d="M52.7788 21.8884C53.6343 20.5539 53.8897 18.9106 53.4794 17.3795C53.0691 15.8485 52.0263 14.5528 50.6183 13.8251C49.4757 13.2343 48.776 12.0226 48.8359 10.7378C48.9095 9.15443 48.309 7.60353 47.1882 6.4826C46.0674 5.3619 44.5159 4.762 42.9331 4.83489C41.6486 4.89466 40.4365 4.19491 39.8458 3.05254C39.118 1.64437 37.8223 0.601605 36.2913 0.191437C34.7603 -0.218966 33.1169 0.0365106 31.7825 0.892004C30.6997 1.58601 29.3003 1.58624 28.2177 0.892004C26.8834 0.0366279 25.2398 -0.218848 23.709 0.191437C22.1779 0.601605 20.8824 1.64437 20.1544 3.05254C19.5637 4.19503 18.3503 4.89525 17.0671 4.83489C15.4838 4.76224 13.9329 5.36178 12.812 6.4826C11.6912 7.60341 11.0907 9.15443 11.1643 10.7378C11.2241 12.0226 10.5244 13.2343 9.38195 13.8251C7.9739 14.5528 6.93102 15.8485 6.52073 17.3795C6.11056 18.9105 6.3658 20.5539 7.2213 21.8884C7.91554 22.9711 7.91554 24.3704 7.2213 25.4531C6.3658 26.7876 6.11045 28.4309 6.52073 29.962C6.93102 31.493 7.97378 32.7887 9.38183 33.5164C10.5244 34.1072 11.2241 35.3189 11.1642 36.6037C11.0906 38.1871 11.6911 39.738 12.8119 40.8589C13.9056 41.9527 15.4092 42.5486 16.9526 42.5088L11.1166 52.617C10.8796 53.0276 10.9133 53.5404 11.2018 53.9164C11.4903 54.2924 11.977 54.4573 12.4349 54.3349L18.987 52.5793L20.7429 59.1313C20.8656 59.5892 21.252 59.9281 21.7219 59.9899C21.7732 59.9967 21.8245 59.9999 21.8752 59.9999C22.2898 59.9999 22.6787 59.7796 22.8897 59.414L30.0001 47.0985L37.1104 59.414C37.3216 59.7796 37.7103 59.9999 38.1249 59.9999C38.1758 59.9999 38.227 59.9967 38.2782 59.9899C38.7481 59.9281 39.1345 59.5892 39.2572 59.1313L41.0128 52.5792L47.565 54.3348C48.0227 54.4575 48.5094 54.2924 48.7981 53.9163C49.0866 53.5403 49.1202 53.0274 48.8833 52.6169L43.0474 42.5087C44.591 42.5493 46.0944 41.9524 47.1881 40.8588C48.3089 39.738 48.9094 38.187 48.8358 36.6036C48.776 35.3188 49.4757 34.1071 50.6182 33.5163C52.0262 32.7886 53.0691 31.4929 53.4794 29.9619C53.8895 28.4309 53.6343 26.7875 52.7788 25.453C52.0846 24.3704 52.0846 22.9712 52.7788 21.8884V21.8884ZM22.2746 55.7919L20.9479 50.8407C20.8674 50.5403 20.6711 50.2845 20.4019 50.1291C20.1328 49.9737 19.8131 49.9315 19.5126 50.012L14.5613 51.3387L19.2565 43.2064C19.6238 43.4937 19.9328 43.8602 20.1544 44.2889C20.8822 45.697 22.1779 46.7398 23.7089 47.15C24.1881 47.2784 24.6783 47.3416 25.1665 47.3416C25.9414 47.3416 26.7112 47.1816 27.4248 46.8714L22.2746 55.7919ZM40.4876 50.012C40.1871 49.9314 39.8674 49.9736 39.5983 50.1291C39.3292 50.2845 39.1327 50.5404 39.0523 50.8407L37.7256 55.7919L32.5758 46.872C33.7389 47.3775 35.0519 47.4821 36.2913 47.1498C37.8224 46.7397 39.118 45.6969 39.846 44.2887C40.0675 43.8603 40.3767 43.4943 40.7445 43.2073L45.439 51.3386L40.4876 50.012ZM50.8057 26.7182C51.3135 27.5102 51.4589 28.4468 51.2154 29.3555C50.9718 30.2642 50.3776 31.0025 49.5419 31.4344C47.5885 32.4443 46.3924 34.5161 46.4946 36.7126C46.5383 37.6523 46.1961 38.5362 45.5308 39.2014C44.8656 39.8667 43.9807 40.2097 43.0421 40.1651C40.846 40.0655 38.7737 41.2592 37.7638 43.2125C37.3318 44.0483 36.5934 44.6425 35.6847 44.8859C34.7762 45.1294 33.8396 44.9839 33.0476 44.4761C32.1516 43.9017 31.1287 43.6062 30.1018 43.5878C30.0869 43.5865 30.0721 43.5856 30.0572 43.5849C30.0388 43.584 30.0204 43.5837 30.0019 43.5836C29.9814 43.5836 29.9609 43.584 29.9404 43.585C29.9267 43.5857 29.9131 43.5867 29.8995 43.5878C28.8723 43.6061 27.8491 43.9015 26.9527 44.4762C26.1609 44.9838 25.2245 45.1295 24.3157 44.8859C23.407 44.6425 22.6687 44.0483 22.2366 43.2126C21.2669 41.3366 19.3177 40.1591 17.2192 40.1591C17.1325 40.1591 17.0455 40.1612 16.9583 40.1651C16.0188 40.2098 15.1347 39.8665 14.4697 39.2014C13.8044 38.5361 13.4622 37.6522 13.5059 36.7126C13.6081 34.5161 12.4119 32.4443 10.4586 31.4343C9.62289 31.0023 9.02862 30.2642 8.78509 29.3555C8.54157 28.4468 8.68712 27.5102 9.19479 26.7182C10.3817 24.8669 10.3817 22.4746 9.19479 20.6233C8.68701 19.8313 8.54157 18.8948 8.78509 17.9861C9.02862 17.0774 9.62289 16.3391 10.4586 15.9071C12.4119 14.8973 13.6081 12.8254 13.5059 10.6289C13.4622 9.68918 13.8044 8.80532 14.4697 8.14015C15.1349 7.47485 16.02 7.1323 16.9583 7.17637C19.1553 7.27739 21.2268 6.08239 22.2366 4.12905C22.6687 3.29325 23.407 2.69897 24.3157 2.45557C25.2242 2.21216 26.161 2.35759 26.9529 2.86538C28.8041 4.05218 31.1963 4.05218 33.0476 2.86538C33.0476 2.86538 33.0476 2.86538 33.0477 2.86527C33.8395 2.35771 34.7761 2.21204 35.6847 2.45557C36.5934 2.69897 37.3318 3.29325 37.7638 4.12894C38.7737 6.08251 40.8462 7.27856 43.0421 7.17637C43.9819 7.1323 44.8657 7.47497 45.5308 8.14015C46.1961 8.80544 46.5383 9.68929 46.4946 10.6289C46.3924 12.8254 47.5885 14.8973 49.5419 15.9072C50.3776 16.3392 50.9718 17.0774 51.2154 17.9861C51.4589 18.8948 51.3133 19.8313 50.8057 20.6233C49.6188 22.4746 49.6188 24.8669 50.8057 26.7182V26.7182Z" fill="url(#paint0_linear_40_6573)"/>
<path d="M19.6753 30.7913C19.6753 31.9935 20.6534 32.9715 21.8555 32.9715H25.3242C25.9776 32.9715 26.5632 32.6812 26.9632 32.2244C28.0752 32.715 29.2787 32.9715 30.5087 32.9715H36.518C38.6172 32.9715 40.325 31.2637 40.325 29.1646V24.1221C40.325 22.0229 38.6172 20.315 36.518 20.315H35.0097L35.6047 18.571C36.1589 16.9465 35.2973 15.1478 33.6843 14.5615C32.2541 14.0414 30.6506 14.6131 29.8715 15.9208C29.0456 17.3071 27.9017 18.5041 26.556 19.3948C26.2053 19.1537 25.7813 19.0119 25.3244 19.0119H21.8556C20.6534 19.0119 19.6754 19.9899 19.6754 21.1921V30.7913H19.6753ZM31.8849 17.1202C32.0889 16.7779 32.5089 16.6284 32.8835 16.7643C33.3059 16.9178 33.5315 17.3888 33.3864 17.8142L32.5262 20.3358C31.9827 20.4375 31.571 20.9138 31.571 21.4868C31.571 22.1339 32.0957 22.6587 32.7429 22.6587H33.3634C33.3662 22.6587 33.3691 22.6591 33.3719 22.6591C33.3748 22.6591 33.3777 22.6587 33.3807 22.6587H36.518C37.3248 22.6587 37.9812 23.3152 37.9812 24.122V29.1645C37.9812 29.9713 37.3247 30.6276 36.518 30.6276H30.5087C29.4556 30.6276 28.4286 30.3717 27.5045 29.8845V21.5725L27.6476 21.4815C29.3733 20.3848 30.8385 18.8766 31.8849 17.1202V17.1202ZM22.0191 21.3554H25.1607V30.5692V30.5698V30.6276H22.0191V21.3554Z" fill="url(#paint1_linear_40_6573)"/>
<path d="M30 6.32666C27.3078 6.32666 24.727 6.92691 22.3296 8.11101C21.7493 8.39754 21.5112 9.10022 21.7977 9.68066C22.0842 10.2608 22.7868 10.4992 23.3674 10.2125C25.4393 9.1894 27.6708 8.6706 30 8.6706C38.2714 8.6706 45.0005 15.3998 45.0005 23.671C45.0005 31.9423 38.2714 38.6715 30 38.6715C21.7287 38.6715 14.9996 31.9423 14.9996 23.671C14.9996 21.342 15.5184 19.1104 16.5416 17.0384C16.8281 16.4581 16.5901 15.7553 16.0096 15.4686C15.4291 15.1824 14.7265 15.4202 14.44 16.0005C13.256 18.398 12.6558 20.9787 12.6558 23.6709C12.6558 33.2345 20.4364 41.0152 30 41.0152C39.5636 41.0152 47.3443 33.2345 47.3443 23.6709C47.3443 14.1073 39.5636 6.32666 30 6.32666V6.32666Z" fill="url(#paint2_linear_40_6573)"/>
<path d="M18.5645 13.4072C18.8727 13.4072 19.175 13.2818 19.393 13.0639C19.6109 12.8459 19.7363 12.5436 19.7363 12.2354C19.7363 11.9271 19.6109 11.6248 19.393 11.4068C19.175 11.189 18.8727 11.0635 18.5645 11.0635C18.2562 11.0635 17.9539 11.1889 17.7359 11.4068C17.518 11.6248 17.3926 11.9271 17.3926 12.2354C17.3926 12.5436 17.518 12.8459 17.7359 13.0639C17.9539 13.2818 18.2562 13.4072 18.5645 13.4072Z" fill="url(#paint3_linear_40_6573)"/>
</g>
<defs>
<linearGradient id="paint0_linear_40_6573" x1="30" y1="-0.000244141" x2="30" y2="59.9999" gradientUnits="userSpaceOnUse">
<stop stop-color="#C07E04"/>
<stop offset="0.313021" stop-color="#FAED91"/>
<stop offset="0.635937" stop-color="#C9841D"/>
<stop offset="1" stop-color="#D69F3B"/>
</linearGradient>
<linearGradient id="paint1_linear_40_6573" x1="30.0002" y1="14.3706" x2="30.0002" y2="32.9715" gradientUnits="userSpaceOnUse">
<stop stop-color="#C07E04"/>
<stop offset="0.313021" stop-color="#FAED91"/>
<stop offset="0.635937" stop-color="#C9841D"/>
<stop offset="1" stop-color="#D69F3B"/>
</linearGradient>
<linearGradient id="paint2_linear_40_6573" x1="30" y1="6.32666" x2="30" y2="41.0152" gradientUnits="userSpaceOnUse">
<stop stop-color="#C07E04"/>
<stop offset="0.313021" stop-color="#FAED91"/>
<stop offset="0.635937" stop-color="#C9841D"/>
<stop offset="1" stop-color="#D69F3B"/>
</linearGradient>
<linearGradient id="paint3_linear_40_6573" x1="18.5645" y1="11.0635" x2="18.5645" y2="13.4072" gradientUnits="userSpaceOnUse">
<stop stop-color="#C07E04"/>
<stop offset="0.313021" stop-color="#FAED91"/>
<stop offset="0.635937" stop-color="#C9841D"/>
<stop offset="1" stop-color="#D69F3B"/>
</linearGradient>
<clipPath id="clip0_40_6573">
<rect width="60" height="60" fill="white"/>
</clipPath>
</defs>
</svg>
