<svg width="16" height="16" viewBox="0 0 16 16" fill="none" xmlns="http://www.w3.org/2000/svg">
<path fill-rule="evenodd" clip-rule="evenodd" d="M1.33305 3.99999C1.33305 3.26361 1.93 2.66666 2.66638 2.66666H13.333C14.0694 2.66666 14.6664 3.26361 14.6664 3.99999V12C14.6664 12.7364 14.0694 13.3333 13.333 13.3333H2.66638C1.93 13.3333 1.33305 12.7364 1.33305 12V3.99999ZM13.333 3.99999L2.66638 3.99999V12H13.333V3.99999Z" fill="white"/>
<path fill-rule="evenodd" clip-rule="evenodd" d="M1.46796 3.59789C1.69003 3.30421 2.10813 3.24616 2.40181 3.46824L8.15944 7.822L13.583 3.47958C13.8705 3.24946 14.29 3.2959 14.5201 3.58332C14.7502 3.87074 14.7038 4.29028 14.4164 4.5204L8.58781 9.18707C8.34964 9.37776 8.01241 9.38243 7.76904 9.19841L1.59761 4.53174C1.30393 4.30967 1.24589 3.89157 1.46796 3.59789Z" fill="white"/>
</svg>
