<svg width="33" height="33" viewBox="0 0 33 33" fill="none" xmlns="http://www.w3.org/2000/svg">
<path d="M27.7833 0C28.6854 0 29.4176 0.7392 29.4176 1.65V7.84905L26.149 11.149V3.3H3.26862V29.7H26.149V25.1493L29.4176 21.8493V31.35C29.4176 32.2608 28.6854 33 27.7833 33H1.63431C0.732171 33 0 32.2608 0 31.35V1.65C0 0.7392 0.732171 0 1.63431 0H27.7833ZM30.6891 11.2332L33 13.5663L20.2883 26.4L17.9741 26.3967L17.9774 24.0669L30.6891 11.2332V11.2332ZM16.3431 16.5V19.8H8.17155V16.5H16.3431ZM21.246 9.9V13.2H8.17155V9.9H21.246Z" fill="#03053D"/>
</svg>
