<svg width="24" height="24" viewBox="0 0 24 24" fill="none" xmlns="http://www.w3.org/2000/svg">
  <path d="M11.9997 8.50024C10.3447 8.50024 8.99969 9.84523 8.99969 11.5002C8.99969 13.1553 10.3447 14.5002 11.9997 14.5002C13.6547 14.5002 14.9997 13.1553 14.9997 11.5002C14.9997 9.84523 13.6547 8.50024 11.9997 8.50024Z" fill="#CDD1D5"/>
  <path d="M12 4C6.99999 4 2.73001 7.10996 1 11.5C2.73001 15.89 6.99999 19 12 19C17.005 19 21.27 15.89 23 11.5C21.27 7.10996 17.005 4 12 4ZM12 16.5C9.24 16.5 6.99999 14.2599 6.99999 11.4999C6.99999 8.73995 9.24 6.49998 12 6.49998C14.76 6.49998 17 8.73999 17 11.5C17 14.26 14.76 16.5 12 16.5Z" fill="#CDD1D5"/>
</svg>
