<svg width="60" height="60" viewBox="0 0 60 60" fill="none" xmlns="http://www.w3.org/2000/svg">
<path d="M58.9692 28.6967C58.8481 28.5433 55.9409 24.8964 50.9568 21.2347C44.2967 16.3415 37.0499 13.7551 29.9998 13.7551C22.95 13.7551 15.7031 16.3415 9.04279 21.2347C4.05885 24.8962 1.15168 28.5433 1.03044 28.6967L0 30L1.03057 31.3033C1.15181 31.4568 4.05898 35.1038 9.04292 38.7655C15.7033 43.6585 22.9501 46.2449 29.9999 46.2449C37.0499 46.2449 44.2967 43.6585 50.9568 38.7655C55.9409 35.1038 58.8481 31.4568 58.9692 31.3033L60 30L58.9692 28.6967ZM29.9998 41.3804C23.7247 41.3804 18.6194 36.2752 18.6194 30C18.6194 29.0168 18.7447 28.0624 18.9802 27.1518L16.382 26.7145C16.1274 27.7686 15.9924 28.8688 15.9924 30C15.9924 34.0534 17.7238 37.7097 20.4851 40.2698C16.9306 38.9568 13.9081 37.1144 11.627 35.4481C8.80084 33.3839 6.68282 31.2963 5.47532 30C6.68335 28.7033 8.8011 26.6159 11.627 24.5518C13.9081 22.8855 16.9307 21.0431 20.4851 19.73L22.2281 21.6947C24.2638 19.7886 26.9977 18.6195 29.9998 18.6195C36.2749 18.6195 41.3801 23.7247 41.3801 30C41.3801 36.2752 36.2749 41.3804 29.9998 41.3804ZM48.3726 35.4481C46.0912 37.1144 43.0689 38.9568 39.5145 40.2698C42.2756 37.7098 44.0071 34.0536 44.0071 29.9998C44.0071 25.9461 42.2756 22.29 39.5145 19.7298C43.069 21.0429 46.0912 22.8854 48.3726 24.5517C51.1988 26.6159 53.3168 28.7035 54.5243 29.9997C53.3163 31.2966 51.1985 33.3842 48.3726 35.4481Z" fill="url(#paint0_linear_40_9560)"/>
<path d="M22.758 27.7878C22.5444 28.4877 22.4287 29.2303 22.4287 30.0001C22.4287 34.1815 25.8185 37.5714 30 37.5714C34.1814 37.5714 37.5711 34.1816 37.5711 30.0001C37.5711 25.8186 34.1814 22.4288 30 22.4288C27.9633 22.4288 26.1158 23.2345 24.7549 24.5428L28.4895 28.7523L22.758 27.7878Z" fill="url(#paint1_linear_40_9560)"/>
<defs>
<linearGradient id="paint0_linear_40_9560" x1="30" y1="13.7551" x2="30" y2="46.2449" gradientUnits="userSpaceOnUse">
<stop stop-color="#C07E04"/>
<stop offset="0.313021" stop-color="#FAED91"/>
<stop offset="0.635937" stop-color="#C9841D"/>
<stop offset="1" stop-color="#D69F3B"/>
</linearGradient>
<linearGradient id="paint1_linear_40_9560" x1="29.9999" y1="22.4288" x2="29.9999" y2="37.5714" gradientUnits="userSpaceOnUse">
<stop stop-color="#C07E04"/>
<stop offset="0.313021" stop-color="#FAED91"/>
<stop offset="0.635937" stop-color="#C9841D"/>
<stop offset="1" stop-color="#D69F3B"/>
</linearGradient>
</defs>
</svg>
