<svg width="12" height="12" viewBox="0 0 12 12" fill="none" xmlns="http://www.w3.org/2000/svg">
<path fill-rule="evenodd" clip-rule="evenodd" d="M6 2C3.79086 2 2 3.79086 2 6C2 8.20914 3.79086 10 6 10C8.20914 10 10 8.20914 10 6C10 3.79086 8.20914 2 6 2ZM1 6C1 3.23858 3.23858 1 6 1C8.76142 1 11 3.23858 11 6C11 8.76142 8.76142 11 6 11C3.23858 11 1 8.76142 1 6Z" fill="white"/>
<path fill-rule="evenodd" clip-rule="evenodd" d="M1 6C1 5.72386 1.22386 5.5 1.5 5.5H10.5C10.7761 5.5 11 5.72386 11 6C11 6.27614 10.7761 6.5 10.5 6.5H1.5C1.22386 6.5 1 6.27614 1 6Z" fill="white"/>
<path fill-rule="evenodd" clip-rule="evenodd" d="M5.41368 2.97613C5.16339 3.72701 5 4.79615 5 6C5 7.20386 5.16339 8.27299 5.41368 9.02387C5.5397 9.40192 5.67873 9.67179 5.80884 9.83688C5.87274 9.91796 5.92471 9.96124 5.95928 9.98246C5.97577 9.99259 5.98678 9.99677 5.99235 9.99847C5.99739 10 6 10 6 10C6 10 6.00247 10 6.00765 9.99847C6.01322 9.99677 6.02423 9.99259 6.04072 9.98246C6.07529 9.96124 6.12726 9.91796 6.19116 9.83688C6.32127 9.67179 6.4603 9.40192 6.58632 9.02387C6.83661 8.27299 7 7.20386 7 6C7 4.79615 6.83661 3.72701 6.58632 2.97613C6.4603 2.59808 6.32127 2.32821 6.19116 2.16312C6.12726 2.08204 6.07529 2.03876 6.04072 2.01754C6.02423 2.00741 6.01322 2.00322 6.00765 2.00153C6.00261 1.99999 6 2 6 2C6 2 5.99739 1.99999 5.99235 2.00153C5.98678 2.00322 5.97577 2.00741 5.95928 2.01754C5.92471 2.03876 5.87274 2.08204 5.80884 2.16312C5.67873 2.32821 5.5397 2.59808 5.41368 2.97613ZM5.02343 1.54415C5.24779 1.25945 5.57403 1 6 1C6.42597 1 6.75221 1.25945 6.97657 1.54415C7.20538 1.83448 7.38957 2.22362 7.535 2.65991C7.8276 3.53771 8 4.71857 8 6C8 7.28143 7.8276 8.46229 7.535 9.34009C7.38957 9.77638 7.20538 10.1655 6.97657 10.4559C6.75221 10.7406 6.42597 11 6 11C5.57403 11 5.24779 10.7406 5.02343 10.4559C4.79462 10.1655 4.61043 9.77638 4.465 9.34009C4.1724 8.46229 4 7.28143 4 6C4 4.71857 4.1724 3.53771 4.465 2.65991C4.61043 2.22362 4.79462 1.83448 5.02343 1.54415Z" fill="white"/>
</svg>
