<svg width="24" height="24" viewBox="0 0 24 24" fill="none" xmlns="http://www.w3.org/2000/svg">
  <path fill-rule="evenodd" clip-rule="evenodd" d="M1.99975 4.27471L3.27446 3L20.9955 20.7259L19.7208 21.9956L16.3815 18.6514C15.0268 19.1963 13.5472 19.4962 11.9975 19.4962C6.99862 19.4962 2.72962 16.3869 1 11.9979C1.77982 10.0134 3.08452 8.2988 4.73414 7.0091L1.99975 4.27471ZM9.07316 11.3431L7.52852 9.79845C7.19859 10.4683 6.99862 11.2081 6.99862 11.9979C6.99862 14.7573 9.23813 16.9968 11.9975 16.9968C12.7873 16.9968 13.5271 16.7968 14.192 16.4669L12.6474 14.9223C12.4374 14.9673 12.2224 14.9972 11.9975 14.9972C10.3429 14.9972 8.99818 13.6526 8.99818 11.9979C8.99818 11.773 9.02817 11.5581 9.07316 11.3431Z" fill="#CDD1D5"/>
  <path d="M11.9972 6.99917C14.7566 6.99917 16.9961 9.23867 16.9961 11.998C16.9961 12.6429 16.8661 13.2577 16.6412 13.8226L19.5655 16.7469C21.0751 15.4872 22.2649 13.8576 22.9997 11.998C21.2651 7.60906 17.0011 4.49976 11.9973 4.49976C10.5976 4.49976 9.2579 4.74968 8.01318 5.19958L10.1727 7.35407C10.7375 7.13414 11.3524 6.99917 11.9972 6.99917Z" fill="#CDD1D5"/>
  <path d="M11.8325 9.01378L14.9818 12.1631L14.9968 11.9981C14.9968 10.3435 13.6521 8.99878 11.9975 8.99878L11.8325 9.01378Z" fill="#CDD1D5"/>
</svg>

