<svg width="123" height="80" viewBox="0 0 123 80" fill="none" xmlns="http://www.w3.org/2000/svg">
    <path d="M20.5093 65.6021C20.5061 65.333 20.5581 65.066 20.6621 64.8178C20.7662 64.5696 20.9201 64.3453 21.1142 64.1589C21.3084 63.9725 21.5387 63.8279 21.791 63.7341C22.0433 63.6402 22.3121 63.5991 22.5809 63.6133C22.8561 63.6028 23.1303 63.6513 23.3852 63.7555C23.6401 63.8597 23.8697 64.0173 24.0587 64.2176L23.6961 64.5628C23.5571 64.4123 23.3876 64.2931 23.1988 64.2133C23.0101 64.1335 22.8065 64.095 22.6016 64.1002C22.3995 64.0904 22.1975 64.1219 22.0078 64.1925C21.8182 64.2632 21.6449 64.3716 21.4984 64.5112C21.3519 64.6509 21.2352 64.8188 21.1555 65.0048C21.0759 65.1908 21.0348 65.3911 21.0348 65.5935C21.0348 65.7959 21.0759 65.9961 21.1555 66.1822C21.2352 66.3682 21.3519 66.5361 21.4984 66.6757C21.6449 66.8153 21.8182 66.9238 22.0078 66.9944C22.1975 67.0651 22.3995 67.0965 22.6016 67.0868C22.8067 67.0913 23.0104 67.0521 23.1991 66.9717C23.3879 66.8914 23.5573 66.7717 23.6961 66.6207L24.0587 66.9659C23.8697 67.1686 23.6393 67.3281 23.383 67.4335C23.1268 67.539 22.8509 67.588 22.574 67.5771C22.3068 67.5907 22.0397 67.5497 21.789 67.4564C21.5382 67.3631 21.3092 67.2196 21.1158 67.0347C20.9225 66.8498 20.769 66.6274 20.6647 66.381C20.5604 66.1347 20.5075 65.8696 20.5093 65.6021V65.6021Z" fill="url(#paint0_linear_219_472)"/>
    <path d="M30.681 65.6021C30.6976 66.0149 30.5902 66.4233 30.3729 66.7747C30.1555 67.1261 29.8381 67.4045 29.4613 67.5741C29.0845 67.7436 28.6656 67.7967 28.2584 67.7263C27.8513 67.656 27.4744 67.4655 27.1764 67.1794C26.8783 66.8932 26.6726 66.5245 26.5857 66.1205C26.4988 65.7166 26.5347 65.2959 26.6888 64.9125C26.8429 64.5291 27.1081 64.2005 27.4503 63.969C27.7925 63.7375 28.1962 63.6136 28.6094 63.6133C28.878 63.5996 29.1467 63.6411 29.3987 63.7351C29.6508 63.8291 29.8809 63.9737 30.075 64.16C30.269 64.3463 30.4229 64.5704 30.5271 64.8184C30.6314 65.0664 30.6837 65.3331 30.681 65.6021V65.6021ZM30.1251 65.6021C30.1292 65.3018 30.0439 65.0071 29.8799 64.7556C29.716 64.504 29.4808 64.307 29.2045 64.1895C28.9281 64.0721 28.6231 64.0396 28.3282 64.0961C28.0333 64.1527 27.7619 64.2957 27.5486 64.5071C27.3353 64.7184 27.1897 64.9885 27.1304 65.2829C27.0712 65.5772 27.1009 65.8826 27.2158 66.16C27.3306 66.4374 27.5255 66.6744 27.7756 66.8406C28.0256 67.0069 28.3195 67.095 28.6197 67.0937C28.8179 67.0998 29.0153 67.0655 29.1998 66.9929C29.3843 66.9203 29.5521 66.8109 29.6929 66.6713C29.8338 66.5318 29.9447 66.365 30.0191 66.1812C30.0934 65.9973 30.1295 65.8003 30.1251 65.6021V65.6021ZM28.1122 63.3405H27.6219L28.3608 62.6189H28.8683L29.6072 63.3405H29.1238L28.6128 62.9124L28.1122 63.3405Z" fill="url(#paint1_linear_219_472)"/>
    <path d="M36.9823 63.6409V67.5287H36.5265L34.1821 64.6283V67.5287H33.64V63.6409H34.0958L36.4264 66.5377V63.6409H36.9823Z" fill="url(#paint2_linear_219_472)"/>
    <path d="M42.9486 65.5606H43.4838V67.0763C43.0659 67.4073 42.546 67.5831 42.0129 67.5735C41.7419 67.5895 41.4705 67.5499 41.2153 67.4572C40.9601 67.3645 40.7266 67.2206 40.5291 67.0343C40.3315 66.8481 40.1741 66.6234 40.0665 66.3742C39.959 66.1249 39.9035 65.8563 39.9035 65.5848C39.9035 65.3133 39.959 65.0446 40.0665 64.7954C40.1741 64.5461 40.3315 64.3214 40.5291 64.1352C40.7266 63.9489 40.9601 63.805 41.2153 63.7123C41.4705 63.6196 41.7419 63.58 42.0129 63.596C42.29 63.5844 42.5663 63.6319 42.8235 63.7355C43.0807 63.8391 43.3129 63.9964 43.5045 64.1968L43.1593 64.542C43.0116 64.3939 42.8354 64.2774 42.6413 64.1997C42.4472 64.1219 42.2393 64.0845 42.0302 64.0897C41.8281 64.08 41.626 64.1114 41.4364 64.1821C41.2468 64.2527 41.0734 64.3612 40.9269 64.5008C40.7804 64.6404 40.6638 64.8083 40.5841 64.9944C40.5044 65.1804 40.4633 65.3807 40.4633 65.583C40.4633 65.7854 40.5044 65.9857 40.5841 66.1717C40.6638 66.3577 40.7804 66.5257 40.9269 66.6653C41.0734 66.8049 41.2468 66.9133 41.4364 66.984C41.626 67.0546 41.8281 67.0861 42.0302 67.0763C42.3509 67.0855 42.667 66.9989 42.9383 66.8277L42.9486 65.5606Z" fill="url(#paint3_linear_219_472)"/>
    <path d="M51.028 64.1243H49.6953V63.6409H52.9098V64.1243H51.577V67.5287H51.028V64.1243Z" fill="url(#paint4_linear_219_472)"/>
    <path d="M57.0669 66.1855V67.5287H56.5179V66.1717L54.9745 63.6409H55.5684L56.8114 65.6883L58.0613 63.6409H58.6103L57.0669 66.1855Z" fill="url(#paint5_linear_219_472)"/>
    <path d="M64.5662 65.6021C64.563 65.333 64.6151 65.066 64.7191 64.8178C64.8232 64.5696 64.9771 64.3453 65.1712 64.1589C65.3654 63.9725 65.5957 63.8279 65.848 63.7341C66.1003 63.6402 66.3691 63.5991 66.6379 63.6133C66.9131 63.6028 67.1873 63.6513 67.4422 63.7555C67.6971 63.8597 67.9267 64.0173 68.1157 64.2176L67.7531 64.5628C67.6141 64.4123 67.4446 64.2931 67.2558 64.2133C67.0671 64.1335 66.8635 64.095 66.6586 64.1002C66.4565 64.0904 66.2544 64.1219 66.0648 64.1925C65.8752 64.2632 65.7018 64.3716 65.5553 64.5112C65.4088 64.6509 65.2922 64.8188 65.2125 65.0048C65.1328 65.1908 65.0917 65.3911 65.0917 65.5935C65.0917 65.7959 65.1328 65.9961 65.2125 66.1822C65.2922 66.3682 65.4088 66.5361 65.5553 66.6757C65.7018 66.8153 65.8752 66.9238 66.0648 66.9944C66.2544 67.0651 66.4565 67.0965 66.6586 67.0868C66.8637 67.0913 67.0674 67.0521 67.2561 66.9717C67.4449 66.8914 67.6143 66.7717 67.7531 66.6207L68.1157 66.9659C67.9267 67.1686 67.6962 67.3281 67.44 67.4335C67.1838 67.539 66.9078 67.588 66.631 67.5771C66.3638 67.5907 66.0967 67.5497 65.8459 67.4564C65.5952 67.3631 65.3661 67.2196 65.1728 67.0347C64.9795 66.8498 64.826 66.6274 64.7217 66.381C64.6174 66.1347 64.5645 65.8696 64.5662 65.6021V65.6021Z" fill="url(#paint6_linear_219_472)"/>
    <path d="M74.738 65.602C74.7545 66.0149 74.6472 66.4233 74.4299 66.7747C74.2125 67.1261 73.895 67.4044 73.5182 67.574C73.1415 67.7436 72.7226 67.7966 72.3154 67.7263C71.9082 67.656 71.5314 67.4655 71.2333 67.1793C70.9353 66.8932 70.7296 66.5245 70.6427 66.1205C70.5558 65.7165 70.5917 65.2958 70.7458 64.9124C70.8998 64.529 71.165 64.2005 71.5073 63.969C71.8495 63.7375 72.2532 63.6136 72.6664 63.6132C72.935 63.5996 73.2036 63.641 73.4557 63.735C73.7077 63.8291 73.9379 63.9737 74.1319 64.16C74.326 64.3463 74.4799 64.5703 74.5841 64.8183C74.6883 65.0663 74.7407 65.333 74.738 65.602V65.602ZM74.1821 65.602C74.1862 65.3016 74.1008 65.0068 73.9367 64.7552C73.7725 64.5036 73.5372 64.3065 73.2606 64.1892C72.9841 64.0718 72.6788 64.0395 72.3838 64.0964C72.0889 64.1532 71.8175 64.2966 71.6043 64.5083C71.3911 64.72 71.2459 64.9904 71.187 65.285C71.1281 65.5796 71.1583 65.885 71.2737 66.1624C71.3892 66.4397 71.5846 66.6764 71.8351 66.8423C72.0855 67.0081 72.3798 67.0956 72.6802 67.0936C72.8781 67.0993 73.0751 67.0646 73.2592 66.9918C73.4433 66.919 73.6106 66.8095 73.7511 66.67C73.8916 66.5305 74.0022 66.3639 74.0763 66.1803C74.1504 65.9967 74.1864 65.8 74.1821 65.602V65.602ZM72.1623 63.3232H71.6754L72.4178 62.7673H72.9184L73.6608 63.3232H73.1981L72.694 63.0125L72.1623 63.3232ZM73.1083 62.4013L73.0082 62.1976C73.1227 62.1251 73.256 62.0879 73.3914 62.0906C73.446 62.0848 73.5013 62.0905 73.5535 62.1075C73.6057 62.1245 73.6538 62.1523 73.6945 62.1891C73.7353 62.2259 73.7678 62.271 73.7899 62.3212C73.8121 62.3715 73.8233 62.4258 73.823 62.4807C73.8189 62.5829 73.7836 62.6813 73.7219 62.7628C73.6601 62.8442 73.575 62.9049 73.4778 62.9365L73.3362 62.7742C73.4847 62.7017 73.5572 62.6016 73.5572 62.5084C73.5572 62.4151 73.4674 62.3357 73.3466 62.3357C73.2662 62.3373 73.1876 62.3599 73.1187 62.4013H73.1083Z" fill="url(#paint7_linear_219_472)"/>
    <path d="M84.4368 64.9943C84.4368 65.8403 83.8256 66.3513 82.8174 66.3513H81.8541V67.5287H81.2982V63.6409H82.8174C83.8256 63.6409 84.4368 64.1519 84.4368 64.9943ZM83.8809 64.9943C83.8809 64.4419 83.5114 64.1243 82.8002 64.1243H81.8541V65.8679H82.8002C83.5114 65.8679 83.8809 65.5502 83.8809 64.9943Z" fill="url(#paint8_linear_219_472)"/>
    <path d="M90.7035 63.6409V67.5287H90.151V65.8023H87.9171V67.5287H87.3543V63.6409H87.9102V65.312H90.1441V63.6409H90.7035Z" fill="url(#paint9_linear_219_472)"/>
    <path d="M96.4557 66.555H94.3841L93.956 67.5287H93.3828L95.1437 63.6409H95.6927L97.4605 67.5287H96.8839L96.4557 66.555ZM94.9227 63.3232H94.4359L95.1782 62.7674H95.6789L96.4212 63.3232H95.9344L95.4303 63.0125L94.9227 63.3232ZM96.2624 66.1131L95.4234 64.221L94.5844 66.1269L96.2624 66.1131ZM96.3107 62.8364L95.489 62.208H96.0967L96.7458 62.8399L96.3107 62.8364Z" fill="url(#paint10_linear_219_472)"/>
    <path d="M103.496 63.6409V67.5287H103.04L100.71 64.6283V67.5287H100.154V63.6409H100.609L102.94 66.5377V63.6409H103.496Z" fill="url(#paint11_linear_219_472)"/>
    <path d="M4.57487 74.9486H5.86965V77.4622C5.13778 77.9794 4.26251 78.2546 3.36641 78.2495C1.41906 78.2495 -0.0138245 76.9133 -0.0138245 75.0453C-0.0138245 73.1774 1.41906 71.8446 3.39058 71.8446C3.87482 71.8221 4.35808 71.9063 4.80617 72.0913C5.25426 72.2763 5.65621 72.5575 5.98359 72.915L5.06516 73.7644C4.86295 73.5415 4.61533 73.3645 4.33898 73.2454C4.06263 73.1263 3.76396 73.0678 3.46309 73.0738C3.19153 73.0534 2.91869 73.0892 2.66159 73.179C2.40448 73.2688 2.16864 73.4105 1.96876 73.5955C1.76889 73.7804 1.60928 74.0046 1.49988 74.254C1.39049 74.5034 1.33366 74.7726 1.33295 75.0449C1.33224 75.3172 1.38765 75.5868 1.49574 75.8367C1.60382 76.0867 1.76226 76.3117 1.96116 76.4977C2.16006 76.6837 2.39516 76.8267 2.65179 76.9178C2.90842 77.0089 3.18107 77.0461 3.45273 77.0272C3.84114 77.0358 4.22522 76.9443 4.56796 76.7613L4.57487 74.9486Z" fill="url(#paint12_linear_219_472)"/>
    <path d="M7.20932 71.9517H8.63185V78.1424H7.20932V71.9517Z" fill="url(#paint13_linear_219_472)"/>
    <path d="M14.1873 76.8165H11.3146L10.7656 78.1424H9.29822L12.0604 71.9516H13.4657L16.2279 78.1424H14.7363L14.1873 76.8165ZM13.7384 75.7289L12.7544 73.3569L11.7738 75.7289H13.7384ZM12.1087 70.3323L11.8256 69.7729C12.1031 69.571 12.439 69.4655 12.782 69.4725C12.9165 69.4584 13.0525 69.4729 13.181 69.515C13.3095 69.5571 13.4277 69.6258 13.5278 69.7168C13.6278 69.8078 13.7076 69.9188 13.7617 70.0427C13.8159 70.1667 13.8432 70.3006 13.842 70.4358C13.8407 70.6833 13.7617 70.9241 13.6161 71.1242C13.4705 71.3243 13.2657 71.4737 13.0306 71.5511L12.5956 71.0919C12.9409 70.933 13.0479 70.7466 13.0479 70.5532C13.0477 70.5004 13.0365 70.4482 13.0148 70.4C12.9931 70.3519 12.9616 70.3088 12.9222 70.2736C12.8827 70.2385 12.8364 70.212 12.7861 70.1959C12.7357 70.1798 12.6826 70.1745 12.6301 70.1803C12.4452 70.1787 12.2639 70.2316 12.1087 70.3323V70.3323Z" fill="url(#paint14_linear_219_472)"/>
    <path d="M16.8873 71.9517H18.3202V78.1424H16.8873V71.9517Z" fill="url(#paint15_linear_219_472)"/>
    <path d="M27.6599 74.1959C27.6599 75.577 26.6241 76.4368 24.9702 76.4368H23.7238V78.1424H22.2909V71.9517H24.9702C26.6241 71.9517 27.6599 72.8079 27.6599 74.1959ZM26.2098 74.1959C26.2098 73.5054 25.7678 73.1187 24.8908 73.1187H23.7238V75.2697H24.8908C25.7678 75.2697 26.2098 74.8692 26.2098 74.1959Z" fill="url(#paint16_linear_219_472)"/>
    <path d="M34.3547 71.9517V78.1424H32.9219V75.615H30.1113V78.1528H28.6784V71.9517H30.1113V74.3928H32.9219V71.9517H34.3547Z" fill="url(#paint17_linear_219_472)"/>
    <path d="M39.9033 76.8167H37.0272L36.4782 78.1425H35.0108L37.773 71.9517H39.1886L41.9508 78.1425H40.4488L39.9033 76.8167ZM39.451 75.729L38.4704 73.357L37.4864 75.729H39.451ZM38.7604 71.4476H37.6797L38.8744 70.1736H40.3591L38.7604 71.4476Z" fill="url(#paint18_linear_219_472)"/>
    <path d="M47.9689 74.1959C47.9689 75.577 46.9331 76.4368 45.2792 76.4368H44.0328V78.1424H42.5999V71.9517H45.2792C46.9366 71.9517 47.9689 72.8079 47.9689 74.1959ZM46.5188 74.1959C46.5188 73.5054 46.0768 73.1187 45.1998 73.1187H44.0328V75.2697H45.1998C46.0768 75.2697 46.5188 74.8692 46.5188 74.1959V74.1959Z" fill="url(#paint19_linear_219_472)"/>
    <path d="M51.1903 75.0453C51.1903 73.1808 52.6232 71.8446 54.5498 71.8446C55.0298 71.8245 55.5081 71.9127 55.9492 72.1028C56.3903 72.2929 56.783 72.5799 57.0979 72.9426L56.1795 73.792C55.9908 73.562 55.753 73.3771 55.4836 73.2511C55.2141 73.125 54.9198 73.0609 54.6223 73.0634C54.0967 73.0634 53.5926 73.2722 53.2209 73.6439C52.8493 74.0156 52.6405 74.5197 52.6405 75.0453C52.6405 75.5709 52.8493 76.075 53.2209 76.4467C53.5926 76.8184 54.0967 77.0272 54.6223 77.0272C54.9203 77.0305 55.2152 76.9664 55.4848 76.8397C55.7545 76.7129 55.992 76.5268 56.1795 76.2952L57.0979 77.1446C56.7834 77.51 56.39 77.7993 55.9474 77.9907C55.5049 78.1821 55.0246 78.2706 54.5429 78.2494C52.6232 78.2494 51.1903 76.9132 51.1903 75.0453Z" fill="url(#paint20_linear_219_472)"/>
    <path d="M64.3176 75.0454C64.3176 76.8961 62.8744 78.2495 60.9271 78.2495C58.9797 78.2495 57.5399 76.8857 57.5399 75.0454C57.5399 73.2051 58.9728 71.8447 60.9271 71.8447C62.8813 71.8447 64.3176 73.1982 64.3176 75.0454ZM62.8675 75.0454C62.8593 74.6635 62.7386 74.2925 62.5205 73.9789C62.3024 73.6653 61.9966 73.423 61.6414 73.2825C61.2862 73.1419 60.8974 73.1094 60.5237 73.1889C60.1501 73.2683 59.8082 73.4563 59.541 73.7293C59.2737 74.0023 59.093 74.348 59.0214 74.7233C58.9498 75.0985 58.9906 75.4865 59.1386 75.8387C59.2866 76.1908 59.5353 76.4915 59.8534 76.7029C60.1716 76.9143 60.5451 77.0272 60.9271 77.0273C61.1873 77.0342 61.4462 76.9874 61.6875 76.8897C61.9288 76.792 62.1474 76.6456 62.3295 76.4596C62.5117 76.2735 62.6535 76.0519 62.746 75.8086C62.8386 75.5653 62.8799 75.3054 62.8675 75.0454V75.0454ZM60.1606 71.4476H59.1524L60.3194 70.1736H61.5382L62.7052 71.4476H61.697L60.9271 70.7571L60.1606 71.4476Z" fill="url(#paint21_linear_219_472)"/>
    <path d="M71.0747 71.9517V78.1424H69.8973L66.8105 74.3824V78.1424H65.3949V71.9517H66.5826L69.659 75.7082V71.9517H71.0747Z" fill="url(#paint22_linear_219_472)"/>
    <path d="M76.7268 74.9486H78.0319V77.4622C77.3004 77.9799 76.4249 78.2552 75.5287 78.2494C73.5848 78.2494 72.1519 76.9132 72.1519 75.0453C72.1519 73.1773 73.5848 71.8446 75.5563 71.8446C76.0405 71.8223 76.5237 71.9066 76.9718 72.0916C77.4198 72.2765 77.8218 72.5576 78.1493 72.9149L77.2274 73.7643C77.0255 73.541 76.778 73.3639 76.5015 73.2447C76.2251 73.1256 75.9263 73.0672 75.6254 73.0737C75.0997 73.0737 74.5957 73.2825 74.224 73.6542C73.8523 74.0259 73.6435 74.53 73.6435 75.0556C73.6435 75.5812 73.8523 76.0853 74.224 76.457C74.5957 76.8287 75.0997 77.0375 75.6254 77.0375C76.0138 77.0466 76.398 76.955 76.7406 76.7716L76.7268 74.9486Z" fill="url(#paint23_linear_219_472)"/>
    <path d="M87.5442 71.9517V78.1424H86.3703L83.2628 74.3824V78.1424H81.8472V71.9517H83.0349L86.1113 75.7082V71.9517H87.5442Z" fill="url(#paint24_linear_219_472)"/>
    <path d="M93.1964 74.9486H94.5084V77.4622C93.7765 77.9794 92.9013 78.2546 92.0052 78.2495C90.0578 78.2495 88.6249 76.9133 88.6249 75.0453C88.6249 73.1774 90.0578 71.8446 92.0293 71.8446C92.5136 71.8221 92.9968 71.9063 93.4449 72.0913C93.893 72.2763 94.295 72.5575 94.6223 72.915L93.7005 73.7644C93.4992 73.5412 93.2523 73.364 92.9764 73.2449C92.7006 73.1257 92.4023 73.0674 92.1019 73.0738C91.8416 73.0727 91.5836 73.1228 91.3428 73.2214C91.1019 73.3199 90.8828 73.4649 90.6979 73.6482C90.5131 73.8314 90.3662 74.0493 90.2655 74.2893C90.1649 74.5293 90.1125 74.7868 90.1113 75.047C90.1102 75.3073 90.1603 75.5652 90.2589 75.8061C90.3575 76.047 90.5025 76.2661 90.6857 76.451C90.869 76.6358 91.0868 76.7827 91.3268 76.8834C91.5668 76.984 91.8243 77.0364 92.0846 77.0375C92.4719 77.0462 92.8549 76.9546 93.1964 76.7717V74.9486Z" fill="url(#paint25_linear_219_472)"/>
    <path d="M101.511 71.9517V78.1424H100.078V75.615H97.2637V78.1528H95.8308V71.9517H97.2637V74.3928H100.078V71.9517H101.511Z" fill="url(#paint26_linear_219_472)"/>
    <path d="M107.774 76.9962V78.1459H102.981V71.9517H107.66V73.1015H104.404V74.4446H107.28V75.5598H104.404V76.9962H107.774ZM104.556 71.4511H103.548L104.715 70.177H105.937L107.104 71.4511H106.096L105.326 70.7605L104.556 71.4511ZM105.978 79.3924C105.967 79.5461 105.898 79.6897 105.785 79.7945C105.672 79.8994 105.523 79.9576 105.369 79.9576C105.215 79.9576 105.066 79.8994 104.953 79.7945C104.84 79.6897 104.771 79.5461 104.76 79.3924C104.753 79.3085 104.764 79.2242 104.792 79.1448C104.82 79.0654 104.864 78.9925 104.921 78.9309C104.978 78.8692 105.047 78.82 105.125 78.7863C105.202 78.7527 105.285 78.7353 105.369 78.7353C105.453 78.7353 105.536 78.7527 105.613 78.7863C105.691 78.82 105.76 78.8692 105.817 78.9309C105.874 78.9925 105.918 79.0654 105.946 79.1448C105.974 79.2242 105.985 79.3085 105.978 79.3924Z" fill="url(#paint27_linear_219_472)"/>
    <path d="M116.212 76.9961V78.1459H111.42V71.9517H116.098V73.1014H112.842V74.4445H115.719V75.5598H112.842V76.9961H116.212Z" fill="url(#paint28_linear_219_472)"/>
    <path d="M122.372 76.9754V78.1424H116.958V77.2136L120.356 73.1187H117.027V71.9517H122.227V72.8804L118.84 76.9754H122.372Z" fill="url(#paint29_linear_219_472)"/>
    <path d="M62.0596 8.28648C61.9215 8.28648 61.4243 8.59723 61.262 8.65247C60.9605 8.75543 60.6493 8.82716 60.3332 8.86654C58.0647 9.16693 55.527 8.24505 54.2771 6.51523C53.7868 5.82468 53.4243 5.0927 52.9823 4.38834C52.0326 2.79286 50.5039 1.62532 48.7147 1.12895C46.4601 0.524721 44.0293 0.742244 41.8092 1.33957C45.0721 -0.290125 49.4225 -0.600872 52.3884 1.42934C53.8731 2.44445 54.8399 3.8946 55.6962 5.40344C56.877 7.53033 59.6841 7.97919 62.0596 8.28648Z" fill="url(#paint30_linear_219_472)"/>
    <path d="M106.828 52.4367C106.334 53.5801 105.595 54.6009 104.663 55.4268C101.265 58.4307 96.801 57.8437 92.896 56.2866L90.5343 55.3371C88.3315 54.4485 86.1332 53.5462 83.9396 52.6301C83.1114 52.3093 82.2623 52.0452 81.3984 51.8394C77.7799 50.9383 71.4407 50.1131 66.2615 52.53C66.2615 52.53 63.6582 54.1355 63.6513 54.1355C63.9965 53.0203 64.3694 51.905 64.7113 50.7829C65.193 49.0389 65.8381 47.3441 66.6379 45.7212C67.3991 44.287 68.3199 42.9434 69.3828 41.716C71.5253 39.2661 74.1076 37.2389 76.9961 35.7393C78.2356 35.0833 79.5304 34.5274 80.8494 33.9888C83.3595 32.9529 85.9145 32.0172 88.1864 30.5844C92.7268 27.7151 95.7825 20.492 90.8416 16.4281C88.9633 14.8847 86.3703 14.4428 83.9568 14.7017C80.7147 15.047 77.6003 16.4696 74.5792 17.6159C71.4929 18.8276 68.2672 19.6488 64.9771 20.0604C60.0328 20.6128 54.9642 19.9603 50.4756 17.7781L50.158 17.6193C50.158 17.6193 49.8334 17.4605 49.2948 17.1636C45.7143 15.192 41.9094 12.6128 39.7756 9.02544C39.4518 8.53793 39.2483 7.98061 39.1817 7.3992C39.1299 6.44625 39.8722 5.71081 40.7009 5.38625C41.3978 5.16056 42.1317 5.07146 42.8623 5.12385C45.8938 5.19635 48.7872 6.11478 51.6116 7.13679C53.041 7.65125 54.4635 8.18988 55.9137 8.64219C57.6159 9.17736 59.8049 9.90935 61.4899 8.95984C62.8537 8.18988 63.268 6.61198 63.9551 5.31029C64.7113 3.88777 65.6055 2.49976 66.8968 1.51228C69.7592 -0.676758 73.9577 -0.341842 77.1031 1.4156C74.1407 0.528249 70.6638 0.421214 68.2296 2.32713C66.9832 3.3008 66.158 4.70607 65.5261 6.16312C64.8563 7.75138 64.3211 9.68492 62.7156 10.5999C61.9114 11.0196 60.9986 11.1846 60.0984 11.0729C58.958 10.9124 57.8339 10.6525 56.7389 10.2961C55.5442 9.96804 54.3565 9.6055 53.1757 9.22915C50.0302 8.23822 46.8917 7.18168 43.6392 6.5809C42.9866 6.46006 42.2857 6.36338 41.6884 6.64305C40.7423 7.10917 40.8114 7.87223 41.2602 8.63183L41.3189 8.73196C41.4903 8.99507 41.682 9.24442 41.8921 9.47775L41.9232 9.51573C42.3114 9.94291 42.7316 10.34 43.18 10.7035C43.8705 11.2283 44.5956 11.7013 45.3103 12.1329C49.5254 14.6028 54.3256 15.8977 59.211 15.8826C64.328 15.9171 69.1273 14.5015 73.8127 12.5265C74.982 12.0339 76.1329 11.4999 77.2654 10.9245L78.0734 10.517C81.4847 8.7803 84.9374 6.95725 88.801 6.46351C94.795 5.70045 99.1593 8.45574 101.31 12.5645C101.376 12.6888 101.442 12.8131 101.504 12.9409C102.063 14.0892 102.453 15.3128 102.66 16.5731C102.698 16.801 102.729 17.0289 102.757 17.2637C102.957 19.1188 102.794 20.9953 102.277 22.7881C101.325 26.0496 99.3972 28.9414 96.7527 31.0746C96.5386 31.2507 96.3211 31.4199 96.0967 31.5857C92.7993 34.0026 88.9357 35.7289 85.3932 37.8006L84.0328 38.5913L82.997 39.2024L80.5801 40.6042L80.5248 40.6387H80.5006C80.5006 40.6387 77.8835 42.1718 77.8766 42.1718L77.8386 42.1959L77.7039 42.2719C82.4204 41.6124 86.3358 43.394 90.669 44.8994C93.0445 45.7281 95.8481 46.0768 97.9404 44.6681C99.4182 43.6668 100.274 41.9059 100.44 40.1243C100.55 38.3324 100.204 36.542 99.432 34.921C100.003 35.1758 100.554 35.4712 101.082 35.8049C103.905 37.5789 106.008 40.2941 107.021 43.47C107.943 46.3219 108.047 49.678 106.828 52.4367Z" fill="url(#paint31_linear_219_472)"/>
    <path d="M66.7346 21.911C56.2486 35.4734 44.1916 27.5217 42.2201 26.3582C40.2486 25.1946 34.8727 20.9753 32.5697 20.0776C31.375 19.5321 29.697 19.1661 28.5024 19.9084C27.3077 20.6508 27.2559 22.3254 27.5598 23.558C27.8346 24.6303 28.3026 25.6436 28.9409 26.5481C29.8423 27.8135 30.9555 28.9138 32.2313 29.8005C33.0385 30.3768 33.9 30.8729 34.8036 31.2818C34.8416 31.299 34.9141 31.3197 35.0073 31.3508C35.3146 31.4475 35.8187 31.5925 35.8809 31.6961L37.3863 34.5757C37.3863 34.5757 31.4234 35.7393 28.202 33.7539C27.8567 33.5571 27.5114 33.3569 27.1661 33.1462C25.2651 31.9989 23.5237 30.6058 21.987 29.003C21.1035 28.0737 20.3265 27.0488 19.6702 25.9473C16.6146 20.7682 16.9944 13.4794 21.1964 9.02885C22.0812 8.04371 23.162 7.25416 24.3695 6.71074C25.577 6.16732 26.8847 5.882 28.2089 5.87305C29.5154 5.88268 30.8093 6.12953 32.0276 6.60158L32.4247 6.7604C35.2939 7.93779 37.6038 9.91621 39.9275 11.9395C39.9655 11.974 40.0034 12.0086 40.0449 12.0396C56.6974 26.4134 66.6137 21.9663 66.7346 21.911Z" fill="url(#paint32_linear_219_472)"/>
    <path d="M35.0211 31.3509C33.8369 33.4018 27.3492 33.167 27.1972 33.1463C25.2962 31.999 23.5548 30.6059 22.0181 29.003L22.1597 28.2261C22.1597 28.2261 26.3686 27.1489 28.9547 26.5239C29.8562 27.7894 30.9693 28.8897 32.2451 29.7764C33.0523 30.3527 33.9139 30.8487 34.8174 31.2576C34.8554 31.2749 34.9279 31.2956 35.0211 31.3267V31.3509Z" fill="url(#paint33_linear_219_472)"/>
    <path d="M66.7346 21.911C66.4756 22.1699 61.445 29.6658 40.5214 15.3128C37.2451 13.0856 34.4928 10.1719 32.4557 6.77417C35.325 7.95155 37.6349 9.92997 39.9586 11.9533C39.9965 11.9878 40.0345 12.0223 40.0759 12.0534C56.6974 26.4134 66.6137 21.9662 66.7346 21.911Z" fill="url(#paint34_linear_219_472)"/>
    <path d="M63.6513 54.1424C63.5373 54.0492 63.4234 53.9629 63.306 53.8766C56.2969 48.6974 45.4519 51.7566 43.363 52.6301C40.3902 53.88 37.4001 55.085 34.4066 56.2866C31.2991 57.5296 27.7255 58.2788 24.5662 56.7527C22.5621 55.7696 20.9154 54.1845 19.8567 52.2192C19.4192 51.3625 19.0598 50.4681 18.7829 49.5468C17.8585 46.599 17.9411 43.4274 19.0177 40.5317C20.3988 36.9616 23.5442 34.7691 26.8899 33.281C30.0115 31.8639 33.4218 31.1989 36.8471 31.3392C40.2723 31.4795 43.6168 32.4213 46.612 34.0889C48.9736 35.3644 51.1255 36.9946 52.9927 38.9227V38.9227L53.0099 38.9435C53.3966 39.3543 53.7592 39.7756 54.101 40.2141C54.101 40.2141 52.5921 39.4579 50.303 38.5567C47.6059 37.4616 44.8118 36.6223 41.9577 36.0501L41.2326 35.9534C38.59 35.6165 35.9053 35.8893 33.3845 36.751C32.9426 36.9099 32.5103 37.0944 32.0898 37.3034C31.855 37.4208 31.6271 37.5451 31.3992 37.6797C29.7971 38.6223 28.385 40.0034 27.9465 41.792C27.211 44.7855 30.8192 45.9353 33.1532 45.6487C34.8115 45.3934 36.4339 44.9438 37.987 44.309V44.309C38.7639 44.0155 39.5373 43.7151 40.3176 43.4355C55.0781 38.139 61.2102 50.1027 63.4027 53.7695L63.6513 54.1424Z" fill="url(#paint35_linear_219_472)"/>
    <path d="M38.0181 44.3262C37.9767 44.6197 36.5749 45.3137 36.2917 45.4794C35.7483 45.8158 35.187 46.1224 34.6103 46.3978C33.7329 46.8279 32.8049 47.1457 31.8481 47.3439C30.6258 47.5787 29.2412 47.5718 28.0984 47.0331C25.8334 45.9628 26.2961 42.9693 27.356 41.1842C27.394 41.1186 27.432 41.0564 27.4734 40.9943C27.6932 40.6474 27.9415 40.3194 28.2158 40.0137C28.2312 39.9926 28.2485 39.9729 28.2676 39.955C28.3125 39.9067 28.3573 39.8549 28.4057 39.8065V39.7893C29.2762 39.0124 30.2332 38.3382 31.2576 37.7798C31.3024 37.7532 31.3485 37.729 31.3958 37.7073C29.8835 38.5981 28.5472 39.8756 28.0362 41.5226C28.0052 41.6158 27.981 41.7125 27.9534 41.8091C27.2179 44.8027 30.8261 45.9524 33.1601 45.6658C34.8266 45.4124 36.4573 44.9628 38.0181 44.3262Z" fill="url(#paint36_linear_219_472)"/>
    <path d="M63.4372 53.7868L63.306 53.8765C56.2969 48.6974 45.4519 51.7565 43.363 52.6301C40.3901 53.88 37.4001 55.085 34.4065 56.2865C31.2991 57.5295 27.7255 58.2788 24.5662 56.7527C22.5621 55.7696 20.9154 54.1845 19.8567 52.2192C19.4192 51.3625 19.0598 50.4681 18.7829 49.5468C24.3556 61.1411 33.0841 55.0159 39.1126 52.4091C53.4864 44.5438 63.2197 53.5865 63.4337 53.7902L63.4372 53.7868Z" fill="url(#paint37_linear_219_472)"/>
    <path d="M95.9862 47.2473C94.8457 47.2508 93.7122 47.0688 92.6301 46.7087C90.9314 46.1528 89.2982 45.407 87.6133 44.8166C85.8386 44.1916 84.0362 43.6461 82.2443 43.0902C80.7769 42.6517 79.2611 42.227 77.7315 42.2788C78.656 42.1549 79.5897 42.1144 80.5214 42.158C81.4597 42.2078 82.3926 42.3325 83.3112 42.5309C85.1554 42.9602 86.9678 43.5163 88.7354 44.1951C89.3914 44.4333 90.0475 44.6716 90.7069 44.8856C93.0859 45.7143 95.886 46.063 97.9784 44.6543C99.4562 43.653 100.312 41.8921 100.482 40.1105C100.589 38.3185 100.241 36.5285 99.47 34.9072C100.085 36.309 100.972 37.5002 101.428 39.0022C102.063 41.1187 101.98 43.1765 100.699 44.9961C99.5701 46.612 97.8161 47.2197 95.9862 47.2473Z" fill="url(#paint38_linear_219_472)"/>
    <path opacity="0.6" d="M106.831 52.4368C106.335 53.5796 105.595 54.6001 104.663 55.4269C101.265 58.4308 96.801 57.8438 92.8994 56.2866L90.5378 55.3371C88.3303 54.4486 86.1309 53.5463 83.9396 52.6301C83.1116 52.3089 82.2625 52.0447 81.3984 51.8395C77.7833 50.9383 71.4441 50.1131 66.265 52.53L63.6513 54.1424C63.741 53.9422 67.6703 45.4899 83.1834 50.9763C87.0919 52.2055 102.919 60.6232 106.831 52.4368Z" fill="url(#paint39_linear_219_472)"/>
    <path d="M39.2369 7.73755C39.2262 7.71398 39.217 7.68976 39.2093 7.66504L39.2335 7.71683C39.233 7.72391 39.2342 7.73101 39.2369 7.73755V7.73755Z" fill="url(#paint40_radial_219_472)"/>
    <path opacity="0.44" d="M41.2602 8.6318L41.3189 8.73193C41.2499 8.64216 41.2326 8.61108 41.2602 8.62835V8.6318Z" fill="url(#paint41_linear_219_472)"/>
    <path opacity="0.44" d="M102.27 22.7155C102.867 19.5079 102.881 15.7582 100.578 13.1825C98.7276 11.1108 95.886 10.3581 93.2136 10.1648C88.1726 9.80225 83.0764 11.0004 78.5153 13.1065C74.1614 15.1229 69.7695 16.8182 64.9909 17.5226C58.631 18.4583 52.0259 17.5502 46.5153 14.1147C44.4816 12.8476 43.3146 11.3525 41.9301 9.52949C42.3166 9.95164 42.7344 10.3441 43.1799 10.7034C43.8705 11.2282 44.5956 11.7013 45.3103 12.1329C49.5254 14.6028 54.3256 15.8976 59.211 15.8825C64.328 15.9171 69.1273 14.5014 73.8127 12.5265C74.982 12.0339 76.1329 11.4999 77.2654 10.9244L78.0733 10.517C81.4846 8.78024 84.9374 6.95719 88.801 6.46345C94.795 5.7004 99.1592 8.45568 101.31 12.5644C101.376 12.6887 101.441 12.813 101.504 12.9408C102.063 14.0892 102.453 15.3127 102.66 16.5731C102.698 16.801 102.729 17.0288 102.757 17.2636C102.945 19.0953 102.78 20.9462 102.27 22.7155Z" fill="url(#paint42_linear_219_472)"/>
    <defs>
        <linearGradient id="paint0_linear_219_472" x1="31.9033" y1="106.596" x2="87.4821" y2="48.4213" gradientUnits="userSpaceOnUse">
            <stop stop-color="#976628"/>
            <stop offset="0.36" stop-color="#E3D47E"/>
            <stop offset="0.63" stop-color="#D4BA68"/>
            <stop offset="1" stop-color="#946326"/>
        </linearGradient>
        <linearGradient id="paint1_linear_219_472" x1="31.9033" y1="106.596" x2="87.4821" y2="48.4212" gradientUnits="userSpaceOnUse">
            <stop stop-color="#976628"/>
            <stop offset="0.36" stop-color="#E3D47E"/>
            <stop offset="0.63" stop-color="#D4BA68"/>
            <stop offset="1" stop-color="#946326"/>
        </linearGradient>
        <linearGradient id="paint2_linear_219_472" x1="31.9033" y1="106.596" x2="87.4821" y2="48.4212" gradientUnits="userSpaceOnUse">
            <stop stop-color="#976628"/>
            <stop offset="0.36" stop-color="#E3D47E"/>
            <stop offset="0.63" stop-color="#D4BA68"/>
            <stop offset="1" stop-color="#946326"/>
        </linearGradient>
        <linearGradient id="paint3_linear_219_472" x1="31.9033" y1="106.596" x2="87.4821" y2="48.4212" gradientUnits="userSpaceOnUse">
            <stop stop-color="#976628"/>
            <stop offset="0.36" stop-color="#E3D47E"/>
            <stop offset="0.63" stop-color="#D4BA68"/>
            <stop offset="1" stop-color="#946326"/>
        </linearGradient>
        <linearGradient id="paint4_linear_219_472" x1="31.9033" y1="106.596" x2="87.482" y2="48.4211" gradientUnits="userSpaceOnUse">
            <stop stop-color="#976628"/>
            <stop offset="0.36" stop-color="#E3D47E"/>
            <stop offset="0.63" stop-color="#D4BA68"/>
            <stop offset="1" stop-color="#946326"/>
        </linearGradient>
        <linearGradient id="paint5_linear_219_472" x1="31.9033" y1="106.596" x2="87.482" y2="48.4212" gradientUnits="userSpaceOnUse">
            <stop stop-color="#976628"/>
            <stop offset="0.36" stop-color="#E3D47E"/>
            <stop offset="0.63" stop-color="#D4BA68"/>
            <stop offset="1" stop-color="#946326"/>
        </linearGradient>
        <linearGradient id="paint6_linear_219_472" x1="31.9033" y1="106.596" x2="87.4821" y2="48.4213" gradientUnits="userSpaceOnUse">
            <stop stop-color="#976628"/>
            <stop offset="0.36" stop-color="#E3D47E"/>
            <stop offset="0.63" stop-color="#D4BA68"/>
            <stop offset="1" stop-color="#946326"/>
        </linearGradient>
        <linearGradient id="paint7_linear_219_472" x1="31.9033" y1="106.596" x2="87.482" y2="48.4211" gradientUnits="userSpaceOnUse">
            <stop stop-color="#976628"/>
            <stop offset="0.36" stop-color="#E3D47E"/>
            <stop offset="0.63" stop-color="#D4BA68"/>
            <stop offset="1" stop-color="#946326"/>
        </linearGradient>
        <linearGradient id="paint8_linear_219_472" x1="31.9033" y1="106.596" x2="87.4821" y2="48.4212" gradientUnits="userSpaceOnUse">
            <stop stop-color="#976628"/>
            <stop offset="0.36" stop-color="#E3D47E"/>
            <stop offset="0.63" stop-color="#D4BA68"/>
            <stop offset="1" stop-color="#946326"/>
        </linearGradient>
        <linearGradient id="paint9_linear_219_472" x1="31.9032" y1="106.596" x2="87.482" y2="48.4211" gradientUnits="userSpaceOnUse">
            <stop stop-color="#976628"/>
            <stop offset="0.36" stop-color="#E3D47E"/>
            <stop offset="0.63" stop-color="#D4BA68"/>
            <stop offset="1" stop-color="#946326"/>
        </linearGradient>
        <linearGradient id="paint10_linear_219_472" x1="31.9033" y1="106.596" x2="87.4821" y2="48.4212" gradientUnits="userSpaceOnUse">
            <stop stop-color="#976628"/>
            <stop offset="0.36" stop-color="#E3D47E"/>
            <stop offset="0.63" stop-color="#D4BA68"/>
            <stop offset="1" stop-color="#946326"/>
        </linearGradient>
        <linearGradient id="paint11_linear_219_472" x1="31.9033" y1="106.596" x2="87.4821" y2="48.4212" gradientUnits="userSpaceOnUse">
            <stop stop-color="#976628"/>
            <stop offset="0.36" stop-color="#E3D47E"/>
            <stop offset="0.63" stop-color="#D4BA68"/>
            <stop offset="1" stop-color="#946326"/>
        </linearGradient>
        <linearGradient id="paint12_linear_219_472" x1="31.9033" y1="106.596" x2="87.4821" y2="48.4212" gradientUnits="userSpaceOnUse">
            <stop stop-color="#976628"/>
            <stop offset="0.36" stop-color="#E3D47E"/>
            <stop offset="0.63" stop-color="#D4BA68"/>
            <stop offset="1" stop-color="#946326"/>
        </linearGradient>
        <linearGradient id="paint13_linear_219_472" x1="31.9033" y1="106.596" x2="87.4821" y2="48.4212" gradientUnits="userSpaceOnUse">
            <stop stop-color="#976628"/>
            <stop offset="0.36" stop-color="#E3D47E"/>
            <stop offset="0.63" stop-color="#D4BA68"/>
            <stop offset="1" stop-color="#946326"/>
        </linearGradient>
        <linearGradient id="paint14_linear_219_472" x1="31.9033" y1="106.596" x2="87.4821" y2="48.4212" gradientUnits="userSpaceOnUse">
            <stop stop-color="#976628"/>
            <stop offset="0.36" stop-color="#E3D47E"/>
            <stop offset="0.63" stop-color="#D4BA68"/>
            <stop offset="1" stop-color="#946326"/>
        </linearGradient>
        <linearGradient id="paint15_linear_219_472" x1="31.9033" y1="106.596" x2="87.4821" y2="48.4212" gradientUnits="userSpaceOnUse">
            <stop stop-color="#976628"/>
            <stop offset="0.36" stop-color="#E3D47E"/>
            <stop offset="0.63" stop-color="#D4BA68"/>
            <stop offset="1" stop-color="#946326"/>
        </linearGradient>
        <linearGradient id="paint16_linear_219_472" x1="31.9033" y1="106.596" x2="87.4821" y2="48.4212" gradientUnits="userSpaceOnUse">
            <stop stop-color="#976628"/>
            <stop offset="0.36" stop-color="#E3D47E"/>
            <stop offset="0.63" stop-color="#D4BA68"/>
            <stop offset="1" stop-color="#946326"/>
        </linearGradient>
        <linearGradient id="paint17_linear_219_472" x1="31.9033" y1="106.596" x2="87.4821" y2="48.4212" gradientUnits="userSpaceOnUse">
            <stop stop-color="#976628"/>
            <stop offset="0.36" stop-color="#E3D47E"/>
            <stop offset="0.63" stop-color="#D4BA68"/>
            <stop offset="1" stop-color="#946326"/>
        </linearGradient>
        <linearGradient id="paint18_linear_219_472" x1="31.9033" y1="106.597" x2="87.4821" y2="48.4213" gradientUnits="userSpaceOnUse">
            <stop stop-color="#976628"/>
            <stop offset="0.36" stop-color="#E3D47E"/>
            <stop offset="0.63" stop-color="#D4BA68"/>
            <stop offset="1" stop-color="#946326"/>
        </linearGradient>
        <linearGradient id="paint19_linear_219_472" x1="31.9033" y1="106.596" x2="87.4821" y2="48.4213" gradientUnits="userSpaceOnUse">
            <stop stop-color="#976628"/>
            <stop offset="0.36" stop-color="#E3D47E"/>
            <stop offset="0.63" stop-color="#D4BA68"/>
            <stop offset="1" stop-color="#946326"/>
        </linearGradient>
        <linearGradient id="paint20_linear_219_472" x1="31.9033" y1="106.596" x2="87.4821" y2="48.4212" gradientUnits="userSpaceOnUse">
            <stop stop-color="#976628"/>
            <stop offset="0.36" stop-color="#E3D47E"/>
            <stop offset="0.63" stop-color="#D4BA68"/>
            <stop offset="1" stop-color="#946326"/>
        </linearGradient>
        <linearGradient id="paint21_linear_219_472" x1="31.9033" y1="106.597" x2="87.4821" y2="48.4213" gradientUnits="userSpaceOnUse">
            <stop stop-color="#976628"/>
            <stop offset="0.36" stop-color="#E3D47E"/>
            <stop offset="0.63" stop-color="#D4BA68"/>
            <stop offset="1" stop-color="#946326"/>
        </linearGradient>
        <linearGradient id="paint22_linear_219_472" x1="31.9033" y1="106.596" x2="87.4821" y2="48.4212" gradientUnits="userSpaceOnUse">
            <stop stop-color="#976628"/>
            <stop offset="0.36" stop-color="#E3D47E"/>
            <stop offset="0.63" stop-color="#D4BA68"/>
            <stop offset="1" stop-color="#946326"/>
        </linearGradient>
        <linearGradient id="paint23_linear_219_472" x1="31.9033" y1="106.596" x2="87.4821" y2="48.4212" gradientUnits="userSpaceOnUse">
            <stop stop-color="#976628"/>
            <stop offset="0.36" stop-color="#E3D47E"/>
            <stop offset="0.63" stop-color="#D4BA68"/>
            <stop offset="1" stop-color="#946326"/>
        </linearGradient>
        <linearGradient id="paint24_linear_219_472" x1="31.9033" y1="106.596" x2="87.4821" y2="48.4212" gradientUnits="userSpaceOnUse">
            <stop stop-color="#976628"/>
            <stop offset="0.36" stop-color="#E3D47E"/>
            <stop offset="0.63" stop-color="#D4BA68"/>
            <stop offset="1" stop-color="#946326"/>
        </linearGradient>
        <linearGradient id="paint25_linear_219_472" x1="31.9033" y1="106.596" x2="87.4821" y2="48.4213" gradientUnits="userSpaceOnUse">
            <stop stop-color="#976628"/>
            <stop offset="0.36" stop-color="#E3D47E"/>
            <stop offset="0.63" stop-color="#D4BA68"/>
            <stop offset="1" stop-color="#946326"/>
        </linearGradient>
        <linearGradient id="paint26_linear_219_472" x1="31.9033" y1="106.596" x2="87.4821" y2="48.4212" gradientUnits="userSpaceOnUse">
            <stop stop-color="#976628"/>
            <stop offset="0.36" stop-color="#E3D47E"/>
            <stop offset="0.63" stop-color="#D4BA68"/>
            <stop offset="1" stop-color="#946326"/>
        </linearGradient>
        <linearGradient id="paint27_linear_219_472" x1="31.9033" y1="106.597" x2="87.4821" y2="48.4213" gradientUnits="userSpaceOnUse">
            <stop stop-color="#976628"/>
            <stop offset="0.36" stop-color="#E3D47E"/>
            <stop offset="0.63" stop-color="#D4BA68"/>
            <stop offset="1" stop-color="#946326"/>
        </linearGradient>
        <linearGradient id="paint28_linear_219_472" x1="31.9035" y1="106.596" x2="87.4822" y2="48.4213" gradientUnits="userSpaceOnUse">
            <stop stop-color="#976628"/>
            <stop offset="0.36" stop-color="#E3D47E"/>
            <stop offset="0.63" stop-color="#D4BA68"/>
            <stop offset="1" stop-color="#946326"/>
        </linearGradient>
        <linearGradient id="paint29_linear_219_472" x1="31.9032" y1="106.596" x2="87.482" y2="48.4212" gradientUnits="userSpaceOnUse">
            <stop stop-color="#976628"/>
            <stop offset="0.36" stop-color="#E3D47E"/>
            <stop offset="0.63" stop-color="#D4BA68"/>
            <stop offset="1" stop-color="#946326"/>
        </linearGradient>
        <linearGradient id="paint30_linear_219_472" x1="41.8023" y1="4.45739" x2="62.0596" y2="4.45739" gradientUnits="userSpaceOnUse">
            <stop stop-color="#E3D47E"/>
            <stop offset="0.2" stop-color="#D4BA68"/>
            <stop offset="1" stop-color="#946326"/>
        </linearGradient>
        <linearGradient id="paint31_linear_219_472" x1="39.1886" y1="28.7855" x2="107.732" y2="28.7855" gradientUnits="userSpaceOnUse">
            <stop stop-color="#E3D47E"/>
            <stop offset="0.2" stop-color="#D4BA68"/>
            <stop offset="1" stop-color="#946326"/>
        </linearGradient>
        <linearGradient id="paint32_linear_219_472" x1="28.4057" y1="4.81996" x2="52.4782" y2="36.0604" gradientUnits="userSpaceOnUse">
            <stop stop-color="#E3D47E"/>
            <stop offset="0.2" stop-color="#D4BA68"/>
            <stop offset="1" stop-color="#946326"/>
        </linearGradient>
        <linearGradient id="paint33_linear_219_472" x1="25.7126" y1="27.356" x2="31.6409" y2="33.3534" gradientUnits="userSpaceOnUse">
            <stop stop-color="#D4BA68" stop-opacity="0"/>
            <stop offset="0.65" stop-color="#916E31" stop-opacity="0.49"/>
            <stop offset="0.98" stop-color="#744D19" stop-opacity="0.7"/>
        </linearGradient>
        <linearGradient id="paint34_linear_219_472" x1="32.4557" y1="15.4405" x2="66.7346" y2="15.4405" gradientUnits="userSpaceOnUse">
            <stop stop-color="#D4BA68" stop-opacity="0"/>
            <stop offset="0.07" stop-color="#C8AC5E" stop-opacity="0.09"/>
            <stop offset="0.31" stop-color="#A38340" stop-opacity="0.35"/>
            <stop offset="0.55" stop-color="#89652A" stop-opacity="0.55"/>
            <stop offset="0.78" stop-color="#79531D" stop-opacity="0.66"/>
            <stop offset="0.98" stop-color="#744D19" stop-opacity="0.7"/>
        </linearGradient>
        <linearGradient id="paint35_linear_219_472" x1="20.0673" y1="41.3293" x2="67.3595" y2="52.8442" gradientUnits="userSpaceOnUse">
            <stop stop-color="#E4D47F"/>
            <stop offset="0.25" stop-color="#D4BA68"/>
            <stop offset="1" stop-color="#946326"/>
        </linearGradient>
        <linearGradient id="paint36_linear_219_472" x1="31.8239" y1="48.2796" x2="33.2844" y2="33.9921" gradientUnits="userSpaceOnUse">
            <stop stop-color="#D4BA68" stop-opacity="0"/>
            <stop offset="0.02" stop-color="#D0B564" stop-opacity="0.05"/>
            <stop offset="0.23" stop-color="#AF9049" stop-opacity="0.39"/>
            <stop offset="0.44" stop-color="#957334" stop-opacity="0.65"/>
            <stop offset="0.64" stop-color="#835E25" stop-opacity="0.85"/>
            <stop offset="0.83" stop-color="#78511C" stop-opacity="0.96"/>
            <stop offset="1" stop-color="#744D19"/>
        </linearGradient>
        <linearGradient id="paint37_linear_219_472" x1="19.3112" y1="53.8938" x2="56.0483" y2="51.2904" gradientUnits="userSpaceOnUse">
            <stop stop-color="#D4BA68" stop-opacity="0"/>
            <stop offset="0.06" stop-color="#DEC775" stop-opacity="0.16"/>
            <stop offset="0.13" stop-color="#E8D483" stop-opacity="0.31"/>
            <stop offset="0.2" stop-color="#F0DF8D" stop-opacity="0.44"/>
            <stop offset="0.27" stop-color="#F5E695" stop-opacity="0.53"/>
            <stop offset="0.33" stop-color="#F9EA99" stop-opacity="0.58"/>
            <stop offset="0.39" stop-color="#FAEC9B" stop-opacity="0.6"/>
            <stop offset="0.69" stop-color="#FAEC9B" stop-opacity="0.6"/>
            <stop offset="0.85" stop-color="#B6AA69" stop-opacity="0.46"/>
            <stop offset="1" stop-color="#6D6233" stop-opacity="0.3"/>
        </linearGradient>
        <linearGradient id="paint38_linear_219_472" x1="79.7479" y1="38.8606" x2="114.565" y2="43.2456" gradientUnits="userSpaceOnUse">
            <stop stop-color="#D4BA68" stop-opacity="0"/>
            <stop offset="0.04" stop-color="#D4BA68" stop-opacity="0.17"/>
            <stop offset="0.08" stop-color="#D4BA68" stop-opacity="0.31"/>
            <stop offset="0.12" stop-color="#D4BA68" stop-opacity="0.42"/>
            <stop offset="0.16" stop-color="#D4BA68" stop-opacity="0.48"/>
            <stop offset="0.2" stop-color="#D4BA68" stop-opacity="0.5"/>
            <stop offset="0.39" stop-color="#AE8F49" stop-opacity="0.66"/>
            <stop offset="0.71" stop-color="#835E25" stop-opacity="0.84"/>
            <stop offset="1" stop-color="#744D19" stop-opacity="0.9"/>
        </linearGradient>
        <linearGradient id="paint39_linear_219_472" x1="77.7833" y1="49.868" x2="100.948" y2="60.492" gradientUnits="userSpaceOnUse">
            <stop stop-color="#D4BA68" stop-opacity="0"/>
            <stop offset="0.06" stop-color="#DEC775" stop-opacity="0.16"/>
            <stop offset="0.13" stop-color="#E8D483" stop-opacity="0.31"/>
            <stop offset="0.2" stop-color="#F0DF8D" stop-opacity="0.44"/>
            <stop offset="0.27" stop-color="#F5E695" stop-opacity="0.53"/>
            <stop offset="0.33" stop-color="#F9EA99" stop-opacity="0.58"/>
            <stop offset="0.39" stop-color="#FAEC9B" stop-opacity="0.6"/>
            <stop offset="0.69" stop-color="#FAEC9B" stop-opacity="0.6"/>
            <stop offset="0.85" stop-color="#B6AA69" stop-opacity="0.46"/>
            <stop offset="1" stop-color="#6D6233" stop-opacity="0.3"/>
        </linearGradient>
        <radialGradient id="paint40_radial_219_472" cx="0" cy="0" r="1" gradientUnits="userSpaceOnUse" gradientTransform="translate(39.2231 7.70302) scale(0.0276226)">
            <stop stop-color="#474444"/>
            <stop offset="0.16" stop-color="#393435" stop-opacity="0.99"/>
            <stop offset="0.46" stop-color="#241E1F" stop-opacity="0.97"/>
            <stop offset="0.75" stop-color="#171112" stop-opacity="0.95"/>
            <stop offset="1" stop-color="#130C0E" stop-opacity="0.95"/>
        </radialGradient>
        <linearGradient id="paint41_linear_219_472" x1="41.3396" y1="8.6974" x2="41.243" y2="8.66633" gradientUnits="userSpaceOnUse">
            <stop stop-color="#D4BA68" stop-opacity="0"/>
            <stop offset="0.04" stop-color="#D4BA68" stop-opacity="0.17"/>
            <stop offset="0.08" stop-color="#D4BA68" stop-opacity="0.31"/>
            <stop offset="0.12" stop-color="#D4BA68" stop-opacity="0.42"/>
            <stop offset="0.16" stop-color="#D4BA68" stop-opacity="0.48"/>
            <stop offset="0.2" stop-color="#D4BA68" stop-opacity="0.5"/>
            <stop offset="0.39" stop-color="#AE8F49" stop-opacity="0.66"/>
            <stop offset="0.71" stop-color="#835E25" stop-opacity="0.84"/>
            <stop offset="1" stop-color="#744D19" stop-opacity="0.9"/>
        </linearGradient>
        <linearGradient id="paint42_linear_219_472" x1="105.623" y1="22.3771" x2="48.5835" y2="3.64947" gradientUnits="userSpaceOnUse">
            <stop stop-color="#D4BA68" stop-opacity="0"/>
            <stop offset="0.04" stop-color="#D4BA68" stop-opacity="0.17"/>
            <stop offset="0.08" stop-color="#D4BA68" stop-opacity="0.31"/>
            <stop offset="0.12" stop-color="#D4BA68" stop-opacity="0.42"/>
            <stop offset="0.16" stop-color="#D4BA68" stop-opacity="0.48"/>
            <stop offset="0.2" stop-color="#D4BA68" stop-opacity="0.5"/>
            <stop offset="0.39" stop-color="#AE8F49" stop-opacity="0.66"/>
            <stop offset="0.71" stop-color="#835E25" stop-opacity="0.84"/>
            <stop offset="1" stop-color="#744D19" stop-opacity="0.9"/>
        </linearGradient>
    </defs>
</svg>
