<svg width="16" height="16" viewBox="0 0 16 16" fill="none" xmlns="http://www.w3.org/2000/svg">
<path fill-rule="evenodd" clip-rule="evenodd" d="M7.99984 5.33334C7.63165 5.33334 7.33317 5.63182 7.33317 6.00001C7.33317 6.3682 7.63165 6.66668 7.99984 6.66668C8.36803 6.66668 8.6665 6.3682 8.6665 6.00001C8.6665 5.63182 8.36803 5.33334 7.99984 5.33334ZM5.99984 6.00001C5.99984 4.89544 6.89527 4.00001 7.99984 4.00001C9.10441 4.00001 9.99984 4.89544 9.99984 6.00001C9.99984 7.10458 9.10441 8.00001 7.99984 8.00001C6.89527 8.00001 5.99984 7.10458 5.99984 6.00001Z" fill="white"/>
<path fill-rule="evenodd" clip-rule="evenodd" d="M7.99984 2.66668C6.93661 2.66668 5.91839 3.08447 5.1688 3.82583C4.41945 4.56694 3.99984 5.57052 3.99984 6.6154C3.99984 8.4497 5.03845 10.1414 6.16717 11.4252C6.72308 12.0575 7.28076 12.5678 7.69966 12.92C7.81072 13.0134 7.91168 13.0953 7.99984 13.1652C8.088 13.0953 8.18895 13.0134 8.30001 12.92C8.71891 12.5678 9.27659 12.0575 9.8325 11.4252C10.9612 10.1414 11.9998 8.4497 11.9998 6.6154C11.9998 5.57052 11.5802 4.56694 10.8309 3.82583C10.0813 3.08447 9.06307 2.66668 7.99984 2.66668ZM7.99984 14C7.62036 14.5481 7.61999 14.5479 7.61999 14.5479L7.61822 14.5466L7.61438 14.544L7.60171 14.5351C7.59109 14.5276 7.57615 14.5169 7.55719 14.5032C7.51927 14.4759 7.46521 14.4362 7.39732 14.3849C7.26159 14.2823 7.0702 14.1327 6.84168 13.9406C6.38558 13.5572 5.77659 13.0002 5.16584 12.3056C3.96123 10.9355 2.6665 8.93493 2.6665 6.6154C2.6665 5.21212 3.23022 3.86782 4.23121 2.87782C5.23196 1.88807 6.58771 1.33334 7.99984 1.33334C9.41196 1.33334 10.7677 1.88807 11.7685 2.87782C12.7695 3.86782 13.3332 5.21212 13.3332 6.6154C13.3332 8.93493 12.0384 10.9355 10.8338 12.3056C10.2231 13.0002 9.6141 13.5572 9.158 13.9406C8.92947 14.1327 8.73808 14.2823 8.60236 14.3849C8.53447 14.4362 8.48041 14.4759 8.44249 14.5032C8.42352 14.5169 8.40859 14.5276 8.39796 14.5351L8.3853 14.544L8.38146 14.5466L8.38017 14.5475C8.38017 14.5475 8.37931 14.5481 7.99984 14ZM7.99984 14L8.37931 14.5481C8.15101 14.7062 7.84828 14.7059 7.61999 14.5479L7.99984 14Z" fill="white"/>
</svg>
