<svg width="60" height="60" viewBox="0 0 60 60" fill="none" xmlns="http://www.w3.org/2000/svg">
<path d="M30 1.87387C14.4781 1.87387 1.875 14.477 1.875 29.9989C1.875 45.5207 14.4781 58.1239 30 58.1239C45.5219 58.1239 58.125 45.5207 58.125 29.9989C58.125 25.6847 57.1488 21.5965 55.4095 17.9413L52.6172 20.7337C52.0899 21.264 51.371 21.5629 50.6232 21.5631H49.8468C50.9519 24.1553 51.5643 27.0059 51.5643 29.9989C51.5643 41.8964 41.8975 51.5631 30 51.5631C18.1025 51.5631 8.43567 41.8964 8.43567 29.9989C8.43567 18.1013 18.1025 8.43442 30 8.43442C32.9936 8.43442 35.8448 9.04646 38.4375 10.152V9.37561C38.4376 8.62783 38.7367 7.90891 39.267 7.38163L42.0575 4.58931C38.4022 2.85004 34.3141 1.87387 30 1.87387ZM47.7869 1.87387C47.5469 1.88102 47.3188 1.97985 47.1497 2.15015L40.589 8.7108C40.5014 8.79792 40.4319 8.90156 40.3844 9.01563C40.337 9.1297 40.3125 9.25195 40.3125 9.3755V15.5517L27.9327 27.9315C26.7979 29.0663 26.7979 30.9366 27.9327 32.0715C29.0676 33.2063 30.9324 33.2008 32.0673 32.0643L44.4452 19.6864H50.6232C50.7467 19.6864 50.869 19.6621 50.9831 19.6146C51.0972 19.5672 51.2007 19.4977 51.2878 19.4101L57.8485 12.8494C57.979 12.7181 58.0678 12.5511 58.1035 12.3694C58.1392 12.1877 58.1203 11.9995 58.0492 11.8285C57.9781 11.6575 57.858 11.5114 57.704 11.4086C57.55 11.3058 57.369 11.2509 57.1838 11.2509H52.8809L53.6279 10.5039C54.7628 9.36902 54.7682 7.50414 53.6336 6.36929C53.0662 5.80186 52.314 5.51785 51.5627 5.51785C50.8114 5.51785 50.061 5.80201 49.4936 6.36929L48.7483 7.11454V2.80609C48.7479 2.68125 48.7225 2.55776 48.6736 2.44287C48.6248 2.32798 48.5536 2.22405 48.464 2.13707C48.3745 2.05009 48.2685 1.98184 48.1522 1.93637C48.036 1.8909 47.9118 1.86909 47.787 1.87225L47.7869 1.87387ZM30 14.9952C21.7268 14.9952 14.9963 21.7257 14.9963 29.9989C14.9963 38.272 21.7268 44.9952 30 44.9952C38.2732 44.9952 44.9963 38.272 44.9963 29.9989C44.9963 27.612 44.4239 25.3611 43.429 23.3557L38.2928 28.4918C38.3818 28.9816 38.4357 29.4839 38.4357 29.9989C38.4357 34.6477 34.6488 38.4344 30 38.4344C25.3512 38.4344 21.5643 34.6477 21.5643 29.9989C21.5643 25.35 25.3512 21.5631 30 21.5631C30.515 21.5631 31.0171 21.617 31.507 21.7059L36.6449 16.568C34.6394 15.571 32.3884 14.9951 30 14.9951L30 14.9952Z" fill="url(#paint0_linear_40_9556)"/>
<defs>
<linearGradient id="paint0_linear_40_9556" x1="30" y1="1.87195" x2="30" y2="58.1239" gradientUnits="userSpaceOnUse">
<stop stop-color="#C07E04"/>
<stop offset="0.313021" stop-color="#FAED91"/>
<stop offset="0.635937" stop-color="#C9841D"/>
<stop offset="1" stop-color="#D69F3B"/>
</linearGradient>
</defs>
</svg>
