<svg width="34" height="36" viewBox="0 0 34 36" fill="none" xmlns="http://www.w3.org/2000/svg">
<path d="M34 30.1395H0V26.7907H1.7V15.1217C1.7 6.76967 8.551 0 17 0C25.449 0 32.3 6.76967 32.3 15.1217V26.7907H34V30.1395ZM5.1 26.7907H28.9V15.1217C28.9 8.61991 23.5722 3.34884 17 3.34884C10.4278 3.34884 5.1 8.61991 5.1 15.1217V26.7907ZM12.75 31.814H21.25C21.25 32.9242 20.8022 33.9889 20.0052 34.7739C19.2082 35.559 18.1272 36 17 36C15.8728 36 14.7918 35.559 13.9948 34.7739C13.1978 33.9889 12.75 32.9242 12.75 31.814V31.814Z" fill="#141313"/>
</svg>
