<svg width="22" height="21" viewBox="0 0 22 21" fill="none" xmlns="http://www.w3.org/2000/svg">
<path d="M5.82797 18.5362V18.0798H2.18496C1.60537 18.079 1.04979 17.8618 0.640153 17.4758C0.230517 17.0899 0.000295207 16.5667 1.35101e-05 16.0212V15.6731C-0.00151318 15.2383 0.126381 14.8118 0.369201 14.4419C0.612021 14.0721 0.960057 13.7736 1.37387 13.5804C1.56003 13.4938 1.71944 13.3636 1.83682 13.2023C1.95421 13.0411 2.02564 12.8542 2.04427 12.6595L2.47807 8.16916C2.61659 6.75605 3.31093 5.44261 4.42494 4.48635C5.53896 3.53009 6.99229 3 8.5 3C10.0077 3 11.461 3.53009 12.5751 4.48635C13.6891 5.44261 14.3834 6.75605 14.5219 8.16916L14.9557 12.6595C14.9738 12.8535 15.0445 13.04 15.1612 13.2009C15.2779 13.3618 15.4365 13.4918 15.6219 13.5784C16.0366 13.7715 16.3855 14.0701 16.6291 14.4403C16.8727 14.8105 17.0012 15.2376 17 15.6731V16.0212C16.9994 16.5666 16.7691 17.0894 16.3595 17.4752C15.9499 17.8609 15.3945 18.078 14.815 18.0788H11.171V18.5352C11.157 19.1934 10.8694 19.8202 10.3699 20.281C9.87044 20.7419 9.1989 21 8.49947 21C7.80005 21 7.1285 20.7419 6.62902 20.281C6.12954 19.8202 5.84194 19.1934 5.82797 18.5352V18.5362ZM7.28496 18.5362C7.28496 18.8394 7.41292 19.1302 7.64068 19.3445C7.86845 19.5589 8.17736 19.6794 8.49947 19.6794C8.82158 19.6794 9.1305 19.5589 9.35826 19.3445C9.58603 19.1302 9.71398 18.8394 9.71398 18.5362V18.0798H7.28602L7.28496 18.5362ZM3.92866 8.29356L3.49487 12.7839C3.45473 13.2112 3.29844 13.6216 3.04103 13.9756C2.78363 14.3297 2.43376 14.6154 2.02509 14.8053C1.85312 14.8851 1.7084 15.0088 1.6074 15.1622C1.50641 15.3156 1.45319 15.4926 1.4538 15.6731V16.0212C1.4538 16.203 1.53047 16.3774 1.66695 16.506C1.80344 16.6347 1.9886 16.7071 2.18177 16.7074H14.815C15.0083 16.7071 15.1936 16.6347 15.3302 16.5061C15.4669 16.3775 15.5438 16.2031 15.5441 16.0212V15.6731C15.5447 15.493 15.4917 15.3163 15.3911 15.1631C15.2905 15.01 15.1463 14.8863 14.9749 14.8063C14.5664 14.6158 14.2167 14.3298 13.9591 13.9757C13.7016 13.6216 13.5449 13.2113 13.5041 12.7839L13.0703 8.29356C12.9657 7.22043 12.4389 6.22282 11.5932 5.49645C10.7474 4.77008 9.64384 4.36739 8.49894 4.36739C7.35403 4.36739 6.25045 4.77008 5.40472 5.49645C4.55899 6.22282 4.03216 7.22043 3.92759 8.29356H3.92866Z" fill="#141124"/>
<g filter="url(#filter0_d_102_677)">
<circle cx="13.5" cy="4.5" r="4.5" fill="#FF0404"/>
</g>
<path d="M12.1739 6V5.3679L13.5002 4.20668C13.5997 4.11671 13.6843 4.03445 13.7541 3.95987C13.824 3.88411 13.8772 3.80836 13.9139 3.7326C13.9506 3.65566 13.969 3.57221 13.969 3.48224C13.969 3.38163 13.9471 3.29581 13.9033 3.22479C13.8595 3.15258 13.7991 3.09695 13.7222 3.05788C13.6452 3.01882 13.557 2.99929 13.4576 2.99929C13.357 2.99929 13.2688 3.02 13.193 3.06143C13.1173 3.10168 13.0581 3.16027 13.0155 3.23722C12.9741 3.31416 12.9533 3.40767 12.9533 3.51776H12.1206C12.1206 3.27036 12.1762 3.0567 12.2875 2.87678C12.3988 2.69685 12.555 2.55836 12.7563 2.46129C12.9587 2.36304 13.1936 2.31392 13.4612 2.31392C13.737 2.31392 13.9767 2.36009 14.1803 2.45241C14.3839 2.54474 14.5413 2.67377 14.6526 2.83949C14.765 3.00402 14.8212 3.19519 14.8212 3.413C14.8212 3.55149 14.7934 3.6888 14.7378 3.82493C14.6822 3.96106 14.5821 4.11139 14.4377 4.27592C14.2945 4.44046 14.0909 4.63755 13.8269 4.86719L13.3919 5.26847V5.29155H14.8656V6H12.1739Z" fill="white"/>
<defs>
<filter id="filter0_d_102_677" x="5" y="0" width="17" height="17" filterUnits="userSpaceOnUse" color-interpolation-filters="sRGB">
<feFlood flood-opacity="0" result="BackgroundImageFix"/>
<feColorMatrix in="SourceAlpha" type="matrix" values="0 0 0 0 0 0 0 0 0 0 0 0 0 0 0 0 0 0 127 0" result="hardAlpha"/>
<feOffset dy="4"/>
<feGaussianBlur stdDeviation="2"/>
<feComposite in2="hardAlpha" operator="out"/>
<feColorMatrix type="matrix" values="0 0 0 0 0 0 0 0 0 0 0 0 0 0 0 0 0 0 0.25 0"/>
<feBlend mode="normal" in2="BackgroundImageFix" result="effect1_dropShadow_102_677"/>
<feBlend mode="normal" in="SourceGraphic" in2="effect1_dropShadow_102_677" result="shape"/>
</filter>
</defs>
</svg>
