<svg width="12" height="12" viewBox="0 0 12 12" fill="none" xmlns="http://www.w3.org/2000/svg">
<path fill-rule="evenodd" clip-rule="evenodd" d="M1 2.44737C1 1.64801 1.64801 1 2.44737 1H3.82297C4.43632 1 4.98789 1.37343 5.21568 1.94291L5.74281 3.26074C5.94743 3.7723 5.85515 4.35485 5.50243 4.77811L5.21874 5.11854C5.05318 5.3172 5.06643 5.60933 5.24929 5.79219L6.20781 6.75071C6.39067 6.93357 6.6828 6.94682 6.88146 6.78126L7.22189 6.49757C7.64515 6.14485 8.22771 6.05257 8.73925 6.25719L10.0571 6.78432C10.6266 7.01211 11 7.56368 11 8.17703V9.55263C11 10.352 10.352 11 9.55263 11C4.82914 11 1 7.17086 1 2.44737ZM2.44737 2C2.20029 2 2 2.20029 2 2.44737C2 6.61857 5.38143 10 9.55263 10C9.79971 10 10 9.79971 10 9.55263V8.17703C10 7.97258 9.87552 7.78873 9.68569 7.71279L8.36786 7.18566C8.19735 7.11746 8.00316 7.14822 7.86208 7.26579L7.52164 7.54949C6.92565 8.04614 6.04928 8.00639 5.50071 7.45781L4.54219 6.49929C3.99361 5.95072 3.95386 5.07435 4.45051 4.47836L4.73421 4.13792C4.85178 3.99684 4.88254 3.80265 4.81434 3.63214L4.28721 2.3143C4.21127 2.12448 4.02742 2 3.82297 2H2.44737Z" fill="white"/>
</svg>
