<svg width="60" height="60" viewBox="0 0 60 60" fill="none" xmlns="http://www.w3.org/2000/svg">
<g clip-path="url(#clip0_40_6588)">
<path d="M59.6098 49.3612L53.5937 45.3348L54.5288 43.5485C54.6952 43.2307 54.6517 42.8436 54.4188 42.5707C54.3471 42.4864 52.7189 40.6086 49.0085 38.7083C50.3356 35.8192 51.4038 32.6598 52.2016 29.2558C54.6025 19.0123 53.7367 10.2169 53.6987 9.84752C53.656 9.4335 53.3288 9.1062 52.9148 9.06354C45.9216 8.34214 40.2217 6.00989 36.6718 4.18061C32.8128 2.19196 30.585 0.349315 30.5634 0.331385C30.2372 0.0588091 29.7625 0.0588091 29.4365 0.331385C29.3487 0.404744 20.5107 7.67863 7.085 9.06366C6.67098 9.10643 6.34379 9.43362 6.30114 9.84764C6.28403 10.0135 5.88829 13.973 6.33407 19.6796C6.37192 20.1633 6.79356 20.5254 7.27836 20.4871C7.76222 20.4494 8.12374 20.0265 8.08601 19.5428C7.75999 15.3685 7.90237 12.1018 7.99378 10.7304C14.951 9.89697 20.6135 7.5618 24.1839 5.71646C27.0939 4.21249 29.087 2.80965 29.9999 2.12129C30.9125 2.80965 32.9059 4.21249 35.8158 5.71646C39.3863 7.5618 45.0485 9.89686 52.0057 10.7304C52.1567 13.0084 52.4445 20.5194 50.4907 28.8551C49.6442 32.4662 48.4851 35.7862 47.0291 38.7829C46.9883 38.8668 46.9466 38.9495 46.9053 39.0327C46.8155 39.2144 46.7246 39.3949 46.6325 39.5742C46.5806 39.6753 46.5287 39.7762 46.4761 39.8765C46.3784 40.0627 46.2791 40.2472 46.179 40.4308C46.0955 40.5838 46.0109 40.7356 45.9258 40.8867C45.8494 41.0224 45.7726 41.1578 45.695 41.2918C45.6169 41.4266 45.5379 41.5606 45.4585 41.6938C45.4011 41.79 45.343 41.8852 45.285 41.9804C45.0975 42.2883 44.9069 42.5925 44.712 42.892C44.6977 42.9139 44.6838 42.9362 44.6695 42.9581C44.5681 43.1133 44.4653 43.2664 44.3619 43.4193C44.3176 43.4848 44.2731 43.5501 44.2283 43.6152C43.6176 44.5056 42.974 45.3569 42.2983 46.166C42.2944 46.1707 42.2905 46.1754 42.2867 46.18C42.1558 46.3366 42.0235 46.4912 41.8902 46.6447C41.7852 46.7653 41.6792 46.8843 41.5727 47.0032C41.5512 47.0271 41.53 47.0514 41.5086 47.0752C41.3882 47.2086 41.2669 47.3407 41.1446 47.4717C41.1384 47.4784 41.1322 47.4852 41.1258 47.4918C38.0244 50.808 34.2978 53.3679 30 55.1291C25.7921 53.4033 21.0813 50.4503 17.0857 45.4036C17.0729 45.3874 17.0602 45.3711 17.0474 45.3549C16.9669 45.2529 16.8871 45.1493 16.8073 45.0456C15.3498 43.1387 14.0563 41.0261 12.9455 38.7316C12.9196 38.678 12.8888 38.6283 12.8541 38.5826C10.8415 34.3947 9.27885 29.2844 8.45339 23.0454C8.38975 22.5644 7.94691 22.2258 7.46714 22.2897C6.98609 22.3533 6.64766 22.795 6.71129 23.2759C7.46867 29 8.90596 34.1735 10.9915 38.7083C7.28082 40.6089 5.65274 42.4867 5.58091 42.5708C5.34806 42.8437 5.30458 43.2308 5.47075 43.5486L6.4059 45.3349L0.389895 49.3613C0.135014 49.5321 -0.0125235 49.8233 0.000835786 50.1297C0.0141951 50.4361 0.186342 50.7134 0.455285 50.8614L5.37068 53.5649V58.9948C5.37068 59.3101 5.53978 59.6013 5.81364 59.7578C5.94876 59.8349 6.09899 59.8734 6.24934 59.8734C6.40379 59.8734 6.55836 59.8326 6.69606 59.7513L16.4589 53.9877C16.465 53.9841 16.4704 53.98 16.4763 53.9762C16.4863 53.97 16.496 53.9636 16.5057 53.957C16.5232 53.9452 16.5401 53.9328 16.5565 53.9199C16.5645 53.9135 16.5725 53.9073 16.5803 53.9008C16.6009 53.8833 16.6205 53.865 16.6392 53.846C16.6423 53.843 16.6454 53.8403 16.6484 53.8371C16.6711 53.8133 16.6922 53.7884 16.7119 53.7625C16.7125 53.7617 16.7133 53.761 16.714 53.76C16.7155 53.7579 16.7167 53.7556 16.7182 53.7535C16.7384 53.7262 16.7566 53.6979 16.7734 53.6686C16.7769 53.6624 16.7807 53.6563 16.7841 53.6501C16.8011 53.6187 16.8164 53.5866 16.8294 53.5535C16.8316 53.5479 16.8334 53.5422 16.8355 53.5364C16.8461 53.5078 16.8551 53.4788 16.8627 53.4494C16.8647 53.4415 16.8669 53.4338 16.8687 53.4259C16.8765 53.3916 16.8825 53.357 16.8863 53.3219C16.8867 53.3172 16.8868 53.3125 16.8872 53.3077C16.89 53.276 16.8909 53.2443 16.8902 53.2124C16.8901 53.2052 16.89 53.1979 16.8898 53.1906C16.8881 53.1546 16.8847 53.1185 16.8786 53.0827C16.8782 53.0802 16.8775 53.0778 16.877 53.0752C16.8711 53.0425 16.8629 53.0102 16.8532 52.9779C16.8506 52.9695 16.848 52.9612 16.8454 52.9528C16.8339 52.9185 16.821 52.8844 16.8049 52.851L15.6013 50.3394C16.3238 49.9792 17.1669 49.61 18.1372 49.2622C21.3804 52.5725 25.2374 55.1275 29.6755 56.8929C29.7799 56.9344 29.89 56.9551 30.0002 56.9551C30.1105 56.9551 30.2207 56.9344 30.325 56.8929C34.7552 55.1305 38.6183 52.5732 41.8636 49.2624C42.8338 49.6102 43.6769 49.9794 44.3992 50.3395L43.1956 52.8511C43.1795 52.8845 43.1666 52.9187 43.1551 52.9531C43.1523 52.9614 43.1498 52.9697 43.1473 52.9782C43.1376 53.0104 43.1294 53.0428 43.1235 53.0755C43.123 53.078 43.1223 53.0805 43.122 53.0829C43.1159 53.1188 43.1125 53.1549 43.1108 53.1909C43.1105 53.1982 43.1105 53.2055 43.1104 53.2128C43.1098 53.2446 43.1106 53.2764 43.1134 53.308C43.1139 53.3127 43.1139 53.3175 43.1144 53.3222C43.118 53.3573 43.1241 53.3919 43.1319 53.4262C43.1337 53.4341 43.1359 53.4419 43.138 53.4497C43.1455 53.4791 43.1546 53.5081 43.1651 53.5366C43.1672 53.5423 43.169 53.5482 43.1712 53.5539C43.1842 53.5869 43.1994 53.6189 43.2164 53.6502C43.2198 53.6566 43.2236 53.6628 43.2272 53.669C43.244 53.698 43.2621 53.7264 43.2822 53.7535C43.2838 53.7556 43.2849 53.758 43.2865 53.7601C43.2872 53.761 43.2879 53.7618 43.2886 53.7626C43.3083 53.7885 43.3294 53.8135 43.3521 53.8373C43.3551 53.8404 43.3582 53.8431 43.3613 53.8462C43.3799 53.8651 43.3996 53.8834 43.4202 53.9009C43.428 53.9074 43.436 53.9137 43.444 53.92C43.4604 53.9329 43.4773 53.9453 43.4948 53.9571C43.5045 53.9637 43.5142 53.9703 43.524 53.9764C43.53 53.9801 43.5354 53.9842 43.5415 53.9878L53.3042 59.7514C53.4419 59.8328 53.5962 59.8735 53.7509 59.8735C53.9012 59.8735 54.0515 59.835 54.1866 59.7579C54.4605 59.6014 54.6296 59.3102 54.6296 58.9949V53.5649L59.545 50.8614C59.8138 50.7135 59.9861 50.4363 59.9994 50.1297C60.0122 49.8231 59.8648 49.5319 59.6098 49.3612ZM7.12824 57.4554V53.0451C7.12812 52.7248 6.95363 52.4298 6.67285 52.2753L2.56828 50.0178L7.22597 46.9007L10.3163 52.8038C10.3333 52.8362 10.3523 52.8673 10.3729 52.8969C10.381 52.9086 10.3905 52.919 10.399 52.9301C10.4126 52.9478 10.426 52.9659 10.4409 52.9823C10.4556 52.9987 10.4718 53.0135 10.4876 53.0288C10.4976 53.0383 10.507 53.0484 10.5174 53.0573C10.5368 53.0743 10.5576 53.0897 10.5786 53.105C10.5862 53.1105 10.5936 53.1163 10.6013 53.1216C10.6247 53.1375 10.6492 53.1518 10.6742 53.1655C10.68 53.1687 10.6858 53.1721 10.6918 53.1752C10.7185 53.189 10.7459 53.2012 10.7741 53.2122C10.7788 53.2141 10.7835 53.2159 10.7883 53.2177C10.8175 53.2286 10.8473 53.2378 10.8777 53.2457C10.882 53.2467 10.8863 53.2478 10.8906 53.2487C10.9097 53.2533 10.9284 53.2592 10.9479 53.2625L13.4977 53.6952L7.12824 57.4554ZM13.0898 51.8436C13.1103 51.8286 13.1318 51.8132 13.153 51.798C13.1985 51.7653 13.2439 51.7327 13.2917 51.6992C13.321 51.6786 13.3523 51.6575 13.3825 51.6366C13.4315 51.6029 13.48 51.5692 13.5312 51.5347C13.5621 51.5139 13.5951 51.4925 13.6269 51.4714C13.6807 51.4356 13.7339 51.4002 13.7902 51.3638C13.8103 51.3508 13.8321 51.3374 13.8526 51.3243C13.9159 51.2838 13.9798 51.2432 14.046 51.202C14.051 51.1988 14.0565 51.1956 14.0616 51.1925L14.4872 52.0806L13.0898 51.8436ZM14.0137 49.1862C14.0112 49.1876 14.0085 49.1883 14.006 49.1898C13.9985 49.1939 13.9914 49.198 13.9839 49.2022C13.9838 49.2022 13.9838 49.2022 13.9837 49.2023C13.9807 49.2039 13.9779 49.2056 13.9749 49.2072C13.9376 49.2278 13.9012 49.2483 13.8646 49.269C13.7965 49.3072 13.7298 49.3453 13.6641 49.3832C13.6249 49.4058 13.5857 49.4283 13.5474 49.4508C13.543 49.4534 13.5388 49.4559 13.5345 49.4585C13.5285 49.462 13.5228 49.4655 13.5168 49.4689C13.4112 49.531 13.309 49.5924 13.2092 49.6536C13.1938 49.663 13.1779 49.6726 13.1626 49.6819C13.1021 49.7193 13.0431 49.7562 12.9846 49.7931C12.9721 49.801 12.9599 49.8088 12.9475 49.8167C12.946 49.8176 12.9446 49.8186 12.943 49.8195C12.2673 50.249 11.7355 50.647 11.3409 50.9726L8.46628 45.4819L7.32418 43.2996C7.9639 42.696 9.38373 41.5099 11.7582 40.2899C11.8492 40.4681 11.9413 40.6452 12.0346 40.8213C12.082 40.9108 12.1304 40.9991 12.1783 41.0881C12.2996 41.3131 12.4223 41.5366 12.5472 41.758C12.575 41.8074 12.6013 41.858 12.6292 41.9071C13.5679 43.5565 14.603 45.0949 15.7296 46.5233C15.7556 46.5563 15.7817 46.5894 15.8078 46.6223C15.8993 46.7375 15.9913 46.8521 16.0841 46.9658C16.1318 47.0243 16.1798 47.0823 16.2278 47.1404C16.3095 47.2392 16.3909 47.3381 16.4733 47.4357C16.5962 47.5815 16.7201 47.7259 16.845 47.8689C15.7488 48.2961 14.8103 48.7473 14.0137 49.1862ZM43.1554 47.8688C43.1569 47.8665 43.1589 47.8641 43.1609 47.8619C43.2367 47.7753 43.3112 47.6873 43.386 47.5999C43.4316 47.5466 43.4775 47.4939 43.5229 47.4404C43.6374 47.305 43.7506 47.1684 43.8633 47.0311C43.8672 47.0264 43.871 47.0218 43.8748 47.0171C44.425 46.3454 44.9544 45.6488 45.4614 44.9265C45.5286 44.8306 45.5933 44.7321 45.6597 44.6354C45.7404 44.518 45.821 44.4006 45.9005 44.2819C45.9897 44.1487 46.078 44.0148 46.1657 43.88C46.2365 43.7715 46.3063 43.6621 46.376 43.5525C46.4923 43.37 46.6072 43.1866 46.7209 43.0014C46.7979 42.8759 46.8742 42.7498 46.9499 42.6231C47.0387 42.4745 47.1268 42.3254 47.2139 42.1751C47.3119 42.0062 47.4087 41.8364 47.5045 41.6654C47.5571 41.5713 47.6101 41.4776 47.6621 41.3828C47.7876 41.1546 47.9109 40.9242 48.0327 40.6923C48.0741 40.6135 48.1151 40.5344 48.1561 40.4551C48.1846 40.4001 48.2136 40.3454 48.2419 40.2901C50.5995 41.5034 52.0298 42.6962 52.6748 43.3017L48.6589 50.9726C48.2641 50.647 47.7323 50.2489 47.0564 49.8194C47.055 49.8185 47.0537 49.8176 47.0523 49.8167C47.04 49.8088 47.0277 49.801 47.0153 49.7931C46.9569 49.7562 46.898 49.7193 46.8375 49.6821C46.8184 49.6703 46.7984 49.6583 46.779 49.6465C46.6829 49.5877 46.5846 49.5287 46.4831 49.4689C46.4771 49.4654 46.4714 49.4619 46.4654 49.4585C46.4611 49.4559 46.4569 49.4534 46.4525 49.4508C46.4142 49.4283 46.3748 49.4058 46.3358 49.3832C46.27 49.3453 46.2033 49.3073 46.1353 49.269C46.0988 49.2485 46.0622 49.2278 46.025 49.2072C46.0221 49.2056 46.0193 49.2039 46.0163 49.2023C46.0161 49.2023 46.0161 49.2022 46.0161 49.2022C46.0086 49.1981 46.0015 49.194 45.994 49.1898C45.9915 49.1883 45.9888 49.1875 45.9864 49.1861C45.19 48.7474 44.2515 48.2961 43.1554 47.8688ZM45.7651 51.5549L45.9388 51.1927C45.944 51.1959 45.9493 51.1991 45.9545 51.2023C46.0206 51.2433 46.084 51.2838 46.1469 51.3241C46.1677 51.3373 46.1898 51.3509 46.2103 51.3641C46.2668 51.4006 46.3201 51.4362 46.374 51.4721C46.4055 51.4929 46.4384 51.5143 46.4691 51.5349C46.5204 51.5695 46.569 51.6032 46.6181 51.6371C46.6484 51.6579 46.6795 51.679 46.7088 51.6997C46.7557 51.7326 46.8002 51.7645 46.8449 51.7966C46.8669 51.8124 46.8894 51.8284 46.9109 51.844L45.5136 52.0812L45.7651 51.5549ZM53.3271 52.2753C53.0464 52.4297 52.8718 52.7248 52.8718 53.0452V57.4555L46.5025 53.6951L49.0522 53.2623C49.0615 53.2608 49.0703 53.2576 49.0794 53.2558C49.1011 53.2513 49.1225 53.2463 49.1437 53.2403C49.1591 53.236 49.1743 53.2313 49.1893 53.2261C49.2097 53.2191 49.2297 53.2114 49.2494 53.2028C49.2641 53.1966 49.2786 53.1903 49.2929 53.1832C49.3122 53.1737 49.3309 53.1632 49.3494 53.1523C49.3629 53.1444 49.3763 53.1368 49.3892 53.1283C49.4078 53.116 49.4253 53.1025 49.4429 53.0889C49.4545 53.0799 49.4665 53.0714 49.4775 53.0618C49.4958 53.0461 49.5128 53.029 49.5297 53.0118C49.5388 53.0027 49.5484 52.9942 49.5569 52.9846C49.5767 52.9627 49.595 52.9391 49.6126 52.9151C49.6171 52.909 49.6222 52.9036 49.6264 52.8974C49.6473 52.8675 49.6664 52.8361 49.6835 52.8034L52.7739 46.9004L57.4315 50.0174L53.3271 52.2753Z" fill="url(#paint0_linear_40_6588)"/>
<path d="M48.2614 14.279C48.2188 13.865 47.8916 13.5378 47.4775 13.495C37.3413 12.4494 30.6295 6.94547 30.5635 6.89051C30.2378 6.61828 29.7634 6.61828 29.4371 6.89004C29.3706 6.94558 22.6588 12.4495 12.5224 13.495C12.1084 13.5378 11.7812 13.865 11.7386 14.279C11.7218 14.4419 11.3349 18.3291 11.9385 23.6367C12.4978 28.5535 14.0565 35.6439 18.3054 41.5003C18.4772 41.7371 18.7454 41.863 19.0171 41.863C19.196 41.863 19.3766 41.8085 19.5324 41.6954C19.9251 41.4104 20.0126 40.8609 19.7275 40.4682C15.7119 34.9331 14.2275 28.1751 13.6893 23.4805C13.2479 19.631 13.3528 16.4983 13.4341 15.1597C22.1335 14.078 28.18 10.0346 29.9999 8.67784C31.8199 10.0347 37.8658 14.0784 46.5662 15.1597C46.6263 16.1379 46.6991 18.0751 46.5596 20.5546C46.5324 21.0391 46.9031 21.4539 47.3876 21.4811C47.8734 21.5073 48.2871 21.1379 48.3141 20.6534C48.5248 16.9046 48.2723 14.3846 48.2614 14.279Z" fill="url(#paint1_linear_40_6588)"/>
<path d="M47.2235 23.2929C46.7425 23.232 46.3025 23.5728 46.2415 24.0542C44.2858 39.5075 36.4041 45.9164 29.9998 48.5689C26.9051 47.2884 24.1911 45.4505 21.9293 43.1026C21.5929 42.7533 21.0365 42.7426 20.687 43.0794C20.3376 43.4161 20.3271 43.9724 20.6638 44.3218C23.1793 46.9329 26.2112 48.9555 29.6754 50.3335C29.7798 50.375 29.8898 50.3957 30.0001 50.3957C30.1103 50.3957 30.2205 50.375 30.3248 50.3335C35.9894 48.0801 40.4228 44.1568 43.5017 38.6726C45.7814 34.6122 47.2895 29.7682 47.9848 24.2748C48.0457 23.7936 47.7047 23.3539 47.2235 23.2929Z" fill="url(#paint2_linear_40_6588)"/>
<path d="M39.8245 21.1598C38.6245 19.9599 36.6724 19.9602 35.4725 21.1599L27.6466 28.9858L24.8217 26.1607C23.6217 24.9609 21.6696 24.961 20.4696 26.1609C19.2699 27.3609 19.2699 29.3131 20.4696 30.5129L25.4708 35.514C26.0518 36.0952 26.8247 36.4152 27.6466 36.4152C28.4688 36.4152 29.2415 36.095 29.8227 35.5139L39.8246 25.512C41.0244 24.3121 41.0244 22.3598 39.8245 21.1598ZM38.5822 24.2695L28.5802 34.2713C28.331 34.5206 27.9995 34.6579 27.6469 34.6579C27.2942 34.6579 26.9627 34.5206 26.7135 34.2713L21.7125 29.2704C21.1977 28.7556 21.1977 27.9182 21.7123 27.4034C21.9696 27.1461 22.3077 27.0174 22.6459 27.0174C22.9839 27.0174 23.322 27.1462 23.5793 27.4034L27.0254 30.8497C27.1903 31.0146 27.4136 31.1071 27.6467 31.1071C27.8797 31.1071 28.1032 31.0145 28.2681 30.8497L36.7151 22.4026C37.23 21.8877 38.0673 21.8875 38.5822 22.4023C39.0969 22.9173 39.0969 23.7548 38.5822 24.2695Z" fill="url(#paint3_linear_40_6588)"/>
</g>
<defs>
<linearGradient id="paint0_linear_40_6588" x1="30.0001" y1="0.126953" x2="30.0001" y2="59.8735" gradientUnits="userSpaceOnUse">
<stop stop-color="#C07E04"/>
<stop offset="0.313021" stop-color="#FAED91"/>
<stop offset="0.635937" stop-color="#C9841D"/>
<stop offset="1" stop-color="#D69F3B"/>
</linearGradient>
<linearGradient id="paint1_linear_40_6588" x1="29.9994" y1="6.68628" x2="29.9994" y2="41.863" gradientUnits="userSpaceOnUse">
<stop stop-color="#C07E04"/>
<stop offset="0.313021" stop-color="#FAED91"/>
<stop offset="0.635937" stop-color="#C9841D"/>
<stop offset="1" stop-color="#D69F3B"/>
</linearGradient>
<linearGradient id="paint2_linear_40_6588" x1="34.2049" y1="23.2859" x2="34.2049" y2="50.3957" gradientUnits="userSpaceOnUse">
<stop stop-color="#C07E04"/>
<stop offset="0.313021" stop-color="#FAED91"/>
<stop offset="0.635937" stop-color="#C9841D"/>
<stop offset="1" stop-color="#D69F3B"/>
</linearGradient>
<linearGradient id="paint3_linear_40_6588" x1="30.1471" y1="20.26" x2="30.1471" y2="36.4152" gradientUnits="userSpaceOnUse">
<stop stop-color="#C07E04"/>
<stop offset="0.313021" stop-color="#FAED91"/>
<stop offset="0.635937" stop-color="#C9841D"/>
<stop offset="1" stop-color="#D69F3B"/>
</linearGradient>
<clipPath id="clip0_40_6588">
<rect width="60" height="60" fill="white"/>
</clipPath>
</defs>
</svg>
