<svg width="60" height="60" viewBox="0 0 60 60" fill="none" xmlns="http://www.w3.org/2000/svg">
<g clip-path="url(#clip0_40_6603)">
<path d="M9.63563 9.64436C6.73791 12.5421 5.14209 16.3948 5.14209 20.4927C5.14209 24.5908 6.73791 28.4434 9.63563 31.3412C12.5335 34.2389 16.3861 35.8347 20.4841 35.8347C24.5821 35.8347 28.4348 34.2389 31.3324 31.3412C34.2302 28.4433 35.826 24.5907 35.826 20.4927C35.826 16.3947 34.2302 12.542 31.3324 9.64436C25.3507 3.66282 15.6176 3.66282 9.63563 9.64436ZM29.6751 29.6838C24.6072 34.7515 16.361 34.7517 11.293 29.6838C6.22496 24.6159 6.22496 16.3697 11.293 11.3017C13.8273 8.7674 17.1551 7.50066 20.4841 7.50066C23.8121 7.50066 27.1415 8.76799 29.6751 11.3017C34.7431 16.3697 34.7431 24.6159 29.6751 29.6838Z" fill="url(#paint0_linear_40_6603)"/>
<path d="M37.4759 14.126C37.7218 14.7157 38.4153 15.0039 39.0064 14.76C39.5964 14.5164 39.885 13.8189 39.6404 13.2294C39.3956 12.6397 38.7 12.3509 38.1098 12.5954C37.5209 12.8394 37.2309 13.5371 37.4759 14.126Z" fill="url(#paint1_linear_40_6603)"/>
<path d="M58.3694 50.4919L45.4646 37.5868C45.381 37.5034 45.2819 37.4316 45.1779 37.3763L40.2811 34.7666L37.4656 31.9511C40.0878 28.0715 41.3152 23.3856 40.882 18.6258C40.8233 17.9811 40.2514 17.5052 39.6087 17.5648C38.9642 17.6235 38.4892 18.1936 38.5478 18.8381C39.5011 29.3134 31.0052 38.6328 20.4837 38.6328C15.6383 38.6328 11.083 36.7458 7.65682 33.3197C4.23068 29.8935 2.34386 25.3384 2.34386 20.493C2.34386 15.6477 4.23079 11.0922 7.65694 7.66597C11.0831 4.23971 15.6384 2.35278 20.4839 2.35278C25.3293 2.35278 29.8846 4.23971 33.3108 7.66597C33.9832 8.33831 34.6077 9.06912 35.1672 9.83791C35.5481 10.3613 36.2812 10.4766 36.8044 10.096C37.3278 9.71521 37.4432 8.98217 37.0625 8.45878C36.4314 7.59155 35.7268 6.76698 34.9682 6.00851C31.0992 2.13961 25.9554 0.0090332 20.4839 0.0090332C15.0123 0.0090332 9.86837 2.13961 5.99947 6.00862C2.13057 9.87764 0 15.0215 0 20.493C0 25.9645 2.13069 31.1084 5.99947 34.9774C9.86849 38.8463 15.0123 40.9769 20.4839 40.9769C24.585 40.9769 28.5022 39.7797 31.8365 37.5507L34.6756 40.3898L37.3844 45.2182C37.4361 45.3101 37.5032 45.399 37.5778 45.4736L50.4825 58.3786C52.6327 60.5288 56.2191 60.5286 58.3693 58.3786C60.5435 56.2041 60.5435 52.6663 58.3694 50.4919ZM33.7791 36.0767C34.5852 35.3872 35.3394 34.6357 36.0308 33.8311L37.9176 35.7179L35.6181 38.0175L33.7246 36.124C33.7429 36.1084 33.7608 36.0924 33.7791 36.0767ZM39.7901 37.1609L42.6883 38.7055L38.6715 42.7221L37.0749 39.8761L39.7901 37.1609ZM56.7117 56.7212C55.4657 57.9672 53.3859 57.9672 52.1399 56.7211L40.0639 44.6448L44.6361 40.0728L56.712 52.1494C57.9724 53.4098 57.9723 55.4607 56.7117 56.7212Z" fill="url(#paint2_linear_40_6603)"/>
<path d="M22.6993 25.1956H21.8908V17.8221C21.8908 17.1749 21.366 16.6501 20.7189 16.6501H18.8082C18.161 16.6501 17.6362 17.1749 17.6362 17.8221C17.6362 18.4692 18.161 18.994 18.8082 18.994H19.5469V25.1956H18.8082C18.161 25.1956 17.6362 25.7204 17.6362 26.3676C17.6362 27.0147 18.161 27.5395 18.8082 27.5395H22.6993C23.3465 27.5395 23.8713 27.0147 23.8713 26.3676C23.8713 25.7204 23.3466 25.1956 22.6993 25.1956Z" fill="url(#paint3_linear_40_6603)"/>
<path d="M19.6367 14.1259C19.8825 14.7152 20.576 15.0052 21.1673 14.7599C21.7565 14.5156 22.0461 13.8191 21.8013 13.2293C21.5565 12.6394 20.8606 12.3517 20.2707 12.5953C19.6812 12.8388 19.3914 13.5369 19.6367 14.1259Z" fill="url(#paint4_linear_40_6603)"/>
</g>
<defs>
<linearGradient id="paint0_linear_40_6603" x1="20.484" y1="5.1582" x2="20.484" y2="35.8347" gradientUnits="userSpaceOnUse">
<stop stop-color="#C07E04"/>
<stop offset="0.313021" stop-color="#FAED91"/>
<stop offset="0.635937" stop-color="#C9841D"/>
<stop offset="1" stop-color="#D69F3B"/>
</linearGradient>
<linearGradient id="paint1_linear_40_6603" x1="38.5581" y1="12.5083" x2="38.5581" y2="14.8468" gradientUnits="userSpaceOnUse">
<stop stop-color="#C07E04"/>
<stop offset="0.313021" stop-color="#FAED91"/>
<stop offset="0.635937" stop-color="#C9841D"/>
<stop offset="1" stop-color="#D69F3B"/>
</linearGradient>
<linearGradient id="paint2_linear_40_6603" x1="30" y1="0.0090332" x2="30" y2="59.9912" gradientUnits="userSpaceOnUse">
<stop stop-color="#C07E04"/>
<stop offset="0.313021" stop-color="#FAED91"/>
<stop offset="0.635937" stop-color="#C9841D"/>
<stop offset="1" stop-color="#D69F3B"/>
</linearGradient>
<linearGradient id="paint3_linear_40_6603" x1="20.7537" y1="16.6501" x2="20.7537" y2="27.5395" gradientUnits="userSpaceOnUse">
<stop stop-color="#C07E04"/>
<stop offset="0.313021" stop-color="#FAED91"/>
<stop offset="0.635937" stop-color="#C9841D"/>
<stop offset="1" stop-color="#D69F3B"/>
</linearGradient>
<linearGradient id="paint4_linear_40_6603" x1="20.7189" y1="12.5085" x2="20.7189" y2="14.8473" gradientUnits="userSpaceOnUse">
<stop stop-color="#C07E04"/>
<stop offset="0.313021" stop-color="#FAED91"/>
<stop offset="0.635937" stop-color="#C9841D"/>
<stop offset="1" stop-color="#D69F3B"/>
</linearGradient>
<clipPath id="clip0_40_6603">
<rect width="60" height="60" fill="white"/>
</clipPath>
</defs>
</svg>

