<svg width="24" height="23" viewBox="0 0 24 23" fill="none" xmlns="http://www.w3.org/2000/svg">
<path d="M1.4384 23C0.201596 23 -0.343619 22.1016 0.225768 21.0038L10.7064 0.823423C11.2758 -0.274394 12.2091 -0.274394 12.7792 0.823423L23.2598 21.0038C23.8305 22.1016 23.2846 23 22.0471 23H1.4384Z" fill="#FFCC4D"/>
<path d="M10.2452 6.65694C10.2452 5.78271 10.8905 5.24153 11.7439 5.24153C12.5771 5.24153 13.2432 5.80353 13.2432 6.65694V14.6727C13.2432 15.5261 12.5771 16.0881 11.7439 16.0881C10.8905 16.0881 10.2452 15.5462 10.2452 14.6727V6.65694ZM10.1196 18.9397C10.1203 18.5092 10.2917 18.0966 10.5962 17.7922C10.9006 17.4879 11.3134 17.3167 11.7439 17.3162C12.1744 17.3167 12.5871 17.4879 12.8915 17.7922C13.196 18.0966 13.3674 18.5092 13.3681 18.9397C13.3676 19.3703 13.1963 19.7832 12.8918 20.0876C12.5873 20.3921 12.1745 20.5634 11.7439 20.564C11.3133 20.5634 10.9004 20.3921 10.5959 20.0876C10.2915 19.7832 10.1202 19.3703 10.1196 18.9397Z" fill="#231F20"/>
</svg>
