<svg width="137" height="137" viewBox="0 0 137 137" fill="none" xmlns="http://www.w3.org/2000/svg">
	<path fill-rule="evenodd" clip-rule="evenodd" d="M43.7612 125.583H93.2332C112.586 125.583 125.583 112.008 125.583 91.8087V45.1913C125.583 24.9917 112.586 11.4167 93.239 11.4167H43.7612C24.414 11.4167 11.4167 24.9917 11.4167 45.1913V91.8087C11.4167 112.008 24.414 125.583 43.7612 125.583ZM48.5144 62.7917C40.6446 62.7917 34.2501 56.3885 34.2501 48.5209C34.2501 40.6532 40.6446 34.25 48.5144 34.25C56.3784 34.25 62.7787 40.6532 62.7787 48.5209C62.7787 56.3885 56.3784 62.7917 48.5144 62.7917ZM113.144 85.248C115.055 90.1493 114.062 96.0402 112.019 100.894C109.596 106.667 104.958 111.039 99.1149 112.947C96.5204 113.796 93.7995 114.167 91.0844 114.167H42.9761C38.1888 114.167 33.9526 113.018 30.4797 110.88C28.3042 109.536 27.9196 106.438 29.5326 104.429C32.2305 101.071 34.8939 97.7015 37.5803 94.3024C42.7006 87.7988 46.1504 85.9137 49.9848 87.569C51.5404 88.2524 53.1017 89.2774 54.709 90.3613C58.9912 93.2715 64.9437 97.2714 72.7848 92.9298C78.1506 89.9245 81.2628 84.7695 83.973 80.2804L84.0183 80.2053C84.2099 79.8911 84.3998 79.5769 84.5892 79.2636L84.5904 79.2615C85.5013 77.7544 86.3999 76.2675 87.4165 74.8976C88.6908 73.1833 93.4149 67.8226 99.534 71.6399C103.432 74.0434 106.709 77.2952 110.216 80.7768C111.554 82.1081 112.507 83.6221 113.144 85.248Z" fill="#4F4F4F" />
</svg>
