<svg width="24" height="24" viewBox="0 0 24 24" fill="none" xmlns="http://www.w3.org/2000/svg">
  <path d="M2 20H22" stroke="white" stroke-width="2" stroke-linecap="round" stroke-linejoin="round"/>
  <path d="M7 10H11" stroke="white" stroke-width="2" stroke-linecap="round" stroke-linejoin="round"/>
  <path d="M20 20V21C20.5523 21 21 20.5523 21 20H20ZM14 20H13C13 20.5523 13.4477 21 14 21V20ZM15 10H19V8H15V10ZM19 10V20H21V10H19ZM20 19H14V21H20V19ZM15 20V10H13V20H15ZM19 10H21C21 8.89543 20.1046 8 19 8V10ZM15 8C13.8954 8 13 8.89543 13 10H15V10V8Z" fill="white"/>
  <path d="M7 7L11 7" stroke="white" stroke-width="2" stroke-linecap="round" stroke-linejoin="round"/>
  <path d="M14 20V21C14.5523 21 15 20.5523 15 20H14ZM4 20H3C3 20.5523 3.44772 21 4 21V20ZM5 4H13V2H5V4ZM13 4V20H15V4H13ZM14 19H4V21H14V19ZM5 20V4H3V20H5ZM13 4H15C15 2.89543 14.1046 2 13 2V4ZM5 2C3.89543 2 3 2.89543 3 4H5V4V2Z" fill="white"/>
</svg>
