<svg width="24" height="24" viewBox="0 0 24 24" fill="none" xmlns="http://www.w3.org/2000/svg">
  <path d="M10.9433 16.0491C10.5053 15.7928 10.0904 15.6021 9.74768 15.3364C9.26389 14.9607 9.03937 14.4443 9.00183 13.8704C8.9782 13.5066 9.18465 13.2703 9.52108 13.2522C9.85264 13.2347 10.0751 13.4453 10.1119 13.8129C10.1779 14.4687 10.7083 14.9551 11.402 14.9976C12.0895 15.0395 12.6921 14.6325 12.8541 14.0167C13.0564 13.2478 12.4064 12.532 11.4778 12.5014C10.2871 12.462 9.31602 11.7631 9.06439 10.7641C8.78149 9.64133 9.45365 8.52858 10.6548 8.13161C10.7417 8.10285 10.8293 8.07785 10.9426 8.04284C10.9426 7.93281 10.9426 7.81966 10.9426 7.70714C10.9439 7.23203 11.1337 6.99447 11.5077 7.0001C11.8768 7.0051 12.0547 7.23953 12.0561 7.72276C12.0561 7.82654 12.0561 7.92969 12.0561 7.93969C12.5142 8.21725 12.9451 8.42355 13.2996 8.70737C13.7563 9.0737 13.9614 9.57819 13.9975 10.1283C14.0212 10.4903 13.8126 10.7297 13.479 10.7478C13.1488 10.766 12.9243 10.5534 12.8875 10.1871C12.8214 9.53068 12.2924 9.04494 11.5973 9.00243C10.9106 8.96055 10.3065 9.36814 10.1446 9.98266C9.94161 10.7516 10.5915 11.4674 11.5202 11.4986C12.6977 11.538 13.6653 12.2238 13.928 13.2047C14.2304 14.3337 13.5568 15.4671 12.3446 15.8684C12.2577 15.8972 12.1701 15.9228 12.0561 15.9578C12.0561 16.0672 12.0561 16.1797 12.0561 16.2922C12.0547 16.7642 11.8622 17.0055 11.4903 16.9999C11.1288 16.9943 10.9439 16.7605 10.9426 16.3079C10.9426 16.1941 10.9433 16.0803 10.9433 16.0491Z" fill="white"/>
  <path fill-rule="evenodd" clip-rule="evenodd" d="M12 22C17.5228 22 22 17.5228 22 12C22 6.47715 17.5228 2 12 2C6.47715 2 2 6.47715 2 12C2 17.5228 6.47715 22 12 22ZM12 20C16.4183 20 20 16.4183 20 12C20 7.58172 16.4183 4 12 4C7.58172 4 4 7.58172 4 12C4 16.4183 7.58172 20 12 20Z" fill="white"/>
</svg>
