<svg width="60" height="60" viewBox="0 0 60 60" fill="none" xmlns="http://www.w3.org/2000/svg">
  <path d="M28 16.3332C26.6667 9.83317 27.6667 3.1665 27.6667 3.1665L31.5 3.49984C32 3.49984 32.5 3.83317 32.8333 4.33317C33.6667 5.99984 36.5 9.49984 43.5 10.3332C52.5 11.4998 29.3333 22.8332 28 16.3332Z" fill="#EF7B56"/>
  <path d="M54.6667 14.9997C54.1667 20.333 52.5 37.333 49.6667 41.833C44.8333 49.4997 33.8333 55.4997 31.6667 56.4997C31.3333 56.6663 31.1667 56.6663 30.8333 56.6663L27.5 56.4997C27.8333 55.9997 48 16.1663 50.6667 10.833C50.6667 10.833 53.1667 12.6663 53.8333 13.1663C54.5 13.6663 54.8333 14.333 54.6667 14.9997Z" fill="#F3A250"/>
  <path d="M50.3333 40.8332C47.5 46.8332 37.8333 53.3332 31.6667 56.6665C31.3333 56.8332 31.1667 56.8332 30.8333 56.8332L27.5 56.6665L37.1667 37.6665L50.3333 40.8332Z" fill="#E86A49"/>
  <path d="M51 11.6665C50.6667 18.9998 49.1667 33.9998 46.1667 40.1665C41.1667 49.9998 27.5 56.4998 27.5 56.4998C27.5 56.4998 11.6667 47.1665 7.5 36.8332C5 27.6665 5.16667 16.6665 5.33333 12.3332C5.33333 11.3332 6.16667 10.6665 7.16667 10.8332H7.5C11.1667 11.1665 19.5 10.9998 26.6667 3.6665C27.1667 3.1665 28 3.1665 28.5 3.6665C33.3333 9.33317 42.3333 10.8332 50 10.4998C50.5 10.4998 51.1667 10.9998 51 11.6665Z" fill="#F9CF6B"/>
  <path d="M42.6667 10.3332C33.3333 20.3332 13.5 20.4998 7.5 10.8332C11.1667 11.1665 19.5 10.9998 26.6667 3.6665C27.1667 3.1665 28 3.1665 28.5 3.6665C30.1667 5.49984 34.1667 9.1665 42.6667 10.3332Z" fill="#FFDD95"/>
  <path d="M44.6667 17.1667C44.3333 21.3333 42.8333 34 40.6667 37.5C38 42 31.6667 46 27.6667 48C27.3333 48.1667 27 48.3333 26.6667 48.3333C22.5 45.1667 17.6667 40.5 15.6667 35.8333C14 30 13.6667 22.5 13.6667 17.8333C13.6667 17.1667 14.1667 16.6667 14.8333 16.6667C25 16.1667 29.5 11.6667 30.1667 11.5C33 13.6667 37.1667 15.5 43.5 16C44.1667 16 44.6667 16.5 44.6667 17.1667Z" fill="#F3A250"/>
  <path d="M36 27.1664C35.5 27.4997 33.5 28.6664 31.6667 29.1664C33.5 29.4997 34.1667 28.9997 34.5 29.1664C37 30.9997 36.6667 33.4997 34.8333 35.333C33 37.1664 31 37.333 29.8333 36.4997C29.5 36.1664 28.5 35.1664 27.8333 33.4997C27.1667 35.333 26.8333 35.9997 26.3333 36.4997C25.3333 37.4997 22.1667 36.1664 20.6667 34.6664C18.1667 32.1664 20.6667 32.6664 21.6667 31.6664C22 31.333 23.3333 30.6664 24.8333 29.9997L25.8333 29.833L24.8333 24.833L22.3333 25.1664C23.3333 23.833 24.6667 22.9997 24.5 22.9997C25.3333 21.9997 26.1667 21.4997 26.1667 21.4997C26.1667 21.4997 27.1667 22.333 27.6667 22.9997C28 23.333 28.6667 24.9997 29 26.6664C29.5 24.9997 30.6667 22.9997 31 22.6664C32 21.6664 32 19.833 33.3333 20.6664C33.5 20.833 35.3333 22.1664 35.8333 22.833C37.5 24.833 37.3333 26.1664 36 27.1664Z" fill="#EF7B56"/>
  <path d="M28.8333 10.333C29.1667 10.6663 29.6667 10.9997 30.1667 11.333C29.5 11.4997 24.8333 15.9997 14.8333 16.4997C14.1667 16.4997 13.6667 16.9997 13.6667 17.6663C13.6667 22.333 14 29.833 15.6667 35.6663C17.6667 40.4997 22.5 45.1663 26.6667 48.1663C26.1667 48.1663 25.6667 47.9997 25.3333 47.833C21 44.6663 15.5 39.6663 13.1667 34.4997C11.5 28.833 11.1667 21.333 11.1667 16.4997C11.1667 15.833 11.6667 15.333 12.3333 15.333C16.1667 15.1663 22.1667 14.333 27.3333 10.333C27.8333 9.99967 28.5 9.99967 28.8333 10.333Z" fill="#E86A49"/>
  <path d="M26.6667 48.3332C26.1667 48.3332 25.6667 48.1665 25.3333 47.9998C21 44.8332 15.5 39.8332 13.1667 34.6665L15.6667 35.8332C17.6667 40.4998 22.5 45.1665 26.6667 48.3332Z" fill="#EF7B56"/>
  <path d="M30.1667 11.333C29.5 11.4997 24.8333 15.9997 14.8333 16.4997C14.1667 16.4997 13.6667 16.9997 13.6667 17.6663L11.3333 16.4997C11.3333 15.833 11.8333 15.333 12.5 15.333C16.3333 15.1663 22.3333 14.333 27.5 10.333C28 9.99967 28.5 9.99967 29 10.333C29.3333 10.6663 29.6667 10.9997 30.1667 11.333Z" fill="#EF7B56"/>
  <path d="M34.8334 26.1664C34.5 26.4997 32.3334 27.4997 30.5 28.1664C32.3334 28.4997 33 27.9997 33.3334 28.1664C35.8334 29.9997 35.5 32.333 33.6667 34.1664C31.8334 35.9997 30 35.9997 28.6667 35.333C28.3334 34.9997 27.3334 34.1664 26.8334 32.4997C26.1667 34.333 25.8334 34.9997 25.5 35.333C24.5 36.333 21.6667 35.4997 20.1667 33.833C18.8334 32.333 19.8334 31.4997 20.8334 30.4997C21.1667 30.1664 22.5 29.4997 24 28.9997L25 28.833L24 23.9997L21.5 24.333C22.3334 22.9997 23.8334 22.1664 23.6667 22.333C24.5 21.333 25.3334 20.833 25.3334 20.833C25.3334 20.833 26.3334 21.6664 26.6667 22.333C27 22.6664 27.6667 24.333 28 25.833C28.5 24.1664 29.5 22.1664 29.8334 21.833C30.6667 20.833 31.6667 19.6664 33 20.4997C33.1667 20.6664 34.3334 21.6664 34.5 21.833C36.3334 23.833 36.1667 25.333 34.8334 26.1664Z" fill="#D0CEF2"/>
  <path d="M33.5 28.3332C36.1667 30.6665 30.1667 36.4999 27.6667 33.9999C27.3333 33.6665 26.5 31.8332 26.1667 29.9999C25.5 31.8332 24.5 33.6665 24.1667 34.1665C21.6667 36.6665 17 31.6665 19.5 29.1665C19.8333 28.8332 21.6667 27.8332 23.5 27.3332C21.8333 26.9999 20.1667 26.3332 19.8333 25.9999C17.6667 23.9999 23 18.6665 25.1667 20.6665C25.5 20.9999 26.1667 22.6665 26.5 24.3332C27 22.6665 28 20.6665 28.3333 20.3332C31 17.6665 36.3333 22.1665 33.5 24.8332C33.1667 25.1665 31 26.1665 29.1667 26.8332C31.1667 27.1665 33.1667 27.9999 33.5 28.3332Z" fill="#F8F9FE"/>
  <path d="M47.6667 16.833C49.0474 16.833 50.1667 15.7137 50.1667 14.333C50.1667 12.9523 49.0474 11.833 47.6667 11.833C46.286 11.833 45.1667 12.9523 45.1667 14.333C45.1667 15.7137 46.286 16.833 47.6667 16.833Z" fill="#F3A250"/>
  <path d="M48.6667 12.6663C48.6667 12.8329 48.8334 12.8329 48.6667 12.6663C49.5 13.3329 49.8334 14.4996 49.3334 15.3329C48.6667 16.4996 47 16.6663 46.1667 15.3329C45 13.8329 46.8334 11.6663 48.6667 12.6663Z" fill="#D4DAEA"/>
  <path d="M48.6667 12.6661C49 12.8327 49.3334 13.9994 48.8334 14.8327C48.3334 15.6661 47.1667 15.9994 46.1667 15.4994C45.8334 15.3327 45.5 14.1661 46 13.3327C46.6667 12.4994 47.8334 12.1661 48.6667 12.6661Z" fill="#F1F6FA"/>
  <path d="M47.8334 12.8331C47.8334 12.9997 47.5 13.3331 47.1667 13.8331C46.8334 14.3331 46.6667 14.9997 46.5 14.9997C46.3334 14.9997 46 14.3331 46.5 13.4997C47 12.8331 47.6667 12.6664 47.8334 12.8331Z" fill="white"/>
  <path d="M8.66666 16.833C10.0474 16.833 11.1667 15.7137 11.1667 14.333C11.1667 12.9523 10.0474 11.833 8.66666 11.833C7.28594 11.833 6.16666 12.9523 6.16666 14.333C6.16666 15.7137 7.28594 16.833 8.66666 16.833Z" fill="#F3A250"/>
  <path d="M9.66665 12.6663C9.66665 12.8329 9.66665 12.8329 9.66665 12.6663C10.5 13.3329 10.8333 14.4996 10.1667 15.3329C9.49999 16.4996 7.83332 16.6663 6.99999 15.3329C5.83332 13.8329 7.83332 11.6663 9.66665 12.6663Z" fill="#D4DAEA"/>
  <path d="M9.66666 12.6661C9.66666 12.8327 9.66666 12.8327 9.66666 12.6661C11 14.3327 9 16.4994 7.16666 15.4994C6.83333 15.3327 6.5 14.1661 7 13.3327C7.5 12.4994 8.66666 12.1661 9.66666 12.6661Z" fill="#F1F6FA"/>
  <path d="M8.66665 12.8331C8.66665 12.9997 8.33332 13.3331 7.99999 13.8331C7.66665 14.3331 7.66665 14.9997 7.33332 14.9997C7.16665 14.9997 6.83332 14.3331 7.33332 13.4997C7.83332 12.8331 8.66665 12.6664 8.66665 12.8331Z" fill="white"/>
  <path d="M27.8333 54.6665C29.2141 54.6665 30.3333 53.5472 30.3333 52.1665C30.3333 50.7858 29.2141 49.6665 27.8333 49.6665C26.4526 49.6665 25.3333 50.7858 25.3333 52.1665C25.3333 53.5472 26.4526 54.6665 27.8333 54.6665Z" fill="#F3A250"/>
  <path d="M28.8333 50.6667C29.6667 51.3333 30 52.5 29.5 53.3333C28.8333 54.5 27.1667 54.6667 26.3333 53.3333C25 51.6667 27 49.5 28.8333 50.6667Z" fill="#D4DAEA"/>
  <path d="M28.8333 50.6664C30.1667 52.333 28.1667 54.4997 26.3333 53.4997C26.3333 53.4997 26.3333 53.4997 26.1667 53.4997C25 51.6664 27 49.4997 28.8333 50.6664Z" fill="#F1F6FA"/>
  <path d="M27.8333 50.8332C27.8333 50.9998 27.5 51.3332 27.1667 51.8332C26.8333 52.3332 26.6667 52.8332 26.5 52.8332C26.3333 52.8332 26 52.1665 26.5 51.3332C27 50.6665 27.8333 50.4998 27.8333 50.8332Z" fill="white"/>
</svg>
