<svg width="60" height="60" viewBox="0 0 60 60" fill="none" xmlns="http://www.w3.org/2000/svg">
  <path d="M48.6667 33.1665L35.5 31.3331C38.6667 28.9998 40.8333 25.8331 42.1667 22.8331C39 20.9998 40.8333 16.3332 44.3333 16.8332C46.1667 16.9998 47.3333 18.6665 47.1667 20.4998C47 21.8331 46 22.8331 44.6667 23.1665C45.1667 26.3331 46.3333 29.9998 48.6667 33.1665Z" fill="#F3A250"/>
  <g opacity="0.6">
    <path d="M38.8334 28C37.8334 29.1667 36.6667 30.3333 35.3334 31.3333L48.5 33.1667C48 32.6667 47.6667 32 47.3334 31.3333C43.8334 31.3333 41 30 38.8334 28Z" fill="#EF7B56"/>
  </g>
  <g opacity="0.6">
    <path d="M42.1667 22.8333C41 22.1667 40.3333 21 40.6667 19.5C41 17.6667 42.5 16.5 44.3333 16.6667C46.1667 16.8333 47.3333 18.5 47.1667 20.3333C47 21.6667 46 22.6667 44.6667 23C43.6667 23.3333 42.8333 23.1667 42.1667 22.8333Z" fill="#EF7B56"/>
  </g>
  <path d="M11.3334 33.1667L24.5 31.3333C21.3334 29 19.1667 25.8333 17.8334 22.8333C19 22.1667 19.6667 21 19.3334 19.5C19 17.6667 17.5 16.5 15.6667 16.6667C13.8334 16.8333 12.6667 18.5 12.8334 20.3333C13 21.6667 14 22.6667 15.3334 23C14.8334 26.3333 13.6667 30 11.3334 33.1667Z" fill="#F3A250"/>
  <g opacity="0.6">
    <path d="M21.1667 28C22.1667 29.1667 23.3333 30.3333 24.6667 31.3333L11.5 33.1667C12 32.6667 12.3333 32 12.6667 31.3333C16.1667 31.3333 19 30 21.1667 28Z" fill="#EF7B56"/>
  </g>
  <g opacity="0.6">
    <path d="M17.8334 22.8333C19 22.1667 19.6667 21 19.3334 19.5C19 17.6667 17.5 16.5 15.6667 16.6667C13.8334 16.8333 12.6667 18.5 12.8334 20.3333C13 21.6667 14 22.6667 15.3334 23C16.3334 23.3333 17.1667 23.1667 17.8334 22.8333Z" fill="#EF7B56"/>
  </g>
  <path d="M3.33333 22.0002C4.16666 26.6668 7.99999 35.0002 7.99999 40.6668V46.5002H52.1667V40.6668C52.1667 35.0002 56 26.6668 56.8333 22.0002C57 21.1668 56 20.8335 55.6667 20.8335C54.3333 20.8335 53.1667 22.0002 53.1667 23.3335C53.1667 24.0002 53.5 25.3335 54.5 26.0002C51 35.6668 32.8333 34.8335 31.1667 11.3335H29.3333V11.6668C27.5 35.0002 9.33333 35.6668 5.99999 26.0002C6.99999 25.3335 7.33333 24.1668 7.33333 23.3335C7.33333 22.0002 6.16666 20.8335 4.83333 20.8335C4.16666 20.6668 3.16666 21.1668 3.33333 22.0002Z" fill="#FFB961"/>
  <path d="M54.3333 25.8332C51.3333 37.9998 32.3333 37.3332 30.5 11.1665L31 11.4998C32.6667 34.8332 50.8333 35.4998 54.3333 25.8332Z" fill="#FFDE9B"/>
  <path d="M5.66669 25.8332C8.66669 37.9998 27.6667 37.3332 29.5 11.1665L29 11.4998C27.3334 34.8332 9.16669 35.4998 5.66669 25.8332Z" fill="#FFDE9B"/>
  <path d="M3.50001 22.4997C3.50001 22.333 3.50001 22.1663 3.33335 21.9997C3.16668 21.1663 4.16668 20.833 4.50001 20.833C6.16668 20.833 7.33335 22.333 7.00001 23.9997C6.83335 22.6663 4.16668 21.333 3.50001 22.4997Z" fill="#FFDE9B"/>
  <path d="M56.6666 21.9998C56.6666 22.1665 56.6667 22.3332 56.5 22.4998C55.8333 21.3332 53.3333 21.8332 52.8333 23.8332C52.5 22.1665 53.6666 20.6665 55.3333 20.6665C55.8333 20.6665 56.8333 21.1665 56.6666 21.9998Z" fill="#FFDE9B"/>
  <path d="M34.3334 11.6667C34.8334 14.1667 33.1667 16.5 30.8334 17C28.3334 17.5 26 15.8333 25.6667 13.3333C25.1667 10.8333 26.8334 8.49999 29.1667 7.99999C31.5 7.66666 34 9.33332 34.3334 11.6667Z" fill="#FFB961"/>
  <path d="M34.5 12.6665C34.5 14.6665 33 16.4998 30.8334 16.9998C26.8334 17.8332 24.1667 13.3332 26.1667 10.1665C26 14.8332 32.1667 16.4998 34.5 12.6665Z" fill="#F3A250"/>
  <path d="M52 46.4998C52 49.4998 42.1667 51.8332 30 51.8332C17.8333 51.8332 8 49.4998 8 46.4998C8 43.4998 17.8333 41.1665 30 41.1665C42.1667 41.1665 52 43.4998 52 46.4998Z" fill="#FFB961"/>
  <path d="M13.3334 45.3335V50.0002C15.1667 50.5002 17.3334 51.0002 19.6667 51.1668V46.6668L13.3334 45.3335Z" fill="#FFDE9B"/>
  <path d="M40.6667 46.8332V51.1665C43.6667 50.8332 46.1667 50.1665 48 49.4998V45.1665L40.6667 46.8332Z" fill="#FFDE9B"/>
  <path d="M24.1667 47.6665V51.6665C27 51.8332 29.5 51.8332 32.1667 51.8332V47.6665H24.1667Z" fill="#FFDE9B"/>
  <path d="M52 41.5V43C52 46 42.1667 48.3333 30 48.3333C17.8333 48.3333 8 46 8 43V41.5C8 44.5 17.8333 46.8333 30 46.8333C42.1667 46.8333 52 44.5 52 41.5Z" fill="#F9A83D"/>
  <path d="M32.8334 11.8332C32.5 12.1666 31.6667 11.3332 30.6667 10.8332C29.6667 10.3332 28.5 10.3332 28.5 9.83323C28.3334 9.33323 29.8334 8.4999 31.3334 9.16656C33 9.9999 33.3334 11.6666 32.8334 11.8332Z" fill="#FFDE9B"/>
  <g opacity="0.6">
    <path d="M45.8334 19.3334C45.5 19.5001 45 19.0001 44.3334 18.6668C43.6667 18.3334 43 18.3334 42.8334 18.0001C42.8334 17.6668 43.8334 17.0001 44.8334 17.5001C45.8334 18.0001 46.1667 19.1668 45.8334 19.3334Z" fill="white"/>
  </g>
  <g opacity="0.6">
    <path d="M18 19.3334C17.6667 19.5001 17.1667 19.0001 16.5 18.6668C15.8333 18.3334 15.1667 18.3334 15 18.0001C15 17.6668 16 17.0001 17 17.5001C18 18.0001 18.3333 19.1668 18 19.3334Z" fill="white"/>
  </g>
  <path d="M37.3333 33.3335V40.8335C37.3333 41.1668 37.1667 41.5002 36.8333 41.6668L30.3333 45.3335C30 45.5002 29.6667 45.5002 29.5 45.3335L23 41.6668C22.6667 41.5002 22.5 41.1668 22.5 40.8335V33.3335C22.5 33.0002 22.6667 32.6668 23 32.5002L29.5 28.8335C29.8333 28.6668 30.1667 28.6668 30.3333 28.8335L36.8333 32.5002C37.1667 32.6668 37.3333 33.0002 37.3333 33.3335Z" fill="#F3A250"/>
  <path d="M30 44.1668L23.8333 40.6668V33.5002L30 29.8335L36.1666 33.5002V40.6668L30 44.1668Z" fill="#6EB954"/>
  <path d="M30 40.5002L33.1667 38.8335L36.1667 40.6668L30 44.1668V40.5002Z" fill="#4B9534"/>
  <path d="M26.8333 35.3333V38.8333L23.8333 40.6667V33.5L26.8333 35.3333Z" fill="#4B9534"/>
  <path d="M30 33.6668L33.1667 35.3335L36.1667 33.5002L30 29.8335V33.6668Z" fill="#4B9534"/>
  <path d="M26.6667 38.6664C26.6667 35.1664 26.5 35.1664 27 34.8331C30.1667 32.9998 30 32.9998 30.3333 33.1664C33.3333 34.9998 33.3333 34.9998 33.3333 35.3331C33.3333 38.9998 33.5 38.8331 33 39.1664C29.8333 40.9998 30 40.9998 29.6667 40.8331C26.6667 38.9998 26.6667 39.1664 26.6667 38.6664Z" fill="#36712D"/>
  <path d="M33.8333 35.1665C33.6667 35.3332 33.8333 35.3332 33.8333 35.4998C34.3333 35.6665 34.8333 35.8332 35 35.8332C35 35.8332 34.5 35.8332 33.8333 35.6665C33.6667 35.6665 33.6667 35.8332 33.6667 35.8332C34.3333 36.9998 34.8333 37.9998 34.6667 37.9998C34.5 37.9998 34 36.9998 33.3333 35.9998C33.3333 35.8332 33.1667 35.9998 33 35.9998C32.8333 36.6665 32.6667 36.9998 32.6667 37.1665C32.6667 37.1665 32.6667 36.6665 32.8333 35.9998C32.8333 35.8332 32.6667 35.8332 32.6667 35.8332C31.5 36.4998 30.5 36.9998 30.5 36.8332C30.5 36.6665 31.5 36.1665 32.5 35.4998C32.6667 35.3332 32.5 35.3332 32.5 35.1665C32 34.9998 31.5 34.8332 31.5 34.8332C31.6667 34.8332 32 34.9998 32.6667 34.9998C32.8333 34.9998 32.8333 34.8332 32.8333 34.8332C32.1667 33.6665 31.6667 32.6665 31.8333 32.6665C31.8333 32.6665 32.5 33.6665 33.1667 34.6665C33.1667 34.8332 33.3333 34.8332 33.5 34.6665C33.6667 33.9998 33.8333 33.6665 33.8333 33.4998C33.8333 33.4998 33.8333 33.9998 33.6667 34.6665C33.6667 34.8332 33.8333 34.8332 33.8333 34.8332C35 34.1665 36 33.6665 36 33.8332C35.8333 33.8332 35 34.4998 33.8333 35.1665Z" fill="white"/>
</svg>
