<svg width="60" height="60" viewBox="0 0 60 60" fill="none" xmlns="http://www.w3.org/2000/svg">
  <path d="M24.6667 54.8335C25 55.8335 27 56.6668 30 56.6668C33 56.6668 34.8333 55.6668 35.3333 54.8335C35.5 54.3335 35.6667 51.3335 35.6667 51.3335H24.5C24.5 51.3335 24.5 54.3335 24.6667 54.8335Z" fill="#AA6256"/>
  <path d="M23.8333 51.0003C24.3333 52.0003 26.5 53.167 30 53.167C33.5 53.167 35.6667 52.167 36.1667 51.0003C36.3333 50.3337 36.5 48.667 36.5 48.667H23.6667C23.5 48.8337 23.6667 50.5003 23.8333 51.0003Z" fill="#8A4852"/>
  <path d="M23.5 48.8333C23.5 50 26.3333 51.1667 30 51.1667C33.6667 51.1667 36.5 50.1667 36.5 48.8333C36.5 47.5 33.6667 46.5 30 46.5C26.3333 46.5 23.5 47.5 23.5 48.8333Z" fill="#BF7D5A"/>
  <path d="M30 50.1667C26.5 50.1667 24.6667 49.1667 24.5 48.8333C24.6667 48.5 26.5 47.5 30 47.5C33.5 47.5 35.3333 48.5 35.5 48.8333C35.3333 49.1667 33.5 50.1667 30 50.1667Z" fill="#AA6256"/>
  <path d="M35.5 48.8335C35.5 49.0002 35.3333 49.0002 35 49.1668C34.1667 48.6668 32.5 48.1668 30 48.1668C27.5 48.1668 25.8333 48.6668 25 49.0002C24.6667 48.8335 24.5 48.6668 24.5 48.6668C24.6667 48.3335 26.5 47.3335 30 47.3335C33.5 47.3335 35.3333 48.3335 35.5 48.8335Z" fill="#8A4852"/>
  <path d="M36.8333 44.0003C36.8333 44.167 34.3333 49.667 34.5 49.3337C34.1667 49.5003 33.8333 49.667 33.3333 49.667C33.3333 49.5003 36 43.167 35.8333 43.5003C36 43.167 36.1667 43.167 36.5 43.167C36.8333 43.3337 36.8333 43.667 36.8333 44.0003Z" fill="#E9E7FC"/>
  <path d="M26.6667 49.6668C26.1667 49.5001 25.6667 49.3335 25.5 49.3335L25.3333 49.0001L23.1667 44.0001C23 43.6668 23.1667 43.5001 23.5 43.3335C23.8333 43.1668 24 43.3335 24.1667 43.6668L26.3333 48.6668L26.6667 49.6668Z" fill="#E9E7FC"/>
  <path d="M23.3333 44.5003C23.8333 45.5003 26.3333 46.667 30 46.667C33.6667 46.667 36.1667 45.667 36.6667 44.5003C37 43.8337 37 42.167 37 42.167H22.8333C23 42.167 23 43.8337 23.3333 44.5003Z" fill="#CC104A"/>
  <path d="M37.5 40.5002C37 40.8335 36.8333 41.3335 37 41.8335V42.0002C37 43.1668 33.8333 44.3335 30 44.3335C26.1667 44.3335 23 43.3335 23 42.0002V41.8335C23.1667 41.3335 23 40.6668 22.5 40.5002C15 36.3335 9.66666 26.6668 9.66666 19.8335C9.66666 10.6668 18.8333 3.3335 30 3.3335C41.1667 3.3335 50.3333 10.6668 50.3333 19.8335C50.3333 26.6668 45 36.3335 37.5 40.5002Z" fill="#F45170"/>
  <path d="M43 7.16699C48.3333 18.667 42.6667 35.667 26.1667 35.667C20.5 35.667 16.1667 33.667 13 30.667C15.3333 34.667 18.6667 38.3337 22.5 40.5003C23 40.8337 23.1667 41.3337 23 41.8337V42.0003C23 43.167 26.1667 44.3337 30 44.3337C33.8333 44.3337 37 43.3337 37 42.0003V41.8337C36.8333 41.3337 37 40.667 37.5 40.5003C45 36.3337 50.3333 26.667 50.3333 19.667C50.3333 14.667 47.5 10.167 43 7.16699Z" fill="#E93565"/>
  <path d="M41.8333 19.8335C41.8333 26.1668 38.8333 36.3335 34.3333 40.6668C34 41.0002 34 41.5002 34.1667 42.0002V42.1668C34.1667 43.3335 32.3333 44.5002 30 44.5002C27.6667 44.5002 25.8333 43.5002 25.8333 42.1668V42.0002C26 41.5002 25.8333 40.8335 25.5 40.6668C20.8333 36.1668 18 26.3335 18 19.8335C18.1667 10.6668 23.5 3.3335 30 3.3335C36.5 3.3335 41.8333 10.6668 41.8333 19.8335Z" fill="#F3F1FC"/>
  <path d="M40.3333 29.5C39.1667 33.1667 37.1667 37.8333 34.3333 40.5C34 40.8333 34 41.3333 34.1667 41.8333V42C34.1667 43.1667 32.3333 44.3333 30 44.3333C27.6667 44.3333 25.8333 43.3333 25.8333 42V41.8333C26 41.3333 25.8333 40.6667 25.5 40.5C24 39.1667 22.6667 37 21.8333 35.3333C28.5 36.6667 35.6667 35 40.3333 29.5Z" fill="#DEDFFB"/>
  <path d="M34.3333 19.8335C34.3333 25.3335 33.5 35.6668 31.6667 40.6668C31.5 41.0002 31.5 41.5002 31.5 42.0002V42.1668C31.5 43.3335 30.8333 44.5002 30 44.5002C29.1667 44.5002 28.5 43.5002 28.5 42.1668V42.0002C28.5 41.5002 28.5 40.8335 28.3333 40.6668C26.5 35.6668 25.6667 25.1668 25.6667 19.8335C25.6667 10.6668 27.6667 3.3335 30 3.3335C32.3333 3.3335 34.3333 10.6668 34.3333 19.8335Z" fill="#F45170"/>
  <path d="M30.5 46V50C30.3333 50 30.1667 50 30 50C29.8333 50 29.6667 50 29.5 50V46C29.5 45.6667 29.6667 45.5 30 45.5C30.3333 45.5 30.5 45.6667 30.5 46Z" fill="#E9E7FC"/>
  <path opacity="0.3" d="M34.3333 19.0002C31 21.0002 26.1667 20.6668 23 18.1668C19 15.0002 19.5 9.66683 24.1667 7.00016C27.3333 5.16683 31.8333 5.3335 35 7.50016C39.5 10.6668 39 16.3335 34.3333 19.0002Z" fill="white"/>
  <path d="M31.6667 40.5C31.5 40.8333 31.5 41.3333 31.5 41.8333V42C31.5 43.1667 30.8333 44.3333 30 44.3333C29.1667 44.3333 28.5 43.3333 28.5 42V41.8333C28.5 41.3333 28.5 40.6667 28.3333 40.5C27.8333 39.3333 27.5 37.5 27 35.6667C29.1667 35.5 31.1667 35.1667 33 34.5C32.6667 37 32.1667 39.1667 31.6667 40.5Z" fill="#E93565"/>
  <path opacity="0.45" d="M12.5 15.9998C13.3333 16.6664 14 14.8331 15.3333 12.9998C16.6667 11.1664 18 9.99976 17.1667 9.49976C16.5 8.99976 14.8333 9.99976 13.5 11.6664C12.1667 13.4998 11.8333 15.4998 12.5 15.9998Z" fill="white"/>
  <path opacity="0.45" d="M18.9963 8.90116C19.4939 8.66147 19.7354 8.131 19.5357 7.71633C19.3359 7.30166 18.7706 7.1598 18.273 7.3995C17.7754 7.63919 17.5339 8.16966 17.7337 8.58433C17.9334 8.999 18.4987 9.14085 18.9963 8.90116Z" fill="white"/>
  <path d="M18.6667 23C18.3333 23 18.3333 23.3333 18.5 23.5C19.5 24.3333 20.3333 25 20.1667 25.1667C20.1667 25.1667 19.1667 24.6667 18.1667 23.8333C18 23.6667 17.6667 23.8333 17.6667 24.1667C17.8333 26.6667 18 29 17.8333 29C17.6667 29 17.3333 26.6667 17 24.1667C17 23.8333 16.6667 23.8333 16.5 24C15.6667 25 15 25.6667 14.8333 25.6667C14.8333 25.6667 15.3333 24.8333 16.1667 23.6667C16.3333 23.5 16.1667 23.1667 15.8333 23.1667C13.5 23.3333 11.1667 23.5 11.1667 23.3333C11.3333 23.1667 13.5 22.8333 16 22.5C16.3333 22.5 16.3333 22.1667 16.1667 22C15.1667 21.1667 14.5 20.5 14.5 20.3333C14.5 20.3333 15.5 20.8333 16.5 21.6667C16.6667 21.8333 17 21.6667 17 21.5C16.6667 18.8333 16.5 16.5 16.6667 16.5C16.8333 16.6667 17.1667 18.8333 17.5 21.3333C17.5 21.6667 17.8333 21.6667 18 21.5C18.8333 20.5 19.6667 19.8333 19.6667 19.8333C19.6667 19.8333 19.1667 20.8333 18.3333 21.8333C18.1667 22 18.3333 22.3333 18.6667 22.3333C21.1667 22.1667 23.5 22 23.6667 22.1667C23.5 22.3333 21.1667 22.6667 18.6667 23Z" fill="white"/>
</svg>
