<svg width="40" height="26" viewBox="0 0 40 26" fill="none" xmlns="http://www.w3.org/2000/svg">
    <g clip-path="url(#clip0_219_368)">
        <path d="M19.7093 3.88529C19.6479 3.88529 19.4271 4.02335 19.355 4.04789C19.221 4.09345 19.0827 4.12532 18.9423 4.14299C17.9346 4.27644 16.8071 3.86689 16.2518 3.09839C16.034 2.79161 15.873 2.46642 15.6766 2.1535C15.2552 1.44264 14.5754 0.922166 13.7792 0.700878C12.7791 0.432443 11.6992 0.529079 10.7113 0.794447C12.1609 0.0704378 14.0936 -0.0676149 15.4113 0.834329C16.0708 1.2853 16.5003 1.92955 16.8808 2.59987C17.4069 3.54937 18.654 3.74878 19.7093 3.88529Z" fill="url(#paint0_linear_219_368)"/>
        <path d="M39.5981 23.4998C39.3788 24.0077 39.0504 24.4612 38.6363 24.8281C37.127 26.1626 35.1436 25.9019 33.4087 25.2101L32.3657 24.7882C31.387 24.3935 30.4104 23.9926 29.4359 23.5856C29.0679 23.4431 28.6908 23.3258 28.3069 23.2344C26.6994 22.834 23.8831 22.4674 21.5822 23.5412C21.5822 23.5412 20.4256 24.2544 20.4226 24.2544C20.576 23.759 20.7416 23.2635 20.8935 22.765C21.106 21.9904 21.3911 21.2375 21.7448 20.5163C22.083 19.8791 22.4921 19.2822 22.9643 18.7369C23.917 17.6482 25.0653 16.7476 26.3496 16.0817C26.9003 15.7903 27.4755 15.5433 28.0615 15.304C29.1767 14.8438 30.3118 14.4282 31.3211 13.7916C33.3382 12.5169 34.6957 9.30793 32.5007 7.50251C31.6662 6.81685 30.5066 6.62051 29.442 6.73555C28.0017 6.88894 26.6181 7.52092 25.2759 8.03018C23.9048 8.56851 22.4717 8.93334 21.0101 9.11619C18.8135 9.36162 16.5617 9.07171 14.5676 8.10227L14.4188 8.03938C14.4188 8.03938 14.2746 7.96882 14.0353 7.8369C12.4508 6.96104 10.7604 5.8152 9.81706 4.22146C9.67324 4.00488 9.58282 3.75728 9.55323 3.49898C9.53022 3.07562 9.86001 2.7489 10.2282 2.60471C10.5378 2.50444 10.8638 2.46486 11.1884 2.48813C12.5352 2.52034 13.8206 2.92836 15.0753 3.3824C15.7104 3.61096 16.3424 3.85025 16.9851 4.05119C17.7428 4.28895 18.7153 4.61414 19.4639 4.19231C20.0774 3.85025 20.2538 3.14925 20.5591 2.57096C20.895 1.93899 21.2923 1.32235 21.866 0.88365C23.1376 -0.0888548 25.0029 0.0599353 26.4003 0.8407C25.0842 0.446483 23.5395 0.398931 22.4581 1.24565C21.9043 1.67822 21.5377 2.30253 21.257 2.94984C20.9595 3.65544 20.7217 4.51444 20.0084 4.92092C19.6512 5.10738 19.2456 5.18068 18.8457 5.13107C18.3391 5.05977 17.8397 4.94428 17.3532 4.78594C16.8225 4.64022 16.2948 4.47916 15.7702 4.31196C14.3728 3.87172 12.9785 3.40234 11.5335 3.13544C11.2436 3.08176 10.9322 3.03881 10.6669 3.16305C10.2358 3.36246 10.2772 3.70146 10.469 4.03892L10.4951 4.08341C10.5712 4.20029 10.6563 4.31107 10.7497 4.41473L10.7635 4.4316C10.936 4.62138 11.1226 4.79778 11.3218 4.95927C11.6286 5.19243 11.9507 5.40258 12.2683 5.59432C14.1409 6.69161 16.2734 7.26685 18.4438 7.26015C20.7171 7.27549 22.8492 6.64658 24.9308 5.76918C25.4503 5.55034 25.9616 5.3131 26.4647 5.05744L26.8236 4.87644C28.3422 4.10181 29.8654 3.2919 31.5864 3.07255C34.2493 2.73356 36.1882 3.95762 37.1438 5.78299C37.173 5.83821 37.2021 5.89343 37.2297 5.95018C37.4796 6.46116 37.6537 7.00579 37.7467 7.56694C37.7635 7.66817 37.7773 7.76941 37.7896 7.87372C37.8786 8.69789 37.8062 9.53151 37.5764 10.328C37.1547 11.7764 36.2999 13.061 35.1267 14.0094C35.0316 14.0876 34.935 14.1628 34.8353 14.2364C33.3704 15.3102 31.6539 16.0771 30.0801 16.9975L29.4758 17.3487L29.0156 17.6202L27.9418 18.243L27.9173 18.2584H27.9066C27.9066 18.2584 26.7439 18.9394 26.7408 18.9394L26.7239 18.9501L26.6641 18.9839C28.7594 18.6909 30.4989 19.4824 32.424 20.1512C33.4793 20.5193 34.7248 20.6743 35.6544 20.0484C36.3109 19.6036 36.6913 18.8213 36.7649 18.0298C36.8139 17.2338 36.6598 16.4383 36.317 15.7182C36.5705 15.8314 36.8156 15.9626 37.0503 16.1109C38.3041 16.899 39.2386 18.1052 39.6886 19.5162C40.0936 20.7832 40.1396 22.2741 39.5981 23.4998Z" fill="url(#paint1_linear_219_368)"/>
        <path d="M21.7816 9.93853C17.1231 15.9638 11.7667 12.4311 10.8908 11.9142C10.0149 11.3973 7.62357 9.52284 6.60811 9.12402C6.07737 8.88166 5.33189 8.71906 4.80115 9.04886C4.27042 9.37865 4.24588 10.1226 4.38239 10.6702C4.50449 11.1466 4.71242 11.5968 4.99596 11.9986C5.39646 12.5608 5.89099 13.0496 6.45779 13.4435C6.8164 13.6995 7.19913 13.9199 7.60056 14.1016C7.61743 14.1093 7.64964 14.1185 7.69106 14.1323C7.82604 14.1752 8.05153 14.2396 8.07914 14.2857L8.74793 15.5649C8.74793 15.5649 6.09885 16.0819 4.6677 15.1999C4.51431 15.1124 4.36092 15.0235 4.2152 14.9299C3.37034 14.4206 2.59666 13.8017 1.91432 13.0892C1.52182 12.6764 1.1766 12.2211 0.885059 11.7317C-0.472459 9.4308 -0.303728 6.1927 1.56305 4.21548C1.95615 3.77782 2.4363 3.42705 2.97276 3.18563C3.50922 2.94421 4.09017 2.81745 4.67844 2.81348C5.26132 2.81897 5.83831 2.93073 6.38109 3.14327L6.55749 3.21383C7.83218 3.7369 8.85837 4.61583 9.8907 5.51471L9.94132 5.55919C17.3333 11.9388 21.7325 9.96307 21.7816 9.93853Z" fill="url(#paint2_linear_219_368)"/>
        <path d="M7.69718 14.1322C7.16491 15.0434 4.29495 14.9391 4.22132 14.9298C3.37646 14.4205 2.60278 13.8016 1.92044 13.0891L1.98333 12.744C1.98333 12.744 3.85318 12.2654 5.00208 11.9878C5.40258 12.55 5.89712 13.0388 6.46391 13.4327C6.82252 13.6887 7.20525 13.9091 7.60668 14.0908C7.62355 14.0985 7.65576 14.1077 7.69718 14.1215V14.1322Z" fill="url(#paint3_linear_219_368)"/>
        <path d="M21.7816 9.93857C21.6666 10.0536 19.4301 13.3837 10.1361 7.00725C8.68227 6.01727 7.46116 4.72289 6.5575 3.21387C7.83218 3.73693 8.85837 4.61587 9.8907 5.51475L9.94132 5.55923C17.3333 11.9388 21.7326 9.96311 21.7816 9.93857Z" fill="url(#paint4_linear_219_368)"/>
        <path d="M20.4165 24.2574C20.3658 24.216 20.3152 24.1777 20.2631 24.1393C17.1492 21.8385 12.3312 23.1975 11.4031 23.5856C10.0824 24.1409 8.75407 24.6762 7.42416 25.21C6.04363 25.7622 4.45603 26.0951 3.05249 25.4171C2.16211 24.9803 1.43056 24.2761 0.960226 23.403C0.765858 23.0224 0.606195 22.6251 0.483178 22.2158C0.0724829 20.9062 0.109179 19.4972 0.587484 18.2107C1.20105 16.6247 2.59845 15.6506 4.08329 14.9895C5.47017 14.359 6.98561 14.0626 8.50784 14.1242C10.0301 14.1857 11.5166 14.6034 12.8481 15.3438C13.8973 15.9105 14.8533 16.6347 15.6828 17.4913V17.5005C15.8546 17.6831 16.0156 17.8702 16.1675 18.065C16.1675 18.065 15.4972 17.7291 14.4879 17.3287C13.2896 16.8422 12.0484 16.4693 10.7804 16.2151L10.4583 16.1722C9.28424 16.0225 8.09155 16.1437 6.97165 16.5265C6.77533 16.5971 6.58326 16.679 6.39643 16.7719C6.29213 16.8241 6.19089 16.8793 6.08965 16.9391C5.37791 17.3579 4.75054 17.9714 4.55573 18.766C4.22901 20.0959 5.83195 20.6067 6.86888 20.4794C7.60556 20.3659 8.32634 20.1661 9.01637 19.8842C9.3615 19.7539 9.7051 19.6204 10.0518 19.4962C16.6093 17.1431 19.3335 22.4582 20.3075 24.0872L20.4165 24.2574Z" fill="url(#paint5_linear_219_368)"/>
        <path d="M9.02865 19.8966C9.01024 20.027 8.38747 20.3353 8.26169 20.4089C8.02076 20.5583 7.7719 20.6945 7.5162 20.8169C7.12642 21.008 6.71413 21.1492 6.28907 21.2372C5.74606 21.3415 5.13096 21.3385 4.62323 21.0992C3.61698 20.6237 3.82253 19.2937 4.29344 18.5007C4.31031 18.4716 4.32719 18.444 4.34559 18.4163C4.44322 18.2622 4.55353 18.1165 4.67539 17.9807C4.68223 17.9713 4.68993 17.9626 4.6984 17.9546C4.71834 17.9332 4.73828 17.9102 4.75975 17.8887V17.881C5.14623 17.5355 5.5714 17.236 6.02677 16.9883C6.04664 16.9765 6.06712 16.9657 6.08813 16.9561C5.41627 17.3518 4.82264 17.9194 4.59562 18.651C4.58182 18.6925 4.56955 18.7354 4.55881 18.7783C4.23208 20.1083 5.83503 20.6191 6.87196 20.4917C7.61177 20.3789 8.33567 20.1791 9.02865 19.8966Z" fill="url(#paint6_linear_219_368)"/>
        <path d="M20.3214 24.0996L20.2631 24.1395C17.1492 21.8386 12.3312 23.1977 11.4032 23.5858C10.0824 24.1411 8.75408 24.6764 7.42417 25.2102C6.04364 25.7624 4.45603 26.0953 3.0525 25.4173C2.16212 24.9805 1.43057 24.2763 0.960234 23.4032C0.765865 23.0226 0.606202 22.6253 0.483185 22.216C2.95893 27.3669 6.83668 24.6457 9.5149 23.4876C15.9006 19.9933 20.2247 24.0107 20.3198 24.1012L20.3214 24.0996Z" fill="url(#paint7_linear_219_368)"/>
        <path d="M34.7862 21.1941C34.2795 21.1957 33.776 21.1148 33.2952 20.9548C32.5405 20.7079 31.815 20.3766 31.0664 20.1143C30.278 19.8366 29.4773 19.5943 28.6812 19.3473C28.0293 19.1525 27.3559 18.9638 26.6764 18.9868C27.087 18.9318 27.5019 18.9138 27.9158 18.9331C28.3327 18.9553 28.7471 19.0107 29.1552 19.0988C29.9724 19.2898 30.7755 19.5368 31.5588 19.8382C31.8503 19.944 32.1417 20.0498 32.4347 20.1449C33.4916 20.5131 34.7356 20.668 35.6651 20.0422C36.3216 19.5973 36.7021 18.815 36.7772 18.0235C36.8249 17.2274 36.6703 16.4322 36.3278 15.7119C36.6008 16.3347 36.995 16.8639 37.1975 17.5311C37.4798 18.4714 37.4429 19.3857 36.8739 20.194C36.3738 20.9119 35.5946 21.1819 34.7862 21.1941Z" fill="url(#paint8_linear_219_368)"/>
        <path opacity="0.6" d="M39.5981 23.4995C39.3788 24.0075 39.0504 24.461 38.6363 24.8279C37.127 26.1624 35.1436 25.9016 33.4103 25.2098L32.3657 24.788C31.386 24.3933 30.4089 23.9924 29.4344 23.5854C29.0665 23.4427 28.6893 23.3253 28.3054 23.2341C26.6994 22.8338 23.8831 22.4672 21.5822 23.5409L20.4211 24.2573C20.4609 24.1683 22.2065 20.4133 29.0984 22.8507C30.8318 23.3967 37.8617 27.1364 39.5981 23.4995Z" fill="url(#paint9_linear_219_368)"/>
        <path d="M9.5701 3.64159C9.56534 3.63112 9.56125 3.62036 9.55783 3.60938L9.56857 3.63238C9.56834 3.63553 9.56887 3.63868 9.5701 3.64159Z" fill="url(#paint10_radial_219_368)"/>
        <path opacity="0.44" d="M10.469 4.03872L10.4951 4.0832C10.4644 4.04332 10.4567 4.02952 10.469 4.03719V4.03872Z" fill="url(#paint11_linear_219_368)"/>
        <path opacity="0.44" d="M37.581 10.2958C37.8464 8.87076 37.8525 7.20492 36.8294 6.06062C36.0072 5.14027 34.7448 4.80587 33.5575 4.71998C31.318 4.55891 29.0539 5.09118 27.0276 6.02687C25.0857 6.92268 23.1345 7.67584 21.0147 7.98876C18.1892 8.40445 15.2548 8.00103 12.8067 6.47478C11.9032 5.91183 11.3847 5.24764 10.7696 4.43773C10.9404 4.62516 11.125 4.7995 11.3218 4.95927C11.6286 5.19242 11.9507 5.40257 12.2683 5.59431C14.1409 6.6916 16.2734 7.26685 18.4438 7.26014C20.7171 7.27548 22.8492 6.64658 24.9308 5.76918C25.4502 5.55034 25.9616 5.31309 26.4647 5.05744L26.8236 4.87643C28.3422 4.10181 29.8654 3.2919 31.5864 3.07255C34.2493 2.73355 36.1882 3.95762 37.1438 5.78298C37.173 5.8382 37.2021 5.89342 37.2297 5.95018C37.4796 6.46116 37.6537 7.00578 37.7467 7.56693C37.7635 7.66817 37.7773 7.76941 37.7896 7.87371C37.8758 8.68697 37.805 9.50923 37.581 10.2958Z" fill="url(#paint12_linear_219_368)"/>
    </g>
    <defs>
        <linearGradient id="paint0_linear_219_368" x1="10.7098" y1="2.18418" x2="19.7093" y2="2.18418" gradientUnits="userSpaceOnUse">
            <stop stop-color="#E3D47E"/>
            <stop offset="0.2" stop-color="#D4BA68"/>
            <stop offset="1" stop-color="#946326"/>
        </linearGradient>
        <linearGradient id="paint1_linear_219_368" x1="9.54863" y1="12.9924" x2="40" y2="12.9924" gradientUnits="userSpaceOnUse">
            <stop stop-color="#E3D47E"/>
            <stop offset="0.2" stop-color="#D4BA68"/>
            <stop offset="1" stop-color="#946326"/>
        </linearGradient>
        <linearGradient id="paint2_linear_219_368" x1="4.7582" y1="2.34563" x2="15.4527" y2="16.2245" gradientUnits="userSpaceOnUse">
            <stop stop-color="#E3D47E"/>
            <stop offset="0.2" stop-color="#D4BA68"/>
            <stop offset="1" stop-color="#946326"/>
        </linearGradient>
        <linearGradient id="paint3_linear_219_368" x1="3.56173" y1="12.3575" x2="6.19547" y2="15.0219" gradientUnits="userSpaceOnUse">
            <stop stop-color="#D4BA68" stop-opacity="0"/>
            <stop offset="0.65" stop-color="#916E31" stop-opacity="0.49"/>
            <stop offset="0.98" stop-color="#744D19" stop-opacity="0.7"/>
        </linearGradient>
        <linearGradient id="paint4_linear_219_368" x1="6.5575" y1="7.064" x2="21.7862" y2="7.064" gradientUnits="userSpaceOnUse">
            <stop stop-color="#D4BA68" stop-opacity="0"/>
            <stop offset="0.07" stop-color="#C8AC5E" stop-opacity="0.09"/>
            <stop offset="0.31" stop-color="#A38340" stop-opacity="0.35"/>
            <stop offset="0.55" stop-color="#89652A" stop-opacity="0.55"/>
            <stop offset="0.78" stop-color="#79531D" stop-opacity="0.66"/>
            <stop offset="0.98" stop-color="#744D19" stop-opacity="0.7"/>
        </linearGradient>
        <linearGradient id="paint5_linear_219_368" x1="1.0538" y1="18.5651" x2="22.0639" y2="23.6807" gradientUnits="userSpaceOnUse">
            <stop stop-color="#E4D47F"/>
            <stop offset="0.25" stop-color="#D4BA68"/>
            <stop offset="1" stop-color="#946326"/>
        </linearGradient>
        <linearGradient id="paint6_linear_219_368" x1="6.2768" y1="21.6529" x2="6.92565" y2="15.3056" gradientUnits="userSpaceOnUse">
            <stop stop-color="#D4BA68" stop-opacity="0"/>
            <stop offset="0.02" stop-color="#D0B564" stop-opacity="0.05"/>
            <stop offset="0.23" stop-color="#AF9049" stop-opacity="0.39"/>
            <stop offset="0.44" stop-color="#957334" stop-opacity="0.65"/>
            <stop offset="0.64" stop-color="#835E25" stop-opacity="0.85"/>
            <stop offset="0.83" stop-color="#78511C" stop-opacity="0.96"/>
            <stop offset="1" stop-color="#744D19"/>
        </linearGradient>
        <linearGradient id="paint7_linear_219_368" x1="0.717874" y1="24.1472" x2="17.0388" y2="22.9906" gradientUnits="userSpaceOnUse">
            <stop stop-color="#D4BA68" stop-opacity="0"/>
            <stop offset="0.06" stop-color="#DEC775" stop-opacity="0.16"/>
            <stop offset="0.13" stop-color="#E8D483" stop-opacity="0.31"/>
            <stop offset="0.2" stop-color="#F0DF8D" stop-opacity="0.44"/>
            <stop offset="0.27" stop-color="#F5E695" stop-opacity="0.53"/>
            <stop offset="0.33" stop-color="#F9EA99" stop-opacity="0.58"/>
            <stop offset="0.39" stop-color="#FAEC9B" stop-opacity="0.6"/>
            <stop offset="0.69" stop-color="#FAEC9B" stop-opacity="0.6"/>
            <stop offset="0.85" stop-color="#B6AA69" stop-opacity="0.46"/>
            <stop offset="1" stop-color="#6D6233" stop-opacity="0.3"/>
        </linearGradient>
        <linearGradient id="paint8_linear_219_368" x1="27.5676" y1="17.4683" x2="43.0356" y2="19.4163" gradientUnits="userSpaceOnUse">
            <stop stop-color="#D4BA68" stop-opacity="0"/>
            <stop offset="0.04" stop-color="#D4BA68" stop-opacity="0.17"/>
            <stop offset="0.08" stop-color="#D4BA68" stop-opacity="0.31"/>
            <stop offset="0.12" stop-color="#D4BA68" stop-opacity="0.42"/>
            <stop offset="0.16" stop-color="#D4BA68" stop-opacity="0.48"/>
            <stop offset="0.2" stop-color="#D4BA68" stop-opacity="0.5"/>
            <stop offset="0.39" stop-color="#AE8F49" stop-opacity="0.66"/>
            <stop offset="0.71" stop-color="#835E25" stop-opacity="0.84"/>
            <stop offset="1" stop-color="#744D19" stop-opacity="0.9"/>
        </linearGradient>
        <linearGradient id="paint9_linear_219_368" x1="26.6948" y1="22.3583" x2="36.9858" y2="27.0781" gradientUnits="userSpaceOnUse">
            <stop stop-color="#D4BA68" stop-opacity="0"/>
            <stop offset="0.06" stop-color="#DEC775" stop-opacity="0.16"/>
            <stop offset="0.13" stop-color="#E8D483" stop-opacity="0.31"/>
            <stop offset="0.2" stop-color="#F0DF8D" stop-opacity="0.44"/>
            <stop offset="0.27" stop-color="#F5E695" stop-opacity="0.53"/>
            <stop offset="0.33" stop-color="#F9EA99" stop-opacity="0.58"/>
            <stop offset="0.39" stop-color="#FAEC9B" stop-opacity="0.6"/>
            <stop offset="0.69" stop-color="#FAEC9B" stop-opacity="0.6"/>
            <stop offset="0.85" stop-color="#B6AA69" stop-opacity="0.46"/>
            <stop offset="1" stop-color="#6D6233" stop-opacity="0.3"/>
        </linearGradient>
        <radialGradient id="paint10_radial_219_368" cx="0" cy="0" r="1" gradientUnits="userSpaceOnUse" gradientTransform="translate(9.56397 3.62625) scale(0.012271)">
            <stop stop-color="#474444"/>
            <stop offset="0.16" stop-color="#393435" stop-opacity="0.99"/>
            <stop offset="0.46" stop-color="#241E1F" stop-opacity="0.97"/>
            <stop offset="0.75" stop-color="#171112" stop-opacity="0.95"/>
            <stop offset="1" stop-color="#130C0E" stop-opacity="0.95"/>
        </radialGradient>
        <linearGradient id="paint11_linear_219_368" x1="10.5027" y1="4.06786" x2="10.4613" y2="4.05406" gradientUnits="userSpaceOnUse">
            <stop stop-color="#D4BA68" stop-opacity="0"/>
            <stop offset="0.04" stop-color="#D4BA68" stop-opacity="0.17"/>
            <stop offset="0.08" stop-color="#D4BA68" stop-opacity="0.31"/>
            <stop offset="0.12" stop-color="#D4BA68" stop-opacity="0.42"/>
            <stop offset="0.16" stop-color="#D4BA68" stop-opacity="0.48"/>
            <stop offset="0.2" stop-color="#D4BA68" stop-opacity="0.5"/>
            <stop offset="0.39" stop-color="#AE8F49" stop-opacity="0.66"/>
            <stop offset="0.71" stop-color="#835E25" stop-opacity="0.84"/>
            <stop offset="1" stop-color="#744D19" stop-opacity="0.9"/>
        </linearGradient>
        <linearGradient id="paint12_linear_219_368" x1="39.0628" y1="10.1454" x2="13.7224" y2="1.82547" gradientUnits="userSpaceOnUse">
            <stop stop-color="#D4BA68" stop-opacity="0"/>
            <stop offset="0.04" stop-color="#D4BA68" stop-opacity="0.17"/>
            <stop offset="0.08" stop-color="#D4BA68" stop-opacity="0.31"/>
            <stop offset="0.12" stop-color="#D4BA68" stop-opacity="0.42"/>
            <stop offset="0.16" stop-color="#D4BA68" stop-opacity="0.48"/>
            <stop offset="0.2" stop-color="#D4BA68" stop-opacity="0.5"/>
            <stop offset="0.39" stop-color="#AE8F49" stop-opacity="0.66"/>
            <stop offset="0.71" stop-color="#835E25" stop-opacity="0.84"/>
            <stop offset="1" stop-color="#744D19" stop-opacity="0.9"/>
        </linearGradient>
        <clipPath id="clip0_219_368">
            <rect width="40" height="25.5919" fill="white" transform="translate(0 0.204102)"/>
        </clipPath>
    </defs>
</svg>
