<svg width="108" height="108" viewBox="0 0 108 108" fill="none" xmlns="http://www.w3.org/2000/svg">
<circle cx="54" cy="54" r="54" fill="#E0EBFE"/>
<circle r="1.25926" transform="matrix(1 0 0 -1 15.1108 55.4074)" fill="#76D4B5"/>
<circle r="3.14815" transform="matrix(1 0 0 -1 30.8513 27.0741)" fill="white"/>
<circle r="3.14815" transform="matrix(1 0 0 -1 42.7038 96.1481)" fill="#011A51"/>
<circle r="3.14815" transform="matrix(1 0 0 -1 87.7038 47.1481)" fill="#FB847C"/>
<circle r="1.25926" transform="matrix(1 0 0 -1 129.704 61.7037)" fill="white"/>
<path d="M55.089 89.9932C75.3069 80.6769 79.1018 54.9685 77.1789 36.9247L55.089 21L32.999 36.9247C31.0761 54.9685 34.871 80.6769 55.089 89.9932Z" fill="#011A51" stroke="#020151"/>
<circle cx="54.6795" cy="55.8242" r="9.97149" fill="#FB847C" stroke="#E0EBFE" stroke-width="3"/>
<mask id="mask0_718_5149" style="mask-type:alpha" maskUnits="userSpaceOnUse" x="45" y="46" width="19" height="19">
<circle cx="54.6793" cy="55.8242" r="7.51331" fill="#FB847C" stroke="#DAFFF3" stroke-width="3"/>
</mask>
<g mask="url(#mask0_718_5149)">
<path d="M57.1399 52.1619L57.2295 52.35L57.3582 52.3951C57.3638 52.4077 57.3705 52.4247 57.378 52.447C57.4175 52.5645 57.448 52.7437 57.4666 52.9777C57.4947 53.3317 57.4907 53.7251 57.487 54.0856C57.4859 54.203 57.4847 54.317 57.4847 54.4249V54.5789L57.5713 54.7062C57.7735 55.0033 57.8492 55.2549 57.8639 55.4692C57.8788 55.6863 57.8334 55.8991 57.7431 56.1203C57.6509 56.346 57.5189 56.5649 57.3698 56.7982C57.3493 56.8303 57.328 56.8633 57.3063 56.8969C57.1813 57.0907 57.0417 57.3071 56.9432 57.514L56.926 57.55L56.9148 57.5883C56.5591 58.8019 55.6983 59.5927 54.8649 59.712C54.1015 59.8213 53.0914 59.3889 52.3509 57.5428L52.3225 57.4719L52.2742 57.4128C51.176 56.0677 51.5122 55.1302 51.6588 54.9763L51.7384 54.8927L51.7733 54.7828C51.9936 54.089 51.9935 53.401 51.9935 52.6107C51.9935 52.596 51.9935 52.5812 51.9935 52.5664C51.9935 52.06 52.3059 51.5722 52.8245 51.1866C53.3433 50.8008 53.9786 50.5884 54.444 50.5884C54.8871 50.5884 55.4254 50.6376 55.8851 50.7742C56.3644 50.9166 56.6429 51.1184 56.7465 51.3359L57.1399 52.1619ZM57.3414 52.3635C57.3414 52.3634 57.3425 52.3647 57.3444 52.3677C57.3423 52.3652 57.3413 52.3637 57.3414 52.3635Z" fill="white" stroke="white"/>
<path d="M54.6591 61.0327L54.6792 61.0335L54.6993 61.0327C55.4981 61.0006 56.3641 60.6499 57.3082 59.8496C58.2309 60.0631 59.2564 60.4009 60.0683 60.9933C60.8609 61.5716 61.4548 62.3934 61.5425 63.6335C60.9527 63.8499 60.0056 64.0185 58.8593 64.1347C57.535 64.2688 56.0259 64.3264 54.6792 64.3365C53.3326 64.3264 51.8235 64.2688 50.4992 64.1347C49.3528 64.0185 48.4057 63.8499 47.8159 63.6335C47.9036 62.3934 48.4976 61.5716 49.2901 60.9933C50.102 60.4009 51.1275 60.0631 52.0503 59.8496C52.9943 60.6499 53.8603 61.0006 54.6591 61.0327Z" fill="white" stroke="white"/>
</g>
<circle cx="74.0247" cy="79.2668" r="9.83233" fill="url(#paint0_linear_718_5149)" stroke="#D6E0F2"/>
<path d="M75.2559 82.3371H73.9492C73.9531 81.9738 73.9844 81.6691 74.043 81.423C74.1016 81.173 74.1992 80.9465 74.3359 80.7434C74.4766 80.5402 74.6621 80.3254 74.8926 80.0988C75.0723 79.927 75.2344 79.7648 75.3789 79.6125C75.5234 79.4563 75.6387 79.2922 75.7246 79.1203C75.8105 78.9445 75.8535 78.7434 75.8535 78.5168C75.8535 78.2707 75.8125 78.0617 75.7305 77.8898C75.6484 77.718 75.5273 77.5871 75.3672 77.4973C75.2109 77.4074 75.0156 77.3625 74.7812 77.3625C74.5859 77.3625 74.4023 77.4016 74.2305 77.4797C74.0586 77.5539 73.9199 77.6711 73.8145 77.8313C73.709 77.9875 73.6523 78.1945 73.6445 78.4523H72.2324C72.2402 77.9602 72.3574 77.5461 72.584 77.2102C72.8105 76.8742 73.1152 76.6223 73.498 76.4543C73.8809 76.2863 74.3086 76.2023 74.7812 76.2023C75.3047 76.2023 75.752 76.2922 76.123 76.4719C76.4941 76.6477 76.7773 76.9055 76.9727 77.2453C77.1719 77.5813 77.2715 77.9875 77.2715 78.4641C77.2715 78.8078 77.2031 79.1203 77.0664 79.4016C76.9297 79.6789 76.752 79.9387 76.5332 80.1809C76.3145 80.4191 76.0781 80.6574 75.8242 80.8957C75.6055 81.0949 75.457 81.3117 75.3789 81.5461C75.3008 81.7766 75.2598 82.0402 75.2559 82.3371ZM73.832 84.1652C73.832 83.9543 73.9043 83.7766 74.0488 83.632C74.1934 83.4836 74.3906 83.4094 74.6406 83.4094C74.8906 83.4094 75.0879 83.4836 75.2324 83.632C75.377 83.7766 75.4492 83.9543 75.4492 84.1652C75.4492 84.3762 75.377 84.5559 75.2324 84.7043C75.0879 84.8488 74.8906 84.9211 74.6406 84.9211C74.3906 84.9211 74.1934 84.8488 74.0488 84.7043C73.9043 84.5559 73.832 84.3762 73.832 84.1652Z" fill="#FB847C"/>
<defs>
<linearGradient id="paint0_linear_718_5149" x1="84.9966" y1="79.9962" x2="63.6924" y2="81.2253" gradientUnits="userSpaceOnUse">
<stop stop-color="#E5EDFD"/>
<stop offset="0.495527" stop-color="#FDFDFD"/>
<stop offset="1" stop-color="#E5EDFD"/>
</linearGradient>
</defs>
</svg>
