<svg width="154" height="154" viewBox="0 0 154 154" fill="none" xmlns="http://www.w3.org/2000/svg">
<rect x="24.766" y="66.3592" width="3.57778" height="3.57778" stroke="#011A51" stroke-width="0.2"/>
<path d="M16.7437 68.2075V68.4887H15.9688V68.2075H16.7437Z" fill="#011A51" fill-opacity="0.51"/>
<circle cx="54" cy="54" r="54" fill="#E0EBFE"/>
<g clip-path="url(#clip0_718_5093)">
<path d="M81.495 74.0887C79.974 66.6401 78.0727 64.1568 78.0727 64.1568L77.3463 63.5863L76.4729 62.8991L76.4771 62.8108L76.2699 62.7395L76.2212 62.7012L76.1415 62.6392L76.1287 62.6531L76.1016 62.6815L72.149 61.3208L67.1345 59.5957L64.8124 56.5388C64.4342 56.041 63.9474 55.6386 63.3899 55.3632C62.8325 55.0879 62.2197 54.947 61.5995 54.9516L54.1837 55.0072C53.181 55.0147 52.2173 55.4019 51.4821 56.0925L46.6078 60.6717L39.0126 64.3455L38.9998 64.3325L38.9201 64.3902L37.7465 64.9585L37.795 65.2138L37.0686 65.7446C37.0686 65.7446 35.1674 68.0554 33.6463 74.9861C33.2594 76.7497 33.0689 80.5326 33.0002 85.1943C32.9967 85.4301 33.0396 85.6642 33.1263 85.8831C33.213 86.102 33.3418 86.3012 33.5052 86.4693C33.6686 86.6373 33.8634 86.7707 34.0782 86.8618C34.2929 86.953 34.5235 86.9999 34.7563 87H75.3235V87H80.3868C80.6195 86.9999 80.8499 86.9529 81.0645 86.8619C81.2792 86.7709 81.4738 86.6377 81.6372 86.4698C81.8006 86.302 81.9294 86.103 82.0162 85.8843C82.1031 85.6657 82.1461 85.4317 82.143 85.1961C82.0758 80.1235 81.8854 76.0011 81.495 74.0887Z" fill="#011A51"/>
<path d="M86.7 23.4957C85.1217 23.4957 83.6081 24.1307 82.492 25.2611C81.376 26.3914 80.749 27.9244 80.749 29.5229C80.749 31.1214 81.376 32.6544 82.492 33.7848C83.6081 34.9151 85.1217 35.5501 86.7 35.5501H131.049C132.627 35.5501 134.141 34.9151 135.257 33.7848C136.373 32.6544 137 31.1214 137 29.5229C137 27.9244 136.373 26.3914 135.257 25.2611C134.141 24.1307 132.627 23.4957 131.049 23.4957H86.7Z" fill="#E5E5E5"/>
<path d="M86.6997 24.7155C85.4409 24.7155 84.2335 25.222 83.3434 26.1236C82.4532 27.0251 81.9531 28.2479 81.9531 29.5229C81.9531 30.7979 82.4532 32.0207 83.3434 32.9222C84.2335 33.8238 85.4409 34.3303 86.6997 34.3303H131.049C132.308 34.3303 133.515 33.8238 134.405 32.9222C135.295 32.0207 135.795 30.7979 135.795 29.5229C135.795 28.2479 135.295 27.0251 134.405 26.1236C133.515 25.222 132.308 24.7155 131.049 24.7155H86.6997Z" fill="white"/>
<path d="M59.0563 52.13C64.4221 52.13 68.7718 47.7245 68.7718 42.2901C68.7718 36.8557 64.4221 32.4502 59.0563 32.4502C53.6906 32.4502 49.3408 36.8557 49.3408 42.2901C49.3408 47.7245 53.6906 52.13 59.0563 52.13Z" fill="#9E616A"/>
<path d="M56.5705 51.6482C56.529 51.5556 56.4876 51.4627 56.4463 51.3695C56.4622 51.3701 56.4779 51.3724 56.4938 51.3728L56.5705 51.6482Z" fill="#2F2E41"/>
<path d="M49.0709 32.8977C49.5623 32.5007 50.1366 32.1354 50.7648 32.1559C51.3931 32.1764 52.0301 32.7511 51.9 33.3739C53.0539 31.3046 54.8907 29.713 57.0879 28.8786C59.285 28.0442 61.7022 28.0202 63.915 28.811C65.4765 29.3689 67.0077 30.4851 67.3664 32.1223C67.4585 32.5425 67.4782 33.0033 67.7373 33.3446C68.064 33.7749 68.689 33.8722 69.2037 33.7209C69.2088 33.7193 69.2139 33.7178 69.2191 33.7163C69.306 33.6862 69.3999 33.6832 69.4885 33.7078C69.5771 33.7323 69.6564 33.7832 69.7161 33.8539C69.7759 33.9246 69.8133 34.0118 69.8236 34.1043C69.8338 34.1967 69.8165 34.2902 69.7737 34.3726L69.3319 35.2071C69.8889 35.3328 70.4675 35.3203 71.0187 35.1707C71.1102 35.1464 71.207 35.1514 71.2956 35.185C71.3843 35.2185 71.4605 35.2791 71.5139 35.3582C71.5672 35.4374 71.5951 35.5314 71.5936 35.6272C71.5922 35.7231 71.5615 35.8161 71.5057 35.8936C70.0489 37.9194 67.615 39.2275 65.1313 39.2121C63.3661 39.2012 61.5826 38.585 59.8647 38.9962C59.2 39.1552 58.579 39.4629 58.0471 39.8968C57.5152 40.3306 57.086 40.8796 56.7909 41.5034C56.4958 42.1271 56.3424 42.8099 56.3418 43.5016C56.3412 44.1932 56.4936 44.8762 56.7876 45.5005C56.2599 44.9158 55.2396 45.0543 54.6997 45.6275C54.1599 46.2008 54.0201 47.0564 54.0745 47.8467C54.1577 49.0554 54.6253 50.1943 55.1182 51.3028C50.9854 51.1711 47.0764 48.2348 45.7606 44.2634C44.4393 40.2755 45.824 35.5209 49.0709 32.8977Z" fill="#2F2E41"/>
<path opacity="0.2" d="M42.5625 71.8399L45.2875 86.8558L46.9225 87L42.5625 71.8399Z" fill="black"/>
<path opacity="0.2" d="M72.5788 70.7075L69.8538 86.8449L68.2188 87L72.5788 70.7075Z" fill="black"/>
<path d="M51.3945 27.8441C50.872 28.0651 50.3269 27.8229 50.0982 27.2684C49.8661 26.7053 50.0829 26.1338 50.6137 25.9093C51.1446 25.6847 51.6801 25.9275 51.916 26.4996C52.1483 27.0631 51.9339 27.616 51.3945 27.8441ZM50.3937 24.801L49.9782 24.9767C49.8745 25.0201 49.7584 25.0224 49.653 24.9833C49.5476 24.9441 49.4605 24.8663 49.409 24.7653L49.3885 24.7246C48.9415 23.9081 48.8903 22.9158 49.2372 21.7768C49.5585 20.755 49.692 20.0364 49.4236 19.3854C49.1133 18.6328 48.4506 18.397 47.6056 18.7385C47.2778 18.8771 47.1735 18.8749 46.9156 19.1341C46.8595 19.1911 46.7926 19.2361 46.719 19.2665C46.6453 19.2968 46.5664 19.3117 46.4869 19.3105C46.4101 19.3096 46.3342 19.293 46.2638 19.2618C46.1934 19.2305 46.13 19.1852 46.0772 19.1286C45.9756 19.0194 45.9187 18.8753 45.918 18.7254C45.9172 18.5754 45.9727 18.4307 46.0732 18.3205C46.5067 17.8609 47.0296 17.4973 47.6088 17.2526C49.4245 16.4848 50.3384 17.6184 50.7567 18.6329C51.1658 19.6251 50.9357 20.5458 50.5659 21.7381C50.256 22.7289 50.2741 23.4631 50.6261 24.193C50.6515 24.2482 50.6656 24.308 50.6676 24.3689C50.6697 24.4297 50.6595 24.4904 50.6378 24.5472C50.6161 24.604 50.5833 24.6557 50.5413 24.6993C50.4994 24.743 50.4492 24.7775 50.3937 24.801L50.3937 24.801Z" fill="#FF897E"/>
<path d="M96.4958 32.3975H87.672C87.644 32.3977 87.6162 32.3922 87.5902 32.3815C87.5643 32.3708 87.5407 32.3549 87.5208 32.3349C87.5009 32.3149 87.4851 32.2911 87.4743 32.2649C87.4636 32.2387 87.458 32.2106 87.458 32.1822C87.458 32.1538 87.4636 32.1257 87.4743 32.0995C87.4851 32.0733 87.5009 32.0495 87.5208 32.0295C87.5407 32.0095 87.5643 31.9936 87.5902 31.9829C87.6162 31.9722 87.644 31.9668 87.672 31.9669H96.4958C96.5519 31.9673 96.6056 31.9902 96.6452 32.0305C96.6847 32.0708 96.7069 32.1254 96.7069 32.1822C96.7069 32.239 96.6847 32.2936 96.6452 32.3339C96.6056 32.3742 96.5519 32.3971 96.4958 32.3975Z" fill="#FF897E"/>
<path d="M107.689 32.4692H98.8654C98.8373 32.4694 98.8095 32.464 98.7836 32.4532C98.7576 32.4425 98.734 32.4267 98.7141 32.4067C98.6942 32.3867 98.6785 32.3629 98.6677 32.3367C98.6569 32.3105 98.6514 32.2823 98.6514 32.254C98.6514 32.2256 98.6569 32.1974 98.6677 32.1712C98.6785 32.145 98.6942 32.1212 98.7141 32.1012C98.734 32.0812 98.7576 32.0654 98.7836 32.0547C98.8095 32.0439 98.8373 32.0385 98.8654 32.0387H107.689C107.717 32.0385 107.745 32.0439 107.771 32.0547C107.797 32.0654 107.821 32.0812 107.84 32.1012C107.86 32.1212 107.876 32.145 107.887 32.1712C107.898 32.1974 107.903 32.2256 107.903 32.254C107.903 32.2823 107.898 32.3105 107.887 32.3367C107.876 32.3629 107.86 32.3867 107.84 32.4067C107.821 32.4267 107.797 32.4425 107.771 32.4532C107.745 32.464 107.717 32.4694 107.689 32.4692Z" fill="#FF897E"/>
<path d="M118.884 32.541H110.06C110.004 32.5406 109.95 32.5177 109.91 32.4774C109.871 32.4371 109.849 32.3825 109.849 32.3257C109.849 32.2689 109.871 32.2143 109.91 32.174C109.95 32.1337 110.004 32.1108 110.06 32.1104H118.884C118.912 32.1103 118.939 32.1157 118.965 32.1264C118.991 32.1371 119.015 32.153 119.035 32.173C119.055 32.193 119.07 32.2168 119.081 32.243C119.092 32.2692 119.098 32.2973 119.098 32.3257C119.098 32.3541 119.092 32.3822 119.081 32.4084C119.07 32.4346 119.055 32.4584 119.035 32.4784C119.015 32.4984 118.991 32.5143 118.965 32.525C118.939 32.5357 118.912 32.5412 118.884 32.541H118.884Z" fill="#FF897E"/>
<path d="M130.077 32.6127H121.253C121.197 32.6123 121.143 32.5895 121.104 32.5491C121.064 32.5088 121.042 32.4543 121.042 32.3975C121.042 32.3406 121.064 32.2861 121.104 32.2458C121.143 32.2054 121.197 32.1826 121.253 32.1822H130.077C130.133 32.1826 130.187 32.2054 130.226 32.2458C130.266 32.2861 130.288 32.3406 130.288 32.3975C130.288 32.4543 130.266 32.5088 130.226 32.5491C130.187 32.5895 130.133 32.6123 130.077 32.6127Z" fill="#FF897E"/>
<path d="M92.0648 30.4164C92.9705 30.4164 93.7048 29.6728 93.7048 28.7555C93.7048 27.8381 92.9705 27.0945 92.0648 27.0945C91.159 27.0945 90.4248 27.8381 90.4248 28.7555C90.4248 29.6728 91.159 30.4164 92.0648 30.4164Z" fill="#FF897E"/>
<path d="M103.326 30.4164C104.231 30.4164 104.965 29.6728 104.965 28.7555C104.965 27.8381 104.231 27.0945 103.326 27.0945C102.42 27.0945 101.686 27.8381 101.686 28.7555C101.686 29.6728 102.42 30.4164 103.326 30.4164Z" fill="#FF897E"/>
<path d="M114.587 30.4164C115.493 30.4164 116.227 29.6728 116.227 28.7555C116.227 27.8381 115.493 27.0945 114.587 27.0945C113.682 27.0945 112.947 27.8381 112.947 28.7555C112.947 29.6728 113.682 30.4164 114.587 30.4164Z" fill="#FF897E"/>
<path d="M125.848 30.4164C126.754 30.4164 127.488 29.6728 127.488 28.7555C127.488 27.8381 126.754 27.0945 125.848 27.0945C124.942 27.0945 124.208 27.8381 124.208 28.7555C124.208 29.6728 124.942 30.4164 125.848 30.4164Z" fill="#FF897E"/>
<circle r="3.19444" transform="matrix(1 0 0 -1 84.1944 52.1944)" fill="#FB847C"/>
</g>
<circle r="3.19444" transform="matrix(1 0 0 -1 41.1944 99.1944)" fill="#011A51"/>
<circle r="3.19444" transform="matrix(1 0 0 -1 25.1944 19.1944)" fill="white"/>
<circle r="9" transform="matrix(1 0 0 -1 16 60)" fill="#FB847C"/>
<defs>
<clipPath id="clip0_718_5093">
<rect width="104" height="70" fill="white" transform="translate(33 17)"/>
</clipPath>
</defs>
</svg>
 